<?xml version="1.0" encoding="UTF-8"?>
<svg id="Layer_2" data-name="Layer 2" xmlns="http://www.w3.org/2000/svg" viewBox="0 0 165.91 293.95">
  <defs>
    <style>
      .cls-1 {
        fill: #daca5e;
      }
    </style>
  </defs>
  <g id="Layer_2-2" data-name="Layer 2">
    <g>
      <path class="cls-1" d="M60.96,208.12v19.02h4.39v-19.02h-4.39ZM61.67,208.82h2.98v17.61h-2.98v-17.61Z"/>
      <path class="cls-1" d="M98.82,188.56h.03v-13.16h-3.91v13.16h3.88ZM95.68,176.1h2.44v11.75h-2.44v-11.75Z"/>
      <path class="cls-1" d="M84.54,131.2c.4-.4.65-.96.65-1.57s-.25-1.17-.65-1.57c-.4-.4-.96-.65-1.57-.65s-1.17.25-1.57.65c-.4.4-.65.96-.65,1.57s.25,1.17.65,1.57c.4.4.96.65,1.57.65s1.17-.25,1.57-.65ZM81.46,129.63c0-.42.17-.8.44-1.07.27-.27.65-.44,1.07-.44s.8.17,1.07.44c.27.27.44.65.44,1.07s-.17.8-.44,1.07c-.27.27-.65.44-1.07.44s-.8-.17-1.07-.44c-.27-.27-.44-.65-.44-1.07Z"/>
      <path class="cls-1" d="M100.88,208.12h-.35v19.02h4.42v-19.02h-4.07ZM104.22,226.43h-2.95v-17.61h2.95v17.61Z"/>
      <path class="cls-1" d="M67.06,175.4v13.16h3.88v-13.16h-3.88ZM67.76,176.1h2.47v11.75h-2.47v-11.75Z"/>
      <path class="cls-1" d="M157.06,161.03c-2.12-9.61-5.13-18.93-9.48-27.81-4.34-8.88-10.01-17.31-17.43-25.16l-.56-.59-.5.64c-3.5,4.43-6.67,8.93-9.52,13.48-2.98,4.74-5.62,9.53-7.96,14.36-2.35,4.86-4.43,9.82-6.23,14.79-1.79,4.95-3.31,9.91-4.55,14.77-.36-.43-.68-1.03-1.09-1.99-.18-.41-.34-.8-.55-1.15.07.12.14.25.2.38h0c1.27-4.65,2.81-9.48,4.6-14.29,1.69-4.53,3.6-9.06,5.71-13.42,2.5-5.16,5.34-10.28,8.56-15.33,3.08-4.85,6.52-9.64,10.34-14.35l.2-.24-.05-.31c-1.66-10.58-3.87-20.69-6.65-30.29-2.74-9.45-6.03-18.4-9.9-26.82-3.91-8.5-8.4-16.46-13.51-23.84-4.49-6.48-10.05-13.43-15.74-18.91-5.56,5.23-11.39,12.64-15.74,18.91-5.11,7.37-9.6,15.33-13.51,23.84-3.87,8.42-7.16,17.37-9.9,26.82-2.78,9.6-4.99,19.71-6.65,30.29l-.05.31.2.24c3.82,4.71,7.25,9.5,10.34,14.35,3.22,5.05,6.06,10.17,8.56,15.33,2.11,4.36,4.02,8.89,5.71,13.42,1.79,4.81,3.33,9.64,4.6,14.29h0c.07-.13.13-.26.2-.38-.2.35-.37.74-.55,1.15-.41.96-.73,1.56-1.09,1.99-1.24-4.86-2.76-9.82-4.55-14.77-1.8-4.97-3.87-9.93-6.23-14.79-2.34-4.82-4.98-9.62-7.96-14.36-2.85-4.55-6.02-9.04-9.52-13.48l-.5-.64-.56.59c-7.42,7.84-13.09,16.28-17.43,25.16-4.34,8.88-7.36,18.2-9.48,27.81-2.17,9.85-3.39,20.02-4.13,30.37-.74,10.29-.99,20.79-1.2,31.3,0,12.75.31,25.61.47,38.37l42.01-.25,36.96,28.68,36.96-28.68,42.01.25c.16-12.76.47-25.62.47-38.37-.21-10.51-.46-21.01-1.2-31.3-.74-10.34-1.97-20.52-4.13-30.37ZM101.2,167.6v23.63h-10.6v-8.3h.12v-2.32c.33-.16.64-.37.91-.65.62-.62,1.05-1.54,1.15-2.82.03-.42.03-.87,0-1.37v-.02c-.36-2.49.72-2.92,1.52-3.24l.04-.02.02-.65c-1.19-.57-2.31-.62-3.24-.36-.83.23-1.51.69-1.98,1.24.59-.82,1.25-1.43,1.56-1.61l.06-.57c-.58-.52-1.17-.83-1.76-.97-.63-.14-1.24-.09-1.81.12-.56.21-1.06.57-1.47,1.02-.13.15-.26.31-.38.47-.05-.59-.16-1.16-.36-1.7-.26-.71-.66-1.36-1.25-1.91h17.46ZM75.9,182.23v-1.14h14.12v1.14h-14.12ZM89.9,183.03v8.05h-2.12v-8.05h2.12ZM87.08,182.93v8.3h-3.47v-8.3h3.47ZM82.78,182.93v8.3h-3.92v-8.3h3.92ZM78.15,183.03v8.05h-2.12v-8.05h2.12ZM79.14,180.39s.06-.04.08-.05c.54-.36.96-.89,1.26-1.66v-.03c.14-.46.19-1.03.25-1.6.09-1.02.19-2.06.71-2.22.24-.04.55-.05.81.02.16.05.31.13.4.28h.6c.09-.14.23-.23.4-.28.26-.07.56-.06.81-.02.52.16.62,1.2.71,2.22.05.57.11,1.14.24,1.6v.03c.31.78.73,1.3,1.27,1.66.03.02.06.04.08.05h-7.62ZM89.3,180.26c-.21.02-.42.01-.63,0-.64-.08-1.18-.23-1.61-.52-.42-.28-.74-.69-.99-1.31-.11-.41-.16-.93-.21-1.46-.12-1.27-.24-2.56-1.24-2.84h-.03c-.33-.06-.76-.08-1.14.03-.18.05-.35.13-.5.25-.15-.12-.32-.2-.5-.25-.39-.11-.81-.09-1.14-.04h-.03c-1.01.28-1.13,1.57-1.24,2.84-.05.53-.1,1.06-.21,1.46-.24.62-.57,1.03-.99,1.31-.43.29-.96.44-1.61.52-.21.02-.42.02-.63,0-.69-.05-1.34-.3-1.83-.8-.5-.5-.86-1.28-.95-2.38-.03-.38-.03-.79,0-1.25.33-2.32-.4-3.18-1.22-3.64.73-.2,1.4-.19,1.99-.03.96.26,1.68.91,2.01,1.59.55,1.13.5,2.06.25,2.74-.13.35-.31.63-.5.83-.17.18-.31.29-.41.32,0,0,0,0,0,.01l.02.08-.02-.08s.03.02.05.02l-.03.05-.3.52s.09.06.14.07c.11.04.32.12.58.15.76.08,1.93-.18,2.18-2.44.11-.98-.22-1.98-.7-2.85-.57-1.03-1.37-1.91-1.93-2.38.37-.27.74-.44,1.1-.53.49-.11.97-.07,1.41.1.45.17.86.46,1.2.84.44.49.77,1.12.93,1.8l.69-.12c-.11-1.05-.08-2.04.2-2.92.26-.8.72-1.51,1.48-2.12.67.51,1.11,1.17,1.38,1.9.35.97.41,2.07.29,3.14l.69.12c.16-.69.49-1.32.93-1.8.34-.38.75-.67,1.2-.84.44-.16.92-.21,1.41-.1.36.08.73.25,1.1.53-.56.47-1.36,1.34-1.93,2.38-.48.88-.81,1.87-.7,2.85.25,2.27,1.41,2.53,2.17,2.44.26-.03.47-.1.58-.14.05-.01.1-.04.15-.07l-.3-.52.02-.08s0,0,0,0c-.1-.03-.24-.14-.41-.32-.18-.2-.37-.48-.5-.83-.25-.68-.3-1.61.25-2.74.33-.68,1.05-1.33,2.01-1.59.58-.16,1.26-.18,1.99.03-.81.46-1.54,1.32-1.22,3.64.03.46.03.87,0,1.25-.09,1.11-.44,1.88-.95,2.38-.49.5-1.14.74-1.83.8ZM77.34,173.67c.38.73.62,1.53.54,2.29-.13,1.18-.53,1.62-.93,1.77.21-.25.42-.58.57-.98.29-.78.37-1.83-.18-3.08ZM88.4,176.74c.15.4.36.73.57.98-.4-.14-.8-.59-.93-1.77-.08-.76.16-1.57.54-2.29-.54,1.24-.47,2.29-.17,3.08ZM89.9,177.68s.04-.02.05-.03l-.02.08-.03-.05ZM63.23,147.96c-1.71-4.59-3.63-9.16-5.76-13.55-2.52-5.2-5.39-10.37-8.64-15.48-3.06-4.81-6.46-9.57-10.23-14.24,1.64-10.4,3.82-20.35,6.56-29.8,2.72-9.38,5.99-18.27,9.83-26.63,3.87-8.42,8.33-16.31,13.39-23.62,4.4-6.35,9.25-12.26,14.58-17.71,5.33,5.45,10.18,11.36,14.58,17.71,5.06,7.31,9.52,15.2,13.39,23.62,3.84,8.36,7.11,17.25,9.83,26.63,2.74,9.45,4.92,19.4,6.56,29.8-3.77,4.67-7.17,9.43-10.23,14.24-3.25,5.11-6.12,10.28-8.64,15.48-2.13,4.39-4.05,8.96-5.76,13.55-1.63,4.39-3.06,8.8-4.27,13.07v-7.96l-2.53-4.09c.04-.19.09-.41.14-.66,1.14-5.16,5.02-22.83-2.49-50.26h0c-1.42-5-3.96-17.13-4.22-26.92-.13-4.88.3-9.15,1.7-11.59.19-.22.34-.46.48-.71.23-.29.49-.55.77-.75l-.61-.82v-.02c-.72-.27-1.39-.85-1.94-1.65-.56-.83-.99-1.88-1.23-3.1h0c-1.85-8.64-3.04-15.14-3.7-19.87-.65-4.68-.78-7.61-.49-9.14v-.04s0-.05,0-.05c.01-.59.09-1.16.23-1.7.14-.54.35-1.05.63-1.53l.11-.19-1.81-6.87h-1.02l-1.81,6.87.11.19c.27.49.48,1,.63,1.53.14.54.22,1.11.23,1.7v.05s0,.04,0,.04c.29,1.53.16,4.46-.49,9.14-.66,4.73-1.85,11.22-3.7,19.86h0c-.24,1.22-.67,2.28-1.23,3.11-.55.8-1.21,1.38-1.94,1.65v.02s-.6.82-.6.82c.28.21.54.46.77.75.14.25.29.49.48.71,1.41,2.43,1.83,6.7,1.7,11.59-.26,9.79-2.8,21.93-4.22,26.92h0c-7.51,27.43-3.63,45.1-2.49,50.26.05.25.1.48.14.66l-2.53,4.09v7.96c-1.2-4.28-2.63-8.68-4.27-13.07ZM82.66,23.35c-.02-.66-.1-1.3-.26-1.9-.15-.55-.36-1.09-.62-1.59l1.19-4.52,1.19,4.52c-.27.51-.48,1.04-.62,1.59-.16.6-.25,1.24-.26,1.9-.3,1.65-.18,4.68.49,9.44.26,1.83.59,3.93,1.01,6.31h-3.6c.42-2.38.76-4.48,1.01-6.31.66-4.77.79-7.79.49-9.44ZM84.08,40.71c-.16-.38-.42-.75-.85-1.05v-.02h1.62v.06c-.38.29-.63.65-.78,1.01ZM84.96,40.23c.1.57.21,1.16.33,1.76h-.96c-.02-.39.03-1.18.64-1.76ZM83.83,41.99h-1.74c-.02-.44.05-1.38.87-1.96.82.58.89,1.52.87,1.96ZM82.68,39.64v.02c-.43.3-.69.68-.85,1.05-.15-.36-.39-.72-.79-1.01v-.06h1.63ZM81.59,41.99h-.96c.11-.6.22-1.19.33-1.76.6.58.65,1.37.64,1.76ZM81.68,42.53h0s.04,0,.04,0h.27s0,0,0,0h1.93s.04,0,.04,0h.27s0,0,0,0h1.15l.07.39h-5.01l.07-.39h1.15ZM82.96,43.8c1.13.68,1.25,1.87,1.24,2.46h-2.47c-.02-.59.11-1.78,1.24-2.46ZM81.42,44.73c-.17-.4-.43-.81-.85-1.15h1.7c-.42.34-.68.75-.85,1.15ZM83.65,43.58h1.7c-.42.34-.68.75-.85,1.15-.17-.4-.44-.81-.85-1.15ZM85.68,44.05c.14.71.28,1.45.43,2.2h-1.31c-.01-.52.08-1.51.88-2.2ZM81.11,46.26h-1.31c.15-.75.29-1.49.43-2.2.8.69.89,1.68.88,2.2ZM82.96,47.06h3.32l.13.63h-6.89l.13-.63h3.32ZM82.96,48.61c1.72.88,1.76,2.66,1.71,3.3h-3.41c-.05-.65-.01-2.43,1.71-3.3ZM80.87,49.87c-.2-.48-.51-.96-1-1.37h1.99c-.48.41-.8.89-1,1.37ZM84.05,48.49h2c-.49.41-.8.89-1,1.37-.2-.48-.51-.96-1-1.37ZM86.65,48.91c.2.97.41,1.97.63,3.01h-1.86c-.04-.58-.02-2.08,1.23-3.01ZM80.49,51.92h-1.86c.22-1.03.43-2.04.63-3.01,1.25.93,1.28,2.43,1.23,3.01ZM82.96,52.79h4.51c.04.21.09.41.14.61h-9.31c.05-.2.1-.4.14-.61h4.51ZM82.96,54.28h4.93c.26.72.58,1.37.97,1.93.34.5.72.93,1.14,1.27h-14.07c.42-.35.8-.78,1.14-1.27.38-.56.71-1.21.97-1.93h4.93ZM90.58,58.32c-.13.17-.25.36-.37.55-.08.09-.16.18-.25.25-.23.18-.49.3-.75.42-.32.15-.65.3-1.03.59-.51.4-.86.81-1.09,1.23-.29-.66-.8-1.37-1.69-1.93l-.33-.21-.33.21c-1,.64-1.52,1.46-1.79,2.19-.27-.73-.79-1.55-1.79-2.19l-.33-.21-.33.21c-.88.56-1.39,1.27-1.69,1.93-.23-.41-.58-.83-1.09-1.23-.37-.29-.7-.44-1.03-.59-.26-.12-.52-.24-.75-.42-.09-.07-.18-.16-.25-.25-.12-.2-.24-.38-.37-.55h15.25ZM87.09,67.48c.09-.07.18-.14.26-.22.4-.4.65-.96.65-1.57s-.25-1.17-.65-1.57c-.11-.11-.23-.2-.36-.29l.66.02v-.04h.98c-.18,1.14-.29,2.37-.35,3.67h-1.19ZM88.25,68.32c-.02.73-.02,1.48,0,2.24-.85-.8-1.01-1.77-1.04-2.24h1.05ZM77.63,67.48c-.06-1.3-.17-2.54-.35-3.67h.97v.04s.66-.02.66-.02c-.13.08-.25.18-.36.29-.4.4-.65.96-.65,1.57s.25,1.17.65,1.57c.08.08.17.16.26.22h-1.19ZM78.71,68.32c-.02.47-.19,1.44-1.04,2.24.01-.76.01-1.51,0-2.24h1.05ZM78.62,65.68c0-.42.17-.8.44-1.07.27-.27.65-.44,1.07-.44s.8.17,1.07.44c.27.27.44.65.44,1.07s-.17.8-.44,1.07c-.27.27-.65.44-1.07.44s-.8-.17-1.07-.44c-.27-.27-.44-.65-.44-1.07ZM79.38,62.96c.03-.56.25-1.77,1.46-2.63,1.21.87,1.43,2.08,1.46,2.63h-2.92ZM82.41,68.32c-.03.53-.23,1.7-1.4,2.54-1.17-.84-1.37-2.01-1.4-2.54h2.8ZM81.45,67.48c.09-.07.18-.14.26-.22.4-.4.65-.96.65-1.57s-.25-1.17-.65-1.57c-.12-.12-.25-.22-.38-.31h3.27c-.14.09-.27.19-.38.31-.4.4-.65.96-.65,1.57s.25,1.17.65,1.57c.08.08.17.16.26.22h-3.02ZM83.61,62.96c.03-.56.25-1.77,1.46-2.63,1.21.87,1.43,2.08,1.46,2.63h-2.92ZM86.3,68.32c-.03.53-.23,1.7-1.4,2.54-1.17-.84-1.37-2.01-1.4-2.54h2.8ZM85.78,67.2c-.42,0-.8-.17-1.07-.44-.27-.27-.44-.65-.44-1.07s.17-.8.44-1.07c.27-.27.65-.44,1.07-.44s.8.17,1.07.44c.27.27.44.65.44,1.07s-.17.8-.44,1.07c-.27.27-.65.44-1.07.44ZM87.69,62.96c.02-.24.07-.5.17-.76.15-.4.44-.82.97-1.22.19-.15.38-.25.57-.35-.25.71-.46,1.49-.62,2.33h-1.09ZM77.09,60.98c.53.4.81.83.97,1.22.1.27.15.53.17.76h-1.09c-.17-.84-.37-1.63-.62-2.33.19.09.38.2.57.35ZM77.64,71.7c.76-.49,1.23-1.1,1.52-1.68.29.58.76,1.19,1.54,1.69l.31.2.31-.2c.87-.55,1.36-1.25,1.63-1.89.28.64.77,1.34,1.63,1.89l.31.2.31-.2c.78-.49,1.25-1.1,1.54-1.69.29.58.76,1.18,1.52,1.68.34,9.8,2.84,21.71,4.24,26.65h0c2.66,9.72,3.88,18.2,4.29,25.32l-.83-.09c-.1.95-1.56,1.07-3.24,1.21-2.34.19-5.05.42-6.12,2.8-.28-.39-.61-.74-.96-1.12-.08-.08-.16-.17-.24-.26,1.05-1.24,3.05-1.54,4.82-1.81,2.16-.32,4.02-.6,4.05-2.41h0c.47-.1.83-.33,1.09-.63.44-.5.61-1.18.61-1.78,0-.51-.2-1.13-.54-1.76-.34-.63-.81-1.29-1.36-1.88l-.34-.37-.34.37c-.52.59-1.01,1.26-1.35,1.9-.33.62-.53,1.22-.53,1.72,0,.59.17,1.28.61,1.78.29.33.7.58,1.23.66-.05,1-1.54,1.22-3.27,1.47-1.89.28-4.01.6-5.29,2.01-.17-.21-.33-.44-.47-.69-.01-.99,1.3-1.18,2.33-1.37,1.17-.22,2.31-.43,2.57-1.53.34-.12.61-.32.82-.56.44-.5.61-1.18.61-1.78,0-.51-.2-1.13-.54-1.76-.33-.63-.81-1.29-1.35-1.88l-.34-.37-.33.37c-.52.59-1.01,1.26-1.35,1.9-.33.62-.53,1.22-.53,1.72,0,.59.17,1.28.61,1.78.3.35.73.6,1.29.67-.33.28-.97.4-1.62.52-.99.18-2.13.37-2.71,1.06-.14-.44-.23-.94-.28-1.51.44-.11.78-.35,1.04-.66.43-.52.6-1.23.6-1.85,0-.11,0-.23-.03-.35h0c.13-3.52,2.07-3.75,3.68-3.95,1.21-.15,2.28-.28,2.68-1.33.46-.1.81-.33,1.08-.63.44-.5.61-1.18.61-1.77,0-.51-.2-1.13-.54-1.76-.33-.63-.81-1.29-1.35-1.88l-.34-.37-.34.37c-.52.58-1.01,1.26-1.35,1.9-.33.62-.53,1.22-.53,1.72,0,.59.17,1.28.61,1.77.25.29.59.51,1.01.62-.37.29-.98.36-1.65.44-1.66.2-3.59.43-4.26,3.08l-.06-.1c-.16-1.53.57-2.05,1.19-2.49.39-.28.74-.53.95-.93.4-.11.71-.33.96-.6.44-.5.61-1.18.61-1.77,0-.51-.2-1.13-.54-1.76-.33-.63-.81-1.29-1.35-1.88l-.34-.37-.34.37c-.52.58-1.01,1.26-1.35,1.9-.33.62-.53,1.22-.53,1.72,0,.59.17,1.28.61,1.77.25.29.59.51,1.02.62-.08.06-.15.11-.24.17h0c-.61.43-1.29.92-1.52,1.97l-.04-.05v-7.34c.38-1.55,1.78-1.68,3-1.79,1.15-.11,2.19-.2,2.6-1.16.36-.12.64-.32.86-.57.44-.5.61-1.18.61-1.77,0-.51-.2-1.13-.54-1.76-.33-.63-.81-1.29-1.35-1.87l-.34-.37-.34.37c-.52.59-1.01,1.26-1.35,1.9-.33.62-.53,1.22-.53,1.72,0,.59.17,1.28.61,1.77.25.28.58.5,1,.61-.35.12-.82.16-1.31.21-1.02.1-2.14.2-2.92.87v-.83c.45-.11.8-.35,1.06-.66.43-.52.6-1.24.6-1.85,0-.52-.2-1.15-.53-1.8-.2-.4-.45-.82-.73-1.21,1.5-.74,1.86-1.47,2.38-2.22.19-.28.38-.54.59-.77.22-.12.4-.27.55-.44.44-.5.61-1.18.61-1.77,0-.51-.2-1.13-.54-1.76-.33-.63-.81-1.29-1.35-1.87l-.34-.37-.34.37c-.52.59-1.01,1.26-1.35,1.9-.33.62-.53,1.22-.53,1.72,0,.59.17,1.28.61,1.77.31.36.75.61,1.34.67h0c-.46.67-.75,1.29-2.03,1.93v-9.99c.45-.11.8-.35,1.06-.66.43-.52.6-1.23.6-1.85,0-.52-.2-1.15-.53-1.8-.3-.59-.7-1.2-1.13-1.75v-1.31c.47-.14.83-.46,1.09-.87.41-.64.57-1.52.57-2.29,0-.64-.2-1.44-.51-2.26-.34-.88-.82-1.8-1.33-2.6l-.38-.59-.39.58c-.53.8-1,1.7-1.33,2.56-.32.84-.51,1.65-.51,2.3,0,.76.16,1.64.57,2.29.27.43.65.76,1.15.89v1.22c-.47.57-.89,1.19-1.19,1.79-.33.66-.53,1.31-.53,1.84,0,.62.17,1.33.6,1.85.27.33.64.58,1.12.68v9.98c-1.29-.64-1.58-1.26-2.03-1.92h0c.59-.07,1.03-.33,1.34-.69.44-.5.61-1.18.61-1.77,0-.5-.21-1.11-.53-1.72-.34-.64-.83-1.32-1.35-1.9l-.34-.37-.34.37c-.54.59-1.02,1.25-1.35,1.87-.33.63-.54,1.25-.54,1.76,0,.59.17,1.28.61,1.77.15.17.34.32.55.44.22.23.4.49.59.77.52.75.88,1.46,2.33,2.19-.28.39-.53.8-.73,1.2-.33.66-.53,1.31-.53,1.84,0,.62.17,1.33.6,1.85.27.33.64.58,1.12.68v.82c-.78-.68-1.9-.78-2.92-.87-.5-.05-.97-.09-1.31-.21.42-.11.75-.33,1-.61.44-.5.61-1.18.61-1.77,0-.5-.21-1.11-.53-1.72-.34-.64-.83-1.32-1.35-1.9l-.34-.37-.34.37c-.54.59-1.02,1.25-1.35,1.87-.34.63-.54,1.25-.54,1.76,0,.59.17,1.28.61,1.77.22.25.51.45.86.57.41.96,1.45,1.05,2.6,1.16,1.23.11,2.62.24,3,1.79v7.26l-.05.07c-.25-1-.91-1.48-1.51-1.9h0c-.08-.06-.16-.11-.24-.17.43-.11.77-.33,1.02-.62.44-.5.61-1.18.61-1.77,0-.5-.21-1.11-.53-1.72-.34-.64-.83-1.32-1.35-1.9l-.34-.37-.34.37c-.54.59-1.02,1.25-1.35,1.88-.33.63-.54,1.25-.54,1.76,0,.59.17,1.28.61,1.77.24.27.56.49.96.6.21.4.57.66.95.93.6.43,1.3.93,1.21,2.34-.03.05-.06.11-.1.16-.68-2.56-2.59-2.79-4.23-2.98-.67-.08-1.28-.15-1.65-.44.43-.11.76-.33,1.01-.62.44-.5.61-1.18.61-1.77,0-.5-.21-1.11-.53-1.72-.34-.64-.83-1.32-1.35-1.9l-.34-.37-.34.37c-.54.59-1.02,1.25-1.35,1.88-.33.63-.54,1.25-.54,1.76,0,.59.17,1.28.61,1.77.27.3.62.53,1.08.63.39,1.06,1.46,1.19,2.68,1.33,1.58.19,3.46.42,3.67,3.72-.04.2-.07.39-.07.57,0,.62.17,1.33.6,1.85.27.32.63.57,1.09.67-.04.56-.14,1.06-.27,1.49-.58-.69-1.71-.87-2.71-1.06-.65-.12-1.28-.24-1.62-.52.57-.07.99-.32,1.29-.67.44-.5.61-1.18.61-1.78,0-.5-.21-1.11-.53-1.72-.34-.64-.83-1.32-1.35-1.9l-.33-.37-.34.37c-.54.59-1.02,1.25-1.36,1.88-.33.63-.54,1.25-.54,1.76,0,.59.17,1.28.61,1.78.22.24.49.44.82.56.25,1.1,1.4,1.31,2.57,1.53,1.02.19,2.34.38,2.33,1.37-.15.25-.31.47-.47.69-1.28-1.41-3.4-1.73-5.29-2.01-1.72-.26-3.21-.48-3.27-1.47.53-.08.94-.33,1.23-.66.44-.5.61-1.18.61-1.78,0-.5-.21-1.11-.53-1.72-.34-.64-.83-1.32-1.35-1.9l-.33-.37-.34.37c-.54.59-1.02,1.25-1.35,1.88-.33.63-.54,1.25-.54,1.76,0,.59.17,1.28.61,1.78.27.3.63.54,1.09.63h0c.03,1.81,1.89,2.08,4.05,2.41,1.77.26,3.77.56,4.82,1.81-.08.09-.16.17-.24.26-.35.37-.69.73-.96,1.12-1.07-2.38-3.79-2.6-6.12-2.8-1.69-.14-3.14-.26-3.24-1.21l-.83.09c.41-7.12,1.63-15.6,4.29-25.32h0c1.41-4.94,3.91-16.85,4.24-26.65ZM95.54,131.34c-.99.92-2.09,1.93-2.45,3.22-.3-.64-.8-1.33-1.67-1.88l-.33-.21-.33.21c-.65.41-1.1.91-1.4,1.4.02-.06.04-.13.06-.2.39-1.4-.15-2.08-.7-2.77-.35-.43-.7-.88-.66-1.59.65-1.13,1.34-2.15,2.79-2.32,1.15.02,2.12.84,1.48,1.71,0-2.27-3.73-1.53-3,.93.6,2.02,3.92,3.41,6.02-.25.75-1.32,1.14-3.05,1.06-4.84h0c.2-.2.34-.44.42-.75.11,2.03.16,3.95.15,5.75-.26.48-.83,1.01-1.45,1.59ZM96.97,131.23c-.02,1.48-.09,2.88-.17,4.19h-2.93c.03-1.33,1.22-2.43,2.28-3.41.29-.27.57-.52.82-.78ZM92.42,135.42h-2.65c.17-.58.54-1.29,1.32-1.85.79.57,1.15,1.27,1.32,1.85ZM85.38,132.97c-.09.29-.12.57-.1.84.03.38.17.74.4,1.03.19.25.44.45.75.58h-2.61c.03-1.22.95-2.02,1.79-2.76.4-.35.78-.69,1.08-1.06.25-.28.48-.58.68-.89.17.37.41.67.65.97.4.5.8,1,.53,1.94-.11.38-.28.63-.49.78-.21.15-.47.22-.74.25-.17.01-.32,0-.45-.04-.19-.06-.35-.17-.46-.32-.11-.15-.19-.34-.2-.54-.01-.16,0-.32.06-.49l-.88-.28ZM80.54,132.97l-.88.28c.05.16.07.33.06.49-.02.21-.09.39-.2.54-.11.15-.27.26-.46.32-.13.04-.28.06-.45.04-.27-.02-.53-.09-.74-.25-.21-.15-.38-.4-.49-.78-.27-.95.13-1.44.53-1.94.24-.3.48-.6.65-.97.2.31.42.62.68.89.3.37.68.71,1.08,1.06.84.74,1.76,1.54,1.79,2.76h-2.61c.3-.13.55-.33.75-.58.22-.29.36-.64.4-1.03.02-.27,0-.56-.1-.84ZM77.85,135.42h-.74c-.05-.23-.13-.48-.24-.73.13.18.29.33.45.46.17.12.34.21.52.28ZM72.57,129c.16.45.66.83,1.28.9l.25-.51h0s.03,0,.03,0c-.09-.43.04-.72.26-.87,1.03-.7,2.14.9.64,2.02-2.1,1.57-4.59-1.37-4.62-5.25.73.25,1.68.33,2.69.42,2.31.19,5.04.42,5.62,3.06-.05.2-.09.42-.1.65-.09-.16-.17-.32-.25-.48-.88-1.7-2.32-2.81-3.9-2.48-.81.17-1.6.6-1.89,1.4-.13.36-.14.75,0,1.14ZM80.92,131.97c-.63-.55-1.22-1.07-1.32-1.63-.29-1.53.46-2.32,1.33-3.25.74-.79,1.56-1.66,2.03-3.06.47,1.39,1.29,2.27,2.03,3.06.87.93,1.62,1.72,1.33,3.25-.1.56-.69,1.08-1.32,1.63-.86.75-1.78,1.56-2.04,2.78-.25-1.22-1.18-2.03-2.04-2.78ZM81.69,119.1c.07-.29.2-.61.36-.94.11-.21.23-.43.37-.65h0s0-.02,0-.02c.15-.24.31-.47.49-.7.34.45.65.94.88,1.4.26.53.43,1.02.43,1.39,0,.44-.11.93-.39,1.27-.2.23-.49.39-.92.39s-.72-.16-.92-.39c-.28-.34-.39-.83-.39-1.27,0-.12.01-.24.04-.38h.03s0-.12,0-.12ZM83.81,85.79c.26.53.43,1.02.43,1.39,0,.44-.11.93-.39,1.27-.2.24-.49.39-.92.39s-.72-.16-.92-.39c-.28-.33-.39-.83-.39-1.27,0-.39.16-.89.43-1.43.23-.45.53-.92.87-1.36.34.45.65.94.88,1.4ZM82.04,80.95c-.3-.48-.42-1.18-.42-1.79,0-.54.17-1.24.45-1.98.22-.58.52-1.19.85-1.76.33.58.63,1.2.86,1.81.28.72.45,1.4.45,1.93,0,.62-.12,1.32-.42,1.79-.2.31-.49.52-.89.52s-.69-.21-.89-.52ZM83.81,102.13c.26.53.43,1.02.43,1.39,0,.44-.11.93-.39,1.27-.2.24-.49.39-.92.39s-.72-.16-.92-.39c-.28-.34-.39-.83-.39-1.27,0-.39.16-.89.43-1.43.23-.45.53-.92.87-1.36.34.45.65.94.88,1.4ZM91.82,129.39h0s.25.51.25.51c.62-.07,1.12-.45,1.28-.9.14-.39.13-.78,0-1.14-.29-.81-1.08-1.23-1.89-1.4-1.59-.33-3.02.78-3.9,2.48-.08.15-.16.31-.25.48-.01-.23-.05-.45-.1-.65.58-2.64,3.31-2.87,5.62-3.06,1.02-.08,1.96-.16,2.69-.42-.03,3.88-2.51,6.82-4.62,5.25-1.49-1.12-.39-2.72.64-2.02.22.15.35.44.26.87h.03ZM88.59,135.14c.17-.12.32-.27.45-.46-.11.26-.18.51-.24.73h-.74c.18-.07.36-.16.52-.28ZM93.75,121.13c-.43,0-.73-.15-.93-.37-.27-.31-.38-.76-.38-1.17,0-.34.16-.8.43-1.29.24-.44.55-.9.89-1.33.34.42.65.86.87,1.3.27.5.43.97.43,1.33,0,.4-.11.86-.38,1.17-.2.22-.5.37-.93.37ZM88.43,121.13c-.43,0-.73-.15-.93-.37-.27-.31-.38-.76-.38-1.17,0-.34.16-.8.43-1.29.24-.44.55-.9.89-1.33.34.42.65.86.87,1.3.27.5.43.97.43,1.33,0,.4-.11.86-.38,1.17-.2.22-.5.37-.93.37ZM90.96,113.1c-.43,0-.73-.15-.93-.37-.27-.31-.38-.76-.38-1.17,0-.34.16-.8.43-1.29.24-.44.55-.9.89-1.33.34.42.64.86.87,1.29.27.5.43.97.43,1.33,0,.4-.11.86-.38,1.17-.2.22-.5.37-.93.37ZM84.95,112.73c-.27-.31-.38-.76-.38-1.17,0-.34.17-.8.43-1.29.24-.44.55-.9.89-1.33.34.42.64.86.87,1.29.27.5.43.97.43,1.33,0,.4-.11.86-.38,1.17-.2.22-.5.37-.93.37s-.73-.15-.93-.37ZM88.34,104.94c-.43,0-.73-.15-.93-.37-.27-.31-.38-.76-.38-1.17,0-.34.16-.8.43-1.29.24-.44.55-.9.89-1.33.34.42.64.86.87,1.29.27.5.43.97.43,1.33,0,.4-.11.86-.38,1.17-.2.22-.5.37-.93.37ZM85.81,96.85c-.43,0-.73-.15-.93-.37-.27-.31-.38-.76-.38-1.17,0-.34.16-.8.43-1.29.24-.44.55-.9.89-1.33.34.42.65.86.87,1.29.27.5.43.97.43,1.33,0,.4-.11.86-.38,1.17-.2.22-.5.37-.93.37ZM80.11,96.85c-.43,0-.73-.15-.93-.37-.27-.31-.38-.76-.38-1.17,0-.35.16-.82.43-1.33.23-.43.53-.88.87-1.29.34.43.65.89.89,1.33.26.49.43.95.43,1.29,0,.4-.11.86-.38,1.17-.2.22-.5.37-.93.37ZM77.57,104.94c-.43,0-.73-.15-.93-.37-.27-.31-.38-.76-.38-1.17,0-.35.16-.82.43-1.33.23-.43.53-.88.87-1.29.34.43.65.88.89,1.33.26.49.43.95.43,1.29,0,.4-.11.86-.38,1.17-.2.22-.5.37-.93.37ZM80.03,113.1c-.43,0-.73-.15-.93-.37-.27-.31-.38-.76-.38-1.17,0-.35.16-.82.43-1.33.23-.43.53-.88.87-1.29.34.43.65.88.89,1.33.26.49.43.95.43,1.29,0,.4-.11.86-.38,1.17-.2.22-.5.37-.93.37ZM74.96,113.1c-.43,0-.73-.15-.93-.37-.27-.31-.38-.76-.38-1.17,0-.35.16-.82.43-1.33.23-.43.53-.88.87-1.29.34.43.65.88.89,1.33.26.49.43.95.43,1.29,0,.4-.11.86-.38,1.17-.2.22-.5.37-.93.37ZM77.48,121.13c-.43,0-.73-.15-.93-.37-.27-.31-.38-.76-.38-1.17,0-.35.16-.82.43-1.33.23-.43.53-.88.87-1.3.34.43.65.89.89,1.33.26.49.43.95.43,1.29,0,.4-.11.86-.38,1.17-.2.22-.5.37-.93.37ZM72.16,121.13c-.43,0-.73-.15-.93-.37-.27-.31-.38-.76-.38-1.17,0-.35.16-.82.43-1.33.23-.43.53-.88.87-1.3.34.43.65.89.89,1.33.26.49.43.95.43,1.29,0,.4-.11.86-.38,1.17-.2.22-.5.37-.93.37ZM69.5,124.75h0c-.08,1.79.31,3.53,1.06,4.84,2.1,3.66,5.42,2.27,6.02.25.73-2.46-2.99-3.2-3-.93-.65-.87.32-1.69,1.48-1.71,1.46.17,2.14,1.19,2.8,2.32.04.71-.31,1.15-.66,1.59-.55.69-1.09,1.37-.7,2.77.02.07.04.14.06.2-.31-.49-.75-.98-1.4-1.4l-.33-.21-.33.21c-.86.55-1.37,1.24-1.67,1.88-.36-1.28-1.46-2.3-2.45-3.22-.62-.57-1.19-1.11-1.45-1.59,0-1.8.04-3.72.16-5.75.08.3.23.55.42.75ZM76.14,135.42h-2.65c.17-.58.54-1.29,1.32-1.85.79.57,1.15,1.27,1.32,1.85ZM69.76,132.01c1.06.98,2.25,2.08,2.28,3.41h-2.93c-.08-1.31-.14-2.71-.17-4.19.25.26.53.51.82.78ZM72.42,136.25h24.32c-.03.37-.06.74-.09,1.1h-27.41c-.03-.36-.06-.73-.09-1.1h3.26ZM74.66,141.84c.42-.42.68-1.01.68-1.65s-.26-1.23-.68-1.65c-.14-.14-.29-.25-.45-.35h4.32c-.17.1-.32.22-.45.35-.42.42-.68,1.01-.68,1.65s.26,1.23.68,1.65c.09.09.19.17.29.24h-3.99c.1-.07.2-.16.29-.24ZM74.13,141.32c-.29.29-.69.47-1.13.47s-.84-.18-1.13-.47c-.29-.29-.47-.69-.47-1.13s.18-.84.47-1.13c.29-.29.69-.47,1.13-.47s.84.18,1.13.47c.29.29.47.69.47,1.13s-.18.84-.47,1.13ZM78.13,140.19c0-.44.18-.84.47-1.13.29-.29.69-.47,1.13-.47s.84.18,1.13.47c.29.29.47.69.47,1.13s-.18.84-.47,1.13c-.29.29-.69.47-1.13.47s-.84-.18-1.13-.47c-.29-.29-.47-.69-.47-1.13ZM81.38,141.84c.42-.42.69-1.01.69-1.65s-.26-1.23-.69-1.65c-.14-.14-.29-.25-.45-.35h4.03c-.17.1-.32.22-.45.35-.42.42-.68,1.01-.68,1.65s.26,1.23.68,1.65c.09.09.19.17.29.24h-3.7c.1-.07.2-.16.29-.24ZM84.56,140.19c0-.44.18-.84.47-1.13.29-.29.69-.47,1.13-.47s.84.18,1.13.47c.29.29.47.69.47,1.13s-.18.84-.47,1.13c-.29.29-.69.47-1.13.47s-.84-.18-1.13-.47c-.29-.29-.47-.69-.47-1.13ZM87.81,141.84c.42-.42.69-1.01.69-1.65s-.26-1.23-.69-1.65c-.14-.14-.29-.25-.45-.35h4.32c-.16.1-.32.22-.45.35-.42.42-.69,1.01-.69,1.65s.26,1.23.69,1.65c.09.09.18.17.29.24h-3.99c.1-.07.2-.16.29-.24ZM91.29,140.19c0-.44.18-.84.47-1.13.29-.29.69-.47,1.13-.47s.84.18,1.13.47c.29.29.47.69.47,1.13s-.18.84-.47,1.13c-.29.29-.69.47-1.13.47s-.84-.18-1.13-.47c-.29-.29-.47-.69-.47-1.13ZM94.53,141.84c.42-.42.69-1.01.69-1.65s-.26-1.23-.69-1.65c-.13-.14-.29-.25-.45-.35h2.51c-.14,1.43-.3,2.73-.47,3.9h-1.87c.1-.07.2-.16.29-.24ZM71.8,138.19c-.16.1-.32.22-.45.35-.42.42-.68,1.01-.68,1.65s.26,1.23.68,1.65c.09.09.18.17.29.24h-1.84c-.17-1.17-.33-2.47-.47-3.9h2.48ZM82.93,142.92h13.06c-.06.41-.13.8-.2,1.18h-25.67c-.07-.38-.13-.77-.2-1.18h13ZM95.65,144.93c-.25,1.33-.48,2.39-.65,3.17l-.06.28h-23.95l-.06-.28c-.17-.77-.4-1.83-.65-3.17h25.38ZM70.95,149.21h24.01l2.33,3.75h-28.67l2.33-3.75ZM79.54,153.79h17.82v7.44h-28.81v-7.44h10.99ZM67.14,163.92c.35-.81.66-1.52,1.29-1.83h.13v-.03h28.81v.03h.13c.63.31.94,1.03,1.29,1.83.36.85.77,1.78,1.59,2.57h-34.82c.82-.79,1.23-1.72,1.59-2.57ZM64.71,167.6h17.47c-.67.63-1.11,1.36-1.36,2.16-.15.46-.24.94-.28,1.43-.11-.16-.23-.32-.36-.46-.42-.46-.92-.81-1.47-1.02-.56-.21-1.18-.27-1.81-.12-.58.14-1.18.44-1.76.97l.06.57c.32.18.98.79,1.56,1.61-.47-.55-1.16-1.02-1.98-1.24-.93-.25-2.05-.21-3.24.36l.02.65.04.02c.8.31,1.88.74,1.52,3.24v.02c-.04.5-.04.95,0,1.37.11,1.29.54,2.21,1.15,2.82.28.28.59.49.92.65v2.32h.14v8.3h-10.62v-23.63ZM64.71,192.29h36.49c2.31-.09,3.03,1.28,3.91,2.88.57,1.04,1.17,2.13,2.17,2.98h-48.65c1-.85,1.6-1.94,2.17-2.98.88-1.6,1.6-2.97,3.91-2.87h0ZM73.37,222.14v-2.02h18.79v2.02h-18.79ZM91.92,223.12v10.1h-3.14v-10.1h3.14ZM88.07,222.85v10.4h-4.5v-10.4h4.5ZM82.82,222.85v10.4h-5.18v-10.4h5.18ZM76.93,222.85v10.1h-3.14v-10.1h3.14ZM80.95,214.87s-.03-.1-.05-.16c-.07-.34-.06-.82.05-1.25.1-.38.27-.72.53-.82.02,0,.04-.01.06-.02.3-.05.53-.05.71.02.16.06.3.17.42.34h.57c.12-.17.26-.29.42-.34.18-.06.41-.07.71-.02.02,0,.04.01.06.02.26.1.43.43.53.82.11.43.12.91.05,1.25-.01.06-.03.12-.05.16-.09.23-.01.39.21.47.11.04.25.03.44.02.42-.03,1.24-.1,1.39.3.16,1.27.65,2.17,1.28,2.79.47.47,1.03.78,1.58.96h-13.82c.55-.18,1.11-.49,1.58-.96.63-.62,1.12-1.52,1.28-2.79.14-.4.97-.34,1.39-.3.19.01.33.03.44-.02.22-.09.3-.24.21-.47ZM91.67,218.92c-.19.02-.38.02-.57.02-.75-.03-1.65-.3-2.34-.99-.53-.52-.94-1.3-1.08-2.41v-.05c-.27-.9-1.32-.89-1.96-.85.05-.4.02-.91-.09-1.36-.15-.58-.46-1.1-.95-1.3-.06-.02-.12-.04-.18-.05h-.01c-.43-.08-.77-.06-1.06.04-.18.06-.34.15-.47.28-.14-.12-.29-.21-.47-.28-.29-.1-.64-.12-1.06-.05h-.01c-.06.02-.12.03-.18.06-.5.2-.8.71-.95,1.3-.12.45-.14.96-.09,1.36-.65-.04-1.7-.05-1.95.85v.05c-.15,1.11-.56,1.88-1.09,2.41-.69.68-1.59.95-2.34.99-.18,0-.37,0-.57-.02-.99-.08-1.95-.4-2.67-1.17-.73-.78-1.22-2.02-1.25-3.92,0-.37,0-.77.04-1.21.26-1.81,0-3.49-.49-4.86-.49-1.38-1.22-2.46-1.9-3.05,1.35-.39,2.66.05,3.75.83,1.11.79,1.99,1.93,2.44,2.89.11.23.19.44.25.64.64,2.21.7,3.68.46,4.65-.15.62-.42,1.02-.72,1.26-.29.24-.61.33-.88.35-.23.02-.39,0-.44-.04l-.4.57.05.03c.08.05.27.16.51.27.33.14.77.29,1.25.32,1.2.06,2.56-.62,2.72-3.91.08-1.67-.37-3.38-1.03-4.83-.7-1.55-1.64-2.84-2.42-3.52.36-.15.71-.26,1.03-.32.93-.19,1.72-.04,2.38.36.67.41,1.22,1.09,1.66,1.96.43.86.76,1.89.99,3.03l.7-.08c-.07-1.52.1-3.43.7-5.09.42-1.17,1.07-2.2,2-2.87.93.66,1.57,1.7,2,2.87.6,1.66.76,3.57.7,5.09l.69.08c.23-1.14.55-2.17.99-3.03.44-.87.99-1.55,1.66-1.96.66-.4,1.44-.54,2.38-.36.33.07.67.17,1.03.32-.78.68-1.72,1.97-2.42,3.52-.65,1.46-1.11,3.16-1.03,4.83.16,3.28,1.52,3.96,2.72,3.9.48-.02.93-.17,1.25-.32.23-.1.42-.21.5-.26l.05-.03-.4-.58c-.05.03-.22.06-.45.04-.27-.02-.6-.12-.89-.36-.3-.25-.57-.66-.72-1.3-.22-.96-.16-2.42.47-4.6.06-.19.14-.41.25-.64.46-.96,1.33-2.09,2.44-2.89,1.08-.77,2.39-1.22,3.75-.83-.68.59-1.42,1.67-1.91,3.05-.48,1.37-.74,3.05-.49,4.86.03.44.05.84.04,1.21-.02,1.9-.51,3.14-1.25,3.92-.72.76-1.68,1.09-2.67,1.17ZM92.62,222.85h.24v-3.42c.74-.21,1.43-.58,2-1.19.84-.9,1.41-2.29,1.44-4.39,0-.41,0-.83-.04-1.28v-.02c-.24-1.69,0-3.26.45-4.54.58-1.64,1.48-2.78,2.14-3.04l.02-.64c-.24-.12-.49-.21-.72-.28-1.6-.46-3.11.04-4.35.93-1.21.87-2.17,2.11-2.67,3.16-.12.26-.22.51-.29.75-.67,2.31-.73,3.88-.49,4.95.18.81.55,1.34.96,1.68.13.11.27.2.4.27h-.06c-.87.05-1.86-.52-1.99-3.23-.07-1.55.35-3.15.97-4.51.8-1.78,1.91-3.17,2.63-3.57v-.62c-.63-.31-1.21-.52-1.76-.63-1.12-.23-2.08-.05-2.88.44-.79.48-1.42,1.26-1.92,2.24-.15.31-.3.63-.42.98-.1-1.02-.31-2.07-.67-3.05-.5-1.38-1.29-2.6-2.47-3.35h-.37c-1.18.74-1.97,1.97-2.47,3.35-.35.97-.56,2.03-.67,3.05-.13-.34-.27-.67-.42-.98-.5-.98-1.13-1.76-1.92-2.24-.8-.49-1.76-.67-2.88-.44-.54.11-1.12.32-1.74.63v.62c.71.41,1.82,1.79,2.62,3.57.62,1.37,1.04,2.96.97,4.51-.13,2.71-1.12,3.28-1.98,3.24h-.05c.13-.07.26-.15.38-.26.41-.33.77-.85.96-1.64.26-1.07.21-2.66-.47-5.01-.07-.23-.17-.49-.29-.75-.5-1.05-1.46-2.29-2.67-3.16-1.24-.89-2.76-1.39-4.35-.93-.24.07-.48.16-.73.28l.02.64c.66.26,1.56,1.4,2.14,3.04.45,1.28.69,2.85.45,4.54v.02c-.04.45-.05.87-.04,1.28.03,2.1.59,3.5,1.44,4.39.56.6,1.24.97,1.96,1.18h-.35v3.43h.42v10.4h-15.4v-34.17h50.54v34.17h-15.6v-10.4ZM5.38,259.65l-.45-36.94c.21-10.46.46-20.9,1.2-31.22.73-10.27,1.95-20.38,4.11-30.16,2.1-9.52,5.08-18.74,9.36-27.5,4.18-8.54,9.59-16.65,16.63-24.22,3.26,4.17,6.23,8.42,8.93,12.71,2.94,4.69,5.56,9.44,7.88,14.22,2.33,4.81,4.39,9.73,6.17,14.65,1.85,5.11,3.4,10.23,4.66,15.25-.07.04-.14.08-.21.12v24.66h0v.14c-2.14.24-2.86,1.63-3.77,3.29-.74,1.34-1.55,2.77-3.24,3.48v35.09h-5.65c.18-.02.35-.04.53-.06h.02c1.59-.28,2.68-1.1,3.36-2.24.75-1.27.98-2.93.83-4.72h0c-.05-.58-.25-1.17-.56-1.76-.4-.72-1.52-2.18-2.53-3.15-.24-.23-.49-.46-.75-.68-.03-.07-3.57-2.82-5.41-4.04-.95-.68-1.73-1.34-2.35-1.95-.53-.53-.96-1.02-1.3-1.46,1.01-.94.84-2.73.83-2.73,0-.04-.1-.51-.34-.73.54.2.99.39,1.28.54,0,.09.04.32.05.35h0c.03.08.47,1.19,1.8,1.6.08.02.17.02.24-.01.19.25.37.53.53.85.22.45.38.96.46,1.55.11,1.02.31,1.79.55,2.37.41,1.02.94,1.47,1.11,1.57h.01c.19.11.36.07.5,0,.14.14.33.27.6.27h0c.19,0,.37-.05.52-.18.12.1.27.16.45.16.04,0,.08,0,.13-.01.14-.02.24-.05.33-.09.07.25.12.51.18.75.04.17.07.33.11.48.03.13.14.23.26.26.6.15.93-.12,1.07-.67.17-.69-.09-1.99-.46-3.33.05,0,.11,0,.16,0,.24,0,.48-.05.68-.12.22-.08.4-.2.51-.32.08-.1.13-.21.13-.33,0-.05-.01-.11-.03-.15-.07-.18-.18-.27-.33-.39-.15-.12-.36-.29-.6-.72-.07-.17-.72-1.75-.89-2.93,0-.26-.05-.52-.14-.76-.09-.26-.23-.51-.4-.73v-.02c-.3-.33-.68-.76-1.16-1.18-.37-.32-.79-.64-1.27-.9,0-.04,0-.07-.01-.11l-.02-.05s-.56-1.23-2.75-1.13c-.07,0-.13.02-.18.06-.02,0-.05.03-.09.05-.6-.27-1.32-.63-2.61-1.28h-.01c-.11-.06-.21-.11-.32-.16.82-1.69,1.4-3.14,1.81-4.38.6,1.43,1.28,2.9,1.92,4.04.53.93,1.46,1.86,1.59,1.97.36.28,1.37.39,1.74.29,2.9-.54,3.76-5.05,4.32-7.96.15-.81.28-1.49.42-1.89l.02-.05c.15-.59.42-1.12.66-1.6l.04-.08c.06,0,.11,0,.17,0,.09,0,.17-.04.22-.09.14-.11,1.03-.9,1.4-2.11.02-.06.02-.12,0-.18.05-.03.1-.07.15-.11.74-.55,1.47-.96,2.11-1.32,1-.56,1.81-1.01,2.24-1.75.84-1.44.3-3.99-.06-4.53.22-.44.1-.93.1-.93-.35-1.41-1.38.08-1.38.08-.8,1.3-1.52,2.06-2.08,2.49.11-.25.19-.5.24-.75.2-1.02-.35-1.66-.35-1.66-1.12-1-1.43.47-1.39.7.06,1.02-1.07,1.87-1.23,1.98-1.84.94-2.08,3.26-2.11,3.66-.05,0-.11,0-.16.03-.02,0-.04.02-.06.04,0,0-.94.63-1.34,2.15-.02.08-.01.15.01.22.01.03.04.12.11.24-.5.83-1.03,1.77-1.52,2.63-.23-.44-.59-.74-.71-.84l-.15-.4c-.6-1.58-1.4-3.66-2.8-5.97.21-.6.26-1.17.27-1.31.01-.1-.02-.22-.1-.3-.14-.14-.36-.14-.5,0-.05.05-.16.08-.26.11h0c-.34.12-.85-.14-.85-.14,2-.58,4.06-2.39,3.86-7.44-.18-4.37-2.58-9.39-6.08-14.16-3.97-5.42-9.36-10.52-14.49-13.96-.16-.11-.38-.06-.49.1-.06.09-.07.2-.04.3.05.17,1.69,5.85-1.29,14.07-.29.81-.56,1.65-.8,2.52-1.09,3.89-1.61,8.18-1.42,11.66.17,3.13.92,5.62,2.35,6.66-.02,0-.05,0-.07,0-.2,0-.41,0-.49-.08-.14-.14-.36-.14-.5,0-.09.09-.12.2-.1.31.02.16.16,1.19.64,2.06-.05.28-.09.57-.1.91-.01.35.01.73.11,1.13l.03.2c.26,1.64.55,3.52,1.72,6-.1.06-.17.16-.18.28,0,.05,0,.1.02.14.06.21.6,2.14,1.62,2.9.16.49.78,2.59-.05,4.33-.19.08-.57.26-1.08.58-.66.05-4.09.47-5.85,3.99-.42.84-.51,1.56-.38,2.16.07.31.2.59.37.83-.11.22-.22.44-.31.66-.05.11-.1.22-.14.34-.01.02-.02.04-.02.06h0c-.07.19-.13.37-.19.56h0c-.13.38-.27.76-.42,1.12-.18.43-.38.84-.57,1.23h0s-.2.44-.2.44c-.03-.08-.06-.15-.08-.2v-.02s-.02-.03-.05-.09c-.14-.4-.24-.81-.32-1.23-.13-.69-.16-1.4-.08-2.11,0-.02,0-.04,0-.06,0-.29.02-.54.05-.78.02-.2.04-.4.04-.58.23-1.42.7-1.79.72-1.81.15-.13.16-.35.03-.5-.15-.16-.29-.31-.44-.45.17-.61.38-1.7.36-2.79-.02-.8-.15-1.62-.52-2.26-.28-.5-.67-.78-1.08-.94-.39-.15-.78-.17-1.09-.17h-.05c-.36.05-.69.18-.99.35-.31.18-.58.42-.8.68l-.02.03c-1.33,1.74-3.6,2.06-3.82,2.09h0s-1.3.11-1.76.92l-.02.04c-.17.4-.61.51-.72.53-.58,0-1.21.12-1.66.39-.2.12-.37.27-.5.46-.13.2-.2.42-.2.68s.07.52.22.83c-.02.06-.03.13-.04.19-.04.28,0,.58.12.82.11.23.27.42.47.55-.12.76.54,1.26.92,1.48-.03,1.12,1.81,1.52,1.82,1.52.04,0,.07.01.11,0,.19-.02.34-.19.31-.39-.23-2.2,2.35-2.86,2.73-2.95.11.34.17.66.19.72-.05.16-.1.31-.15.47-.12.37-.24.76-.35,1.14-1.81.46-2.35,1.9-2.35,1.91-.07.18.02.39.2.46.05.02.1.03.15.02.13,0,1.12.07,1.03,2.17,0,0,0,.02,0,.03-.06.41-.12.83-.18,1.25-1.44-.84-2.75-.73-2.85-.72-3.43.25-4.4-1.44-4.47-1.57-.07-.13-.21-.21-.36-.19-.19.03-.33.2-.3.4.56,3.99,1.62,4.64,2.49,5.18.51.32.95.59,1.12,1.86h0c.05.43.07.85.1,1.28.17,2.81.35,5.63,5.8,7.44h-6.41l-3.27,4.15.6.32c.5.27,1.38.74,1.02,1.53-1.48,3.1-2.16,6.26-2.02,9.61.14,3.33,1.08,6.84,2.84,10.64l.07.14-2.8.02ZM14.18,230.72c.65,1.28,1.65,1.73,2.95,2.08h0c3.21.78,7.42-1.81,7.7-1.99.9-.58,2.13-1.49,3.49-2.71.94-.84,1.96-1.83,2.98-2.96.16.4-.07,1.25-.32,2.21-.16.6-.33,1.24-.43,1.86-.45.44-3.49,3.28-7.99,4.04h-4.37c-.32-.05-.65-.12-.98-.2-6.62-1.63-6.79-4.47-6.96-7.29-.03-.44-.05-.88-.1-1.32v-.03c-.22-1.59-.79-1.94-1.45-2.36-.66-.41-1.44-.9-1.97-3.53.76.58,2.09,1.18,4.31,1.02h.02s1.29-.15,2.67.78c-.04.29-.07.59-.1.88-.11,1-.18,2.01-.18,2.99-.14,3.35.13,5.31.75,6.52ZM14.8,210.48c.08.05.15.14.21.24-.69.18-3.06.96-3.17,3.17-.4-.14-.98-.41-.82-1.05.13-.71.6-1.12.6-1.13.13-.08.34-.25.26-.38-.08-.13-1.09.36-1.36,1.16-.75-.09-.38-.87-.38-.87.04-.03.69-1.17,1.4-1.09.15.02-.05-.3-.2-.34-.27-.07-.61.04-.91.26-.24.17-.46.41-.62.69,0,0-.02,0-.02-.01-.1-.05-.18-.14-.23-.26-.06-.13-.09-.28-.06-.42,0-.06.03-.11.06-.17h0c.11-.25.55-.51.78-.61.31-.13.62-.17.78-.13.15.04.3-.05.34-.2.04-.15-.86-.24-1.28-.05-.26.11-.57.15-.78.38-.05-.13-.07-.24-.07-.34,0-.11.03-.21.09-.29.06-.09.15-.17.27-.24.34-.2.84-.29,1.32-.29.03,0,.06,0,.09-.01.18-.03.92-.21,1.25-.92.29-.48,1.2-.56,1.2-.56h.03c.27-.04,2.81-.41,4.3-2.36h0c.16-.21.37-.39.61-.53.21-.12.45-.21.71-.25.24,0,.54.02.82.13.27.1.52.29.71.62.3.54.42,1.23.43,1.93.02.85-.12,1.7-.25,2.29-3.11-2.21-5.94.89-6.15,1.12-.02.02-.03.03-.04.05-.11.16-.06.38.1.49ZM21.19,210.01c-.19.26-.44.72-.61,1.52-.86-.38-2.82-1.04-4.53-.05-.11-.39-.3-.92-.57-1.28.74-.72,3.2-2.7,5.71-.18ZM20.42,215.31c-.7-.71-1.77-1.43-3.33-1.66h-.01c-.49-.07-.93-.08-1.33-.05.08-.27.17-.54.25-.8.06-.2.13-.39.18-.57,1.62-1.13,3.67-.28,4.29.03,0,.11-.02.23-.03.34-.02.26-.05.54-.05.83-.07.63-.06,1.27.02,1.89ZM16.98,214.34h0c2.6.38,3.64,2.29,3.86,2.75.1.28.2.56.32.83.02.05.03.09.04.13-.1.22-.2.45-.31.68-3.01-1.83-5.21-1.3-6.19-.88-.04-1.58-.71-2.14-1.22-2.34.38-.55,1.36-1.47,3.49-1.17ZM29.82,152.8c4.84,3.38,9.84,8.19,13.58,13.29,3.42,4.67,5.78,9.56,5.95,13.77.27,6.72-3.84,7.09-5.67,6.93-.36-.07-1.07-.21-1.84-.41-.86-.46-.77-1.59-.72-1.92,1.55-.09,2.37-.74,2.76-1.05l.12-.09s.04-.03.05-.05c.12-.04.24-.1.35-.17.22-.15.4-.36.49-.65.09-.28.1-.64-.04-1.06,0-.01,0-.02-.01-.03.05-.02.2-.16.24-.25.05-.1.15-.45-.07-.64.12-.13.17-.26.17-.36,0-.11-.01-.22-.16-.31-.05-.04-.07-.1-.13-.12,0-.03,0-.05-.01-.08-.08-.21.2-.35.24-.38.21-.19.41-.44.34-.85-.06-.34-.34-.79-1.06-1.4h0c-.39-.36-.65-.7-.86-1.13-.21-.44-.37-.96-.55-1.64v-.02c-.05-.13-.09-.26-.15-.38.1-.05.18-.12.22-.22v-.03c.27-.69.03-1.15-.14-1.36.01-.41-.06-1.43-.99-2.11-.45-.33-.73-.66-.85-1.01-.11-.33-.07-.68.12-1.05.09-.17.02-.39-.16-.47-.09-.05-.19-.05-.28-.02,0,0-.71.27-1.38.93-.03-.22-.09-.44-.18-.66-.08-.21-.18-.41-.3-.62.01-.05.02-.1.01-.16,0-.02,0-.04,0-.06l-.43-.95c-.17-.11-.57-.05-.57-.05l-.05-.05c-1.15-.9-.98-2.66-.98-2.67,0-.06,0-.13-.04-.19-.09-.17-.3-.24-.48-.15-.24.13-.45.28-.63.46-.29-.77-.92-2.07-2.26-3.33.18-.28.5-.93.33-1.55v-.04c-.35-.78-1.48-1.29-1.49-1.29h-.01c-.18-.08-.39,0-.46.18,0,0-.51,1.13-.29,1.9v.04c.25.55.82.83,1.17.95-.1.48-.39,2.07-.17,3.78-.4-.15-.67-.2-.67-.2-.12-.03-.25,0-.33.11-.13.14-.12.37.02.5.91.84.58,2.45.55,2.62l-.03.12c-.16.02-.29.11-.39.24-.1.13-.15.31-.15.48,0,.02,0,.04,0,.06l.09.56s.02.07.03.1c.04.07.07.13.11.19-.06.69.02,1.19.13,1.53-.45-.09-.98-.13-1.61-.1-.19,0-.34.18-.33.37,0,.07.03.14.07.19,0,0,.45.6.13,1.64h0c-.1.36-.15.72-.15,1.08s.05.71.15,1.07l.02.05c.07.19.16.37.27.56-.58.04-1.33.24-2.25.75-.17.1-.23.31-.13.48.07.12.2.19.33.18,0,0,1.03-.08,1.84.89l.02.02h0c.1.1.17.26.23.4.02.05.05.1.07.16.05.1.11.21.19.33-.06,0-.12.02-.18.06-.16.11-.2.33-.08.49l.1.14c.14.2.32.46.54.73-.44-.18-.86-.32-1.19-.43l-.15-.05s-.08-.02-.12-.02c-.08,0-.16.02-.22.06-.08.05-.14.12-.17.2l-.02.05c-.02.08-.02.16.01.24.03.08.08.16.15.24l.02.02c1.11.96.63,1.79.59,1.86-1.04,1.46-.41,2.92-.4,2.93h0c.29.71.74,1.07,1.18,1.24-.14.04-.25.07-.37.1-.5.13-1.07.28-1.63.5-.03-.01-.07-.02-.11-.04-1.56-.57-2.37-3.08-2.55-6.38-.18-3.4.33-7.61,1.4-11.43.24-.84.5-1.67.79-2.47,2.4-6.61,1.87-11.65,1.51-13.62ZM58.3,185.06c0-.06-.05-.3.08-.21.03.03.06.06.09.09.22.26.27.65.19,1.07-.08.45-.31.91-.64,1.28l-.02.02c-.08.09-.17.17-.26.25-.15.12-.17.34-.05.5.09.1.22.15.34.12.26-.04,1.88-.38,3.75-3.4l.02-.05c.08-.15.32-.61.3-.52l.02.16c-.03.25.2,1.5-1.66,2.94-.42.32-.84.75-1.43,1.19-.09.07-.11.2-.04.3.07.09.2.11.3.04.6-.45,1.08-.85,1.47-1.22.33-.32,1.42-1.57,1.65-1.88.26.6-1.24,2.57-2.8,3.59-.1.06-.12.19-.06.29.06.1.19.13.29.06,1.29-.84,2.41-2.51,2.69-3.05.05.14-.19,1.02-.38,1.31-.18.41-.76,1.46-2.25,2.31-.1.06-.14.19-.08.29.06.1.19.14.29.08,1.06-.6,2.1-2.02,2.46-2.57,0,.49-.33,1.26-.53,1.49,0,0-.63,1.09-2.04,1.55-.73.24-1.47.61-2.25,1.19h0c-.35.28-.8.39-1.24.35-.43-.04-.85-.23-1.15-.58-.16-.2-.27-.39-.34-.58-.06-.17-.08-.34-.04-.51,0-.03,0-.05,0-.08.01-.24.18-2.32,1.75-3.11l.05-.03c.06-.05,1.65-1.16,1.54-2.63v-.05ZM57.12,193.46c-.3.6-.7,1-.87,1.16-1.64.02-2.39-.79-2.7-1.27-.01-.03-.03-.06-.05-.08-.04-.07-.07-.12-.09-.17.2-.66.5-1.1.72-1.35.87,1.57,2.19,1.77,2.99,1.72ZM55.46,195.27c-.23.46-.48.98-.63,1.55-.15.45-.35,1.14-.45,1.99-.91,8.2-4.32,7.69-4.98,7.23-.34-.11-.83-.79-1.37-1.74-.6-1.07-1.25-2.46-1.82-3.82,1.37-.12,2.38-.45,3.13-.84-.1.2-.2.4-.28.59-.2.44-.27,2.02-.1,1.92.2-.12.3-.32.34-.51.09-.36.22-.73.4-1.13.18-.4.4-.83.68-1.28v-.02s.17-.29.38-.67c.4-.46.55-.85.58-.94.05-.11.09-.21.11-.31.53-.96,1.2-2.12,1.81-3.17.41.47,1.1.99,2.2,1.15ZM50.78,197.05c-.24.44-.46.83-.63,1.13-.59.64-1.8,1.46-4.22,1.62l-.1-.25c.13-.48.24-.92.32-1.33.85,0,2.92-.2,4.28-2.15.2.22.43.57.35.98ZM46.27,197.51c.2-1.25.18-2.1.16-2.63,0-.08,0-.15,0-.27.08-.87.29-1.12.91-1.52.16-.11-.27-.28-.45-.21,0,0-1.05.35-1.16,1.7v.03s0,.3,0,.3c.01.54.04,1.41-.19,2.71-.04.05-.07.1-.09.17l-.33,1.56c-.04.07-.06.15-.05.23v.02c-.4,1.37-1.03,3.05-2.03,5.09-.32-.15-.62-.28-.89-.4-.04-.97.18-2.18.36-3.16.12-.67.23-1.24.23-1.61,0-.01,0-.02,0-.04.59-1.87,1.16-4.27.73-5.52-.05-.17-.11-.33-.19-.49.09.02.18.05.28.07.02,0,.04,0,.06.01,2.32.29,3.05-1.18,3.14-1.4.02-.05.04-.1.04-.16,0-.19-.16-.34-.35-.35-1.04-.04-1.61-.89-1.66-.98.09,0,.18,0,.26,0,.47-.01.94-.09,1.36-.3.37-.15.65-.41.85-.72,1.22,2.1,1.95,4,2.51,5.47l.16.41c-1.11,1.72-2.86,1.97-3.66,1.99ZM52.62,219.7s-.88-3.31-1.1-3.97c-.2-.57-.37-1.08-.41-1.23-.03-.11-.14-.18-.26-.15-.11.03-.18.14-.15.26.04.16.22.68.42,1.26.21.63.37,1.06.49,1.46.22.78-.14.87-.14.87-.22.05-.37-.56-.54-1.23-.16-.62-.37-1.4-.66-2.12-.04-.11-.17-.16-.28-.12-.11.04-.16.17-.12.27.28.69.47,1.46.64,2.07.39,1.39-.02,1.3-.02,1.3-.2.03-.55-1.13-.55-1.13-.13-.34-.21-.53-.7-2.01-.04-.11-.16-.17-.27-.13-.11.04-.17.16-.13.27.5,1.5.89,2.76.89,2.76-.09-.04-.52-.57-.86-1.42-.21-.52-.4-1.23-.5-2.18h0c-.09-.68-.28-1.28-.53-1.78-.26-.54-.59-.99-.92-1.35.1-.85.51-2.61,2.12-3.31.55.26,1.03.6,1.44.96.44.39.8.79,1.07,1.11.12.16.22.34.28.53.06.18.1.36.1.54v.05c.2,1.34.95,3.14.96,3.15l.02.04c.3.54.56.76.75.92,0,0-.46.37-.88,0-.96-.84-1.59-3.51-1.62-3.75-.02-.19-.11.31-.13.5-.08.6,2.79,6.98,1.58,7.59ZM46.23,211.32v.02c-.61-.33-.86-.83-.92-.97-.23-1.66,1.26-3.41,1.73-3.37.92-.02,1.43.21,1.7.42-1.91.85-2.39,2.91-2.51,3.89ZM44.6,209.47c-.92-.41-2.54-.96-4.18-1.5,0,0-2.43-.82-3.13-1.08h-.01c-2.64-.88-3.97-3.53-3.97-3.54,0-.02-.02-.03-.03-.05-.37-.51-.72-1-1.04-1.46-.2-.29-.39-.58-.57-.87.97-.08,2.52-.39,3.78-1.52.24.64.65,1.35,1.1,2,.61.89,1.32,1.69,1.8,2.06h.01c.45.33.89.47,1.55.69.8.27,1.93.64,3.78,1.57h0c1.07.54,1.76.88,2.3,1.14-.56.51-1.26,1.37-1.41,2.56ZM46.83,223.2c-.85-.39-1.72-.76-2.6-1.08.79-.12,1.66-.41,2.37-1.09.14-.13.19-.59.02-.5-.28.15-.71.5-.88.6-1.67.94-3.97.42-4.31.03l2.22-1.29c.07-.04.13-.1.16-.18.07-.18-.01-.39-.19-.46,0,0-.32-.13-.72-.42.48-.28,1.46-.95,2.43-2.2.23.18.47.36.73.55h0c1.78,1.19,3.55,2.45,5.03,3.72-1.18,2.13-3.61,2.31-4.28,2.32ZM51.64,221.36c.17.15.33.3.49.46.97.92,1.75,1.83,2.26,2.71-.63,1.26-2.29,1.63-2.81,1.71-.95-.91-2.2-1.73-3.59-2.46,1.13-.22,2.7-.82,3.65-2.42ZM35.17,211.48c.43.25.86.48,1.23.67.47.51.77,1.2.95,1.94-1.06-.1-2.01-.31-2.84-.6-.83-.29-1.54-.66-2.14-1.07.53-.45,1.09-1,1.66-1.67.36.26.75.51,1.13.74ZM34.52,210.15c.61-.8,1.24-1.75,1.85-2.87.22.1.44.19.68.27.67.25,1.48.53,2.32.81.21,1.21.54,2.14.9,2.86l-.1-.1c-.48-.49-.99-1.01-1.84-.9h0c-1.04.15-1.61.77-1.87,1.13-.6-.3-1.29-.67-1.94-1.19ZM34.29,214.15c.85.3,1.82.52,2.91.63-.68,1.84-1.71,3.24-3.18,4.1-.34-.02-.73,0-1.17.07h0c-.23.03-.43.09-.62.16-.2.08-.37.18-.52.29-.18,0-.37-.02-.55-.05-.22-.03-.45-.08-.68-.12h0c-2.08-.55-2.85-1.7-3.61-2.83-.71-1.06-1.41-2.1-3.04-2.7h0c.06-.14.12-.27.18-.39.23.2.5.36.78.5,1.21.61,2.77.73,3.25.64.45-.05,1.66-.2,3.22-1.19.18-.11.37-.24.55-.38.68.49,1.5.94,2.48,1.28ZM36.45,217.23c-.11.2-1.12,1.81-1.22,1.97-.03-.01-.21-.1-.24-.12-.04-.02-.09-.03-.13-.05.2-.15,1.43-1.65,1.6-1.81ZM36.62,217.78c.3-.6.64-1.31.98-2.14.11,1.39-.04,2.57-.04,2.58v.02c-.06.72.11,1.28.38,1.73-.5-.13-1.15-.23-1.98-.2-.09-.1-.19-.19-.29-.27.26-.44.58-1,.94-1.71ZM36.32,220.47c1.55.02,2.23.47,2.41.61.62,1.65.08,3.93-.23,4.97-.76-.69-1.53-.81-2.18-.7-.03,0-.07,0-.09.02-.11.02-.21.05-.31.08.91-1.91.6-4.06.41-4.97ZM38.27,218.3c.02-.2.51-4.43-1.25-6.52.16-.25.58-.75,1.41-.87.5-.06.89.33,1.25.7l.13.13c.32.37.61.87.77,1.47.13.5.17,1.09.06,1.74v.04c-.36,2.61,1.23,4.01,2.13,4.58l-2.22,1.29c-.5-.11-2.41-.67-2.28-2.56ZM39.55,221.34c1.14.32,2.41.71,3.72,1.17-1.07.43-2.8,1.31-3.87,2.88.26-1.11.48-2.69.15-4.05ZM44.29,222.91l2.19.97c-3.6,1.33-4.18,4.04-4.27,5.1-1.58-.26-2.46.22-2.94.69-.91-4.83,4.17-6.51,5.01-6.76ZM42.44,218.43c-.67-.65-1.33-1.72-1.11-3.35h0c.13-.76.09-1.45-.07-2.05-.06-.23-.14-.45-.23-.65.42.5.8.78,1.02.91.01.03.02.05.04.08.38.52.88,1.12,1.54,1.76.37.36.79.74,1.27,1.13-1.09,1.42-2.17,2.02-2.45,2.17ZM40.14,208.61l.07.02c.77.26,1.54.52,2.23.76.54.54.52,1.17.52,1.17.02.28.05,1.47-.62,2.08-.45-.28-1.63-1.26-2.2-4.03ZM31.45,201.92c.07.1.14.21.21.31.32.48.67.96,1.03,1.46.06.12.39.72.97,1.42-.17.42-.65,1.55-1.4,2.73-.21-.3-.41-.61-.59-.93-.24-.43-.44-.9-.61-1.43.58-1.22.55-2.58.39-3.57ZM35.07,192.77c-.35.31-.64.55-.94.73-.29.17-.6.3-1.02.38-1.52.27-2.39-.27-2.82-.69h0c.2-.06.4-.14.56-.24h.02c.63-.49.9-1.01,1.08-1.36.04-.09.08-.16.12-.22h0c.35-.57.48-.74.74-1.01.03.04.06.07.09.11h0c.49.55,1.04,1.02,1.63,1.4.2.13.49.3.8.47-.06.15-.14.3-.28.44ZM35.31,193.49c-.12.26-.21.54-.29.84-.09.36-.14.73-.13,1.1-.07-.25-.12-.49-.17-.71-.03-.14-.12-.58-.12-.68,0,0,.42-.31.71-.55ZM34.93,191.27c-.52-.38-1.04-.77-1.49-1.27-.06-.08-.41-.46-.64-.9-.63-1.05-.97-2.17-1.13-2.76.4-.01.8-.08,1.08-.14.26.8.65,1.58.97,2.21l.15.3s.02.04.03.05c.31.47.68.91,1.1,1.28.38.34.81.61,1.29.8.92.39,1.89.49,2.74.37.92-.13,1.72-.53,2.21-1.12h.01c.76-1.05.86-2.26.84-2.92.14.03.28.06.41.09.04.03.09.06.14.07,0,0,.31.08.8.14-.18,1.01-.43,1.84-.76,2.51-.32.64-1.33,1.56-1.93,2.02-.09.07-2.78,1.49-5.83-.73ZM30.54,180.34c.82.3,1.76.75,2.16,1.37h0c.19.3.3.56.36.79.08.32.05.58-.04.77-.08.18-.2.3-.31.37h-.01s-.06.04-.07.04c-.03,0-.05.02-.08.03,0,0-.71.38-1.02-.35-.04-.1-.06-.17-.06-.17h0s-.02-.05-.03-.08c0-.37.46-.41.46-.41.19-.02.33-.19.32-.38-.02-.19-.19-.34-.38-.32,0,0-1.45.13-1.05,1.47.01.05.04.09.07.13.05.13.1.25.17.35.29.54.9,1.27,2.06,1.44-1.09.47-2.35.44-2.84-.75,0,0-.48-1.12.33-2.26l.02-.02c.07-.11.56-.98-.07-2.01ZM30.85,170.91c2.03.04,2.65,1,2.84,1.48.07.49.33.86.57,1.11-.65.25-1.23.5-1.73.72-.02-.07-.06-.14-.14-.18-.14-.08-.31-.03-.38.11,0,0-.1.17-.15.39-.32.15-.58.29-.76.38l-.03-.05c-.1-.18-.19-.34-.24-.48h0c-.08-.3-.13-.6-.13-.89s.04-.58.13-.88c.22-.72.14-1.31.02-1.7ZM32.96,164.98c.62.33,1.29.86,1.57,1.69l-1.71.35c.07-.4.16-1.34-.17-2.19,0,0,.18.08.31.15ZM32.93,159.58c-.23-.08-.58-.25-.72-.54-.08-.31.03-.75.13-1.05.27.16.64.43.78.73.08.3-.07.65-.19.87ZM33.31,160.88c1.32,1.38,1.77,2.71,1.9,3.17-.27.47-.43.99-.51,1.45-.39-.51-.91-.88-1.39-1.14-.25-1.38-.12-2.73,0-3.49ZM37.68,166.74c.12.12.22.25.32.37l-5.47,1.2c.03-.17.07-.35.11-.54l5.04-1.02ZM35.29,166.51c0-.46.09-1.33.49-2.05.12-.19.31-.45.4-.54.05.62.25,1.53.88,2.23l-1.77.36ZM38.33,167.76s.05,0,.08,0c.05.1.1.21.14.31.2.52.22,1.02.06,1.45,0,.01,0,.02-.01.04-.11.23-.21.48-.27.76-.24-.18-.45-.26-.47-.27-.98-.41-2.02-1.18-2.2-1.32-.06-.06-.15-.09-.24-.09-.2,0-.35.16-.35.35,0,.32-.1.49-.38.92-.17.27-.4.62-.69,1.14-.06.1-.11.2-.15.29-.23-.26-.55-.52-.98-.72-.38-.2-.49-.41-.42-1.57l5.89-1.29ZM38.92,171.14h0c.05-1.33.81-2.13,1.4-2.55-.02.24.01.48.09.72.16.49.53.94,1.1,1.36.54.39.68.94.7,1.29-1.08-.06-2.18.03-3.25.21.07-.41.04-.75-.05-1.02ZM42.39,172.67c.07.1.15.3.03.62-.06-.01-.53-.02-.82,0-1.56.09-4.46.25-7.31,2.16-.09-.03-.18-.06-.28-.09-.23-.06-.49-.11-.78-.16h-.04c-.35-.03-.55-.11-.66-.22,2.09-.98,6.16-2.59,9.85-2.32ZM44.81,180.39c-.25-.08-.63-.07-.99-.04-.14.01-.48.06-.62.07l.2-.12c.2-.14.43-.36.68-.4.09-.02.37.13.42.17.03.03.34-.2.35-.2.05,0,.08.08.13.2.03.07-.04.23-.16.33ZM44.85,180.87c-.06.21-.27.22-.36.23-.33.02-.67-.04-.98-.16-.16-.06-.53-.27-.67-.36.26,0,.76-.05,1-.07.36-.03,1.11-.07.99.35ZM44.79,178.86h0c-.16.11-.4.11-.53.1-.15,0-.31-.09-.39-.15-.06-.04-.16-.05-.2,0-.27.31-.57.08-.58.05h0c-.12-.14,0-.51.32-.61-.03-.09-.13-.14-.22-.11-.29.1-.44.33-.47.55-.01.11-.04.45.3.57,0,0,.42.17.77-.1.11-.09.29.1.46.11.05,0,.1,0,.16,0-.03.12.03.49.03.49,0,0-.36-.14-.51-.09-.17.03-.44.22-.66.38-.61.43-1.16.26-1.51.06-.09-.03-.01.28.19.36.24.1.34.13.51.15,0,.01.01.02.02.03.23.26.56.48.93.62.31.12.65.19.98.18,0,.03,0,.05.01.08.1.32.1.57.04.76-.05.17-.16.3-.3.39-.14.09-.31.14-.48.16-.2.01-.48.08-.86-.05-.13-.04-.05.27.07.34.1.07.22.12.35.16-.44.29-1.16.64-2.28.67-.06,0-.49,0-.6,0-.68-.05-1.41-.3-2.1-.72-.67-.4-1.87-1.73-1.87-1.73-.05-.06-.79-1-.96-2.36,0-.02-.17-.71-.09-1.42,0-.03.02-.43.09-.74.14-.49.41-1.17.82-1.84,2.16-.99,4.2-1.11,5.41-1.17.27-.02.51-.03.71-.05.06.12.11.26.15.4.19.71.36,1.26.58,1.73.23.48.53.88.97,1.27l.02.02c.62.52.85.86.89,1.1.03.18-.08.3-.18.4ZM34.82,179.12c.02.1.03.2.06.3.13.78.42,1.42.66,1.85,0,0-1.01-.96-1.13-1.07h0c-.15-.15-.27-.3-.38-.45-.31-.44-.48-.91-.5-1.34-.02-.4.09-.76.33-1.01.04-.04.08-.08.13-.11.51-.3.72.27.77.44-.06.62.02,1.14.07,1.39ZM34.95,175.86c.17-.11.34-.21.51-.3-.1.21-.19.41-.26.6-.07-.11-.15-.21-.25-.3ZM34.46,181.4c.09-.03.17-.07.25-.12l.06.06s.05.98.04,1.36c-.47.06-.83-.14-1.06-.34v-.04c-.08-.26-.2-.55-.39-.87.16.06.55.05.55.05.18,0,.37-.03.54-.1ZM34.8,183.06c-.03.35-.08.65-.16.9-.05.16-.11.29-.18.42-.57-.08-.82-.37-.93-.59.05-.08.1-.16.14-.26.09-.2.14-.44.14-.71.26.15.59.26.99.23ZM34.12,184.67c-.69.1-1.21-.01-1.59-.21.15-.04.27-.09.32-.12.07-.02.15-.06.23-.11h.02c.06-.05.13-.1.19-.16.14.23.4.47.83.59ZM33.91,185.85c.66-.27.89-.6.97-.72l.02-.05s.02-.07.03-.11c.16-.23.29-.49.39-.8.17-.55.24-1.25.2-2.2.21.12.39.15.6.06.53.67,1.18,1.23,1.86,1.64.76.45,1.56.73,2.31.79h.12c-.06.53-.07,1.82.98,2.47.04.44.06,1.69-.69,2.72-.37.45-1.01.76-1.76.87-.74.1-1.58.01-2.38-.32h0c-.4-.16-.76-.4-1.09-.68-.37-.32-.69-.71-.97-1.12l-.15-.3c-.3-.6-.67-1.33-.92-2.06.17-.05.33-.1.47-.18ZM34.4,172.33c-.04-.26,0-.57.2-.94.29-.51.5-.85.67-1.1.19-.29.31-.49.39-.68.47.32,1.22.8,1.93,1.1h.02s.96.33.59,1.6c-1.13.24-2.22.56-3.19.91-.1-.07-.42-.31-.56-.71,0-.04-.02-.1-.04-.18ZM31.72,176.11c.08.38.27.74.66,1,.13.09.31.05.39-.08.09-.13.05-.3-.08-.39-.38-.26-.72-.95-.5-1.47.37.82,1.68.62,2.13.92l.03.02c.25.14.41.35.49.58.02.05.03.1.04.16-.25-.23-.63-.35-1.18-.02l-.03.02c-.08.05-.15.11-.21.17-.37.37-.53.88-.49,1.43.03.53.23,1.1.6,1.63.13.19.28.36.44.53l.02.02.15.14c-1.38.25-2.05-.82-2.55-1.46.36.03.95-.12,1.02-.14.18-.06.28-.26.22-.45-.06-.18-.26-.28-.44-.22-.09.03-.17.05-.26.07-.18-.02-.34-.09-.48-.19-.25-.18-.42-.45-.51-.63l-.06-.13c-.09-.2-.19-.43-.38-.61-.4-.47-.84-.74-1.24-.9,1.27-.43,2.02-.1,2.22.02ZM41.39,201.61c-.3-.18-.82-.5-1.42-.9-.03-.03-.06-.05-.1-.06-1.04-.7-2.32-1.63-3.2-2.55-.06-.06-.13-.12-.2-.21-.39-.43-.8-1.25-.8-1.25-.26-.73-.28-1.47-.1-2.17.16-.63.39-1.14.83-1.61.06.03.13.06.19.08-.24.32-.4.69-.48,1.09-.13.65-.07,1.37.14,2.05h0c.59,1.69,4.66,4.05,4.67,4.06.13.08.31.03.38-.1,0-.01.02-.03.02-.05.06-.15.68-1.68,1.07-3.25h0s.01-.06.02-.08c.25-1.03.4-2.06.21-2.7v-.03c-.16-.4-.4-.78-.69-1.11-.15-.17-.32-.33-.51-.47l.11-.09c.3.21.57.46.8.76.25.32.45.69.58,1.1h0c.61,1.77-1.07,6.28-1.54,7.49ZM41.76,202.19c-.1.63-.17,1.27-.17,1.87-.59-.23-1.06-.39-1.45-.52-.12-.04-.23-.08-.34-.11.07-.61.14-1.29.2-2.01.8.52,1.38.86,1.39.86.13.07.29.04.37-.08ZM39.48,201.05c-.07.76-.14,1.48-.21,2.16-.18-.08-.33-.16-.48-.26-.21-.16-.46-.42-.74-.73.08-.32.16-.67.24-1.03.05-.24.12-.53.19-.85.34.25.68.49,1,.71ZM37.98,199.97c-.07.33-.36,1.67-.41,1.87-.16-.2-1.78-2.29-1.78-3.92.43.55.76.83.76.83.43.42.93.83,1.43,1.22ZM41.08,192.78c.17.12.32.26.45.41.25.27.44.59.57.93.15.5.05,1.31-.15,2.16l-1.01-.38c.11-.34.21-.7.28-1.07.14-.74.15-1.47-.14-2.06ZM41.83,196.77c-.29,1.1-.7,2.19-.9,2.71-.48-.29-1.51-.94-2.42-1.67l.42-1.09c.53.39.97.66,1.05.71.02.01.03.02.05.03.14.06.31,0,.37-.15.11-.26.24-.58.37-.93l1.06.4ZM40.66,194.74c-.14.72-.42,1.46-.65,2.04-.66-.43-2.3-1.56-2.57-2.36l-.02-.04c-.1-.21-.12-.45-.08-.69h0c.04-.23.12-.44.23-.63.48.09.95.12,1.43.08.48-.04.95-.15,1.43-.33.36.48.37,1.2.23,1.94ZM38.52,196.41l-.41,1.07c-.63-.54-1.15-1.1-1.32-1.58-.18-.59-.23-1.21-.12-1.76.02-.11.05-.22.09-.32-.01.28.03.55.15.8.21.58.92,1.25,1.61,1.79ZM42.72,192.58c-.22-.26-.47-.5-.74-.7.48-.45.97-.97,1.24-1.42.18.08.58.14.58.14,0,0,.47.61.65.82.2.24,1.21.86,1.37.89-.32.32-.95.69-2.09.55-.36-.09-.96-.28-1.01-.28ZM46.87,188.97c-.57.94-1.44.98-1.83.99-.4.01-.83-.03-1.24-.08h-.04c-.06,0-.15-.02-.23-.06.25-.63.46-1.36.61-2.2.27,0,.61.03.96.09.31.05.63.13.93.24.12.06.74.22.89.22.06,0,.22-.06.22-.06-.03.13-.16.63-.27.86ZM28.75,187.51h.03c.6-.28,1.26-.45,1.81-.59.18-.05.36-.09.48-.13.19.66.54,1.67,1.11,2.64-.05.06-.11.11-.18.16-.13.1-.29.17-.47.2-.45.09-.95.18-1.43.2-.47.02-.93-.02-1.34-.18h-.02c-.8-.27-1.17-1.41-1.33-2.11.1,0,.19,0,.29,0,.15,0,.32-.02.49-.06.19-.04.38-.09.55-.15ZM27.87,190.09c.18.16.4.3.64.38.52.21,1.08.26,1.63.23.54-.02,1.07-.12,1.54-.21.05-.01.11-.02.16-.04-.09.14-.2.3-.33.52-.05.08-.1.18-.16.29-.15.29-.37.72-.86,1.1-.09.06-.22.11-.36.15-.17.05-.34.07-.47.07-.19,0-.35.16-.35.35,0,.07.02.14.06.2.15.25,1.24,1.92,3.88,1.45h.01c.26-.05.48-.12.69-.2,0,.04.23,1.13.34,1.49-.62.54-2.16,1.65-4.49,1.65-1.24-2.53-1.54-4.44-1.8-6.09l-.03-.2s0-.04,0-.05c-.08-.34-.1-.65-.09-.95,0-.05,0-.09,0-.14ZM34.76,196.38c.52,1.06.64,1.8.66,2.08-1.85,2.03-4.53,1.82-4.53,1.82-.59-.43-1.01-1.46-1.21-2.06,2.62.04,4.37-1.21,5.08-1.84ZM31.02,207.24c.24.46.5.89.79,1.28-.12.16-.24.32-.36.48-.36.45-.75.87-1.18,1.22-.96-1.42-1.21-2.86-1.26-3.37l.06-.05c.37-.23,1.01-.6,1.41-.82.16.45.34.87.55,1.27ZM29.69,210.63c-.9.56-1.93.79-3.05.35-.1-.05-.55-.31-.88-.74.9-1.28,1.82-2.21,2.61-2.89.13.75.47,2.03,1.33,3.28ZM25.41,209.51c-.06-.32-.02-.68.19-1.09,0,0,.59-1.02,2.32-1.61-.77.65-1.64,1.53-2.51,2.7ZM30.53,210.91c.54-.42,1.01-.89,1.47-1.48.32-.41,1.92-3.11,2.19-3.74.43.44.95.88,1.57,1.25-.64,1.17-1.29,2.14-1.92,2.95-3.38,4.04-6.69,4.94-9.71,2.53-.15-.19-.26-.41-.31-.66-.1-.45-.02-1.01.32-1.69.17-.33.35-.64.55-.91-.02.43.22,1,.47,1.44.44.6,2.45,2.21,5.39.31ZM26.27,216.78c.83,1.23,1.68,2.5,4.01,3.11h.05s.2.05.2.05c-1.19,1.13-4.74,4.35-5.87,2-.08-.18-.23.31-.13.48,1.36,2.39,4.93-.54,6.36-1.85-.02.06-.04.13-.06.2-.19.69-.18,1.5-.07,2.25.07.49.17.96.29,1.35-.83.94-1.65,1.78-2.45,2.52h-.01c-.27.26-.55.48-.83.66-.87.57-1.77.81-2.62.7-.86-.11-1.69-.57-2.45-1.38-.25-.27-.49-.58-.72-.92h0c-1.54-2.25-.76-5.62-.57-6.45.31-1.1.81-1.93,1.07-2.49.2-.4.4-.83.58-1.26.16-.38.5-1.34.52-1.41,1.43.53,2.06,1.47,2.71,2.44ZM21.23,230.22c-1.95-1.35-2.01-3.25-2.05-4.48,0-.2,0-2.22,1.12-3.88-.07,1.41.13,3.07,1.09,4.48.25.38.51.72.79,1.02.87.94,1.85,1.47,2.88,1.6.4.05.79.04,1.19-.03-.68.53-1.28.96-1.78,1.28h0c-.49.33-1.05.5-1.61.5s-1.11-.16-1.61-.49ZM22.22,231.37c-1.23.55-3.14,1.18-4.91.75-1.12-.3-1.97-.68-2.5-1.72-.56-1.11-.81-2.95-.67-6.18,0,0,.33-4.67.51-5.55.49-.3,2.64-1.35,5.95.71-.3.66-.55,1.38-.88,2.02-.95,1.85-1.26,4.19-1.26,4.37.04,1.36.11,3.48,2.36,5.04h.01c.43.29.9.48,1.39.57ZM30.47,230.23c0,.83.24,2.12.91,2.67.05.04.11.06.16.08.13.03.49.16,1.07.27h-7.33c2.46-.89,4.29-2.24,5.19-3.01ZM31.78,232.31c-1-.9-.52-3.24-.11-4.78.3-1.11.56-2.1.27-2.72-.18-.44-.38-1.13-.48-1.88-.09-.67-.1-1.38.06-1.97.15-.54.45-.99.98-1.2.14-.05.29-.09.46-.12h.02c.76-.13,1.33-.07,1.76.1.36.15.64.38.86.65.19.74,1.02,2.63-.58,5.2-.1.16.3.9.75.68-.91.65-2.14,2.24-2.28,2.64-.11.3-.18.63-.15.97.03.36.16.72.46,1.02.19.2.46.36.8.49h0c1.05.37,1.42.9,1.55,1.23-2.7.31-3.93-.19-4.36-.3ZM36.58,230.16c-.13-.11-2.06-1.2-2.02-1.71l.05-.06c.24.38,1.58.79,2.1,1.38.18.21.35.4.31.88-.09-.17-.22-.33-.45-.49ZM36.89,231.31c-.24-.26-.77-.81-1.27-1.05-.42-.2-.94-.39-1.6-.56,0-.19.05-.39.11-.56.03-.07.05-.13.08-.19.18.42,2.96,1.47,2.68,2.36ZM34.83,230.72c-.24-.09-.42-.2-.55-.33-.07-.07-.12-.15-.16-.23.53.15.97.31,1.32.48.6.29.95.6,1.13.89.13.22.17.44.14.64-.24-.47-.76-1.07-1.88-1.46ZM37.47,230.43c-.04-1.09-2.32-1.69-2.58-2.4-.02-.42,1.2-1.58,1.72-1.99.55-.03,1.18.17,1.79.9.06.08.15.12.25.13-.26.99-.27,2.17.15,3.55.06.19.25.29.44.24.12-.04.21-.13.24-.25.07-.17.62-1.37,2.94-.88.16.12.33.28.51.45,1.44,1.36,2.6,2.41,4.68,2.92.28.07.56.11.84.15h-11.8c.2-.08.9-1.03.83-2.81ZM47.77,232.41c-1.21-.3-2.46-.94-3.75-2.14h0c-.18-.18-.37-.38-.61-.61-.17-.16-.33-.31-.49-.44.01-.71.32-3.75,4.55-4.93,1.48.76,2.8,1.61,3.76,2.57h0s1.11.88,1.24,1.02c.21.24.28-.16-.23-.8-.02-.03-.14-.18-.16-.23.72-.17,1.96-.59,2.69-1.59.13.34.25.67.28,1,.31,2.95-.6,5.2-3.64,6.21-1.21.18-2.42.22-3.64-.08ZM49.18,260.44l5.69-.09c2.85-.05,2.74-.11,5.31,1.14l-.78-1.31c2.01-.01,7.14-.13,7.14,2.81,0,1.34-1.08,2.59-2.79,1.91-.72-.42-.95-.89-1.23-1.45-.44.82-.11,1.98,1.09,2.67,3.03,1.74,7.65.17,8.56-3.79.35.69.85,1.31,1.45,1.74-.25.62-.37,1.28-.34,1.94-5.44,6.37-9.55,4.71-16.09.02,1.04-.17,1.99-.79,2.41-1.45.32-.5-1.22.52-2.84.51-.98.26-3.38-1.23-3.64-1.43l-3.94-3.22ZM65.11,259.72h6.07c.52,3.32-1.5,6.35-5.13,6.07,1.61-.93,2.84-4.65-.94-6.07ZM82.87,266.54c3.31-.08,6.38-3.03,5.72-6.83h4.46c.07.72-.08,1.46-.4,2.12-.51,1.03-1.06,1.37-1.91,1.85l.25.46c1.06,1.96.06,4.43-2.13,5.04-1.04.29-1.7.09-2.62-.22l-.18.48c-.5,1.33-1.73,2.27-3.19,2.29-1.45-.02-2.68-.95-3.19-2.29l-.18-.48c-.92.31-1.58.51-2.62.22-2.19-.61-3.19-3.08-2.13-5.04l.25-.46c-.85-.47-1.4-.82-1.91-1.85-.32-.65-.48-1.4-.4-2.11h4.46c-.66,3.8,2.41,6.75,5.72,6.83ZM78.23,259.7h4.71s4.57,0,4.57,0c.32,1.59-.17,3.22-1.3,4.35-.99.99-2.18,1.42-3.34,1.42-1.16,0-2.35-.43-3.34-1.42-1.14-1.13-1.62-2.77-1.3-4.35ZM92.21,267.32c1.88,2.07,3.6,3.26,5.31,3.76.22,1.47-.33,2.32-.39,3.49-1.17-.12-2.25.36-3.54-.06-.22-2.06-1.47-3.74-3.51-4.69,1-.54,1.76-1.43,2.13-2.5ZM81.18,272.43c.52.22,1.09.35,1.7.36.6,0,1.17-.13,1.69-.36-.15.93.12,1.85.8,2.47.82.74,1.58.79,2.61.62-.23,1.74-1.74,2.38-3.05,2.94-.79.34-1.6.75-2.05,1.29-.46-.54-1.26-.95-2.06-1.29-1.31-.56-2.82-1.21-3.05-2.94,1.03.17,1.8.12,2.61-.62.68-.62.95-1.54.8-2.47ZM75.66,269.81c-2.05.95-3.3,2.63-3.51,4.69-1.29.43-2.37-.05-3.54.06-.06-1.17-.61-2.02-.39-3.49,1.71-.5,3.43-1.69,5.31-3.76.37,1.07,1.13,1.96,2.13,2.5ZM67.53,275.14l-.08.53-12.08-9.37c2.85,1.83,6.68,4.05,8.08,4.53,1.28.44,2.49.61,3.69.47-.15,1.71.57,2.72.39,3.85ZM67.73,275.9c.8-.29.97-.36,2.14-.23.69.07,1.42.15,2.26-.06.04.52.14,1.04.28,1.53.27,1.54,1.16,2.94,2.3,4.18l-6.98-5.42ZM81.12,286.29c.49.33.86.6,1.02.79l-1.02-.79ZM82.96,287.71l-.58-.45.42-.02h.16l.55.02c.01-.28.96-.87,2.26-1.73l-2.8,2.17ZM88.82,278.69c.13,2.53-1.84,4.85-3.51,5.94-.91.6-1.89,1.02-2.44,1.62-.54-.6-1.52-1.02-2.44-1.62-1.67-1.09-3.64-3.41-3.51-5.94-.06-.74-1.25,1.04-1.27,2.17-1.21-1.07-2.6-4.31-2.47-6.1.05-.69.24-1.36.61-1.99.6-1.01,1.69-1.89,3.44-2.45.55.07,1.11.05,1.65-.07.21.42.48.81.81,1.15.43.58.77,1.98-.03,2.71-.81.74-1.99.32-2.94.1-.36,5.4,4.06,4.32,6.14,6.96,2.09-2.64,6.5-1.56,6.14-6.96-.95.22-2.13.64-2.94-.1-.8-.73-.46-2.14-.03-2.71.32-.34.6-.72.81-1.15.54.12,1.1.14,1.65.07,1.75.57,2.84,1.45,3.44,2.45.37.62.56,1.3.61,1.99.13,1.79-1.26,5.04-2.48,6.1-.01-1.13-1.21-2.91-1.26-2.17ZM90.54,281.83c1.37-1.36,2.48-2.94,2.79-4.69.15-.5.25-1.01.28-1.53.84.21,1.57.13,2.26.06,1.22-.13,1.36-.05,2.25.28l-7.59,5.89ZM98.32,275.79l-.1-.64c-.18-1.13.55-2.14.39-3.85,1.2.15,2.41-.03,3.69-.47,1.58-.54,6.25-3.3,9.12-5.2l-13.1,10.16ZM112.62,263.66c-.25.2-2.66,1.7-3.64,1.43-1.62,0-3.16-1.01-2.84-.51.42.66,1.37,1.28,2.41,1.45-6.54,4.69-10.65,6.35-16.09-.02.03-.66-.09-1.32-.34-1.94.6-.44,1.1-1.05,1.45-1.74.9,3.95,5.53,5.53,8.56,3.79,1.2-.69,1.53-1.85,1.09-2.67-.28.56-.5,1.03-1.23,1.45-1.71.68-2.79-.57-2.79-1.91,0-2.94,5.13-2.82,7.14-2.81l-.78,1.31c2.56-1.25,2.46-1.19,5.3-1.14l5.69.09-3.94,3.22ZM99.69,265.79c-3.63.28-5.64-2.75-5.13-6.08h6.07c-3.78,1.42-2.56,5.15-.94,6.08ZM118.14,260.41l.83-.66h.03l-.86.66ZM83.57,258.64h0s-.62,0-.62,0h-.63s0,0,0,0l-73.38.1c-1.61-3.56-2.48-6.83-2.6-9.93-.13-3.17.51-6.17,1.92-9.12h0c.62-1.38-.2-2.14-.98-2.62l2.18-2.77h146.98l2.18,2.77c-.77.48-1.6,1.24-.98,2.61h0c1.41,2.96,2.05,5.96,1.92,9.13-.13,3.1-1,6.37-2.61,9.93l-73.38-.1ZM117.26,215.09c-.11-.04-.23.02-.27.13-.49,1.48-.57,1.67-.7,2.01,0,0-.35,1.17-.55,1.13,0,0-.41.09-.02-1.3.17-.61.37-1.38.64-2.07.04-.11,0-.23-.12-.27-.11-.04-.23,0-.27.12-.29.72-.5,1.5-.66,2.12-.17.67-.32,1.28-.54,1.23,0,0-.35-.09-.14-.87.12-.4.28-.83.49-1.46.2-.58.38-1.1.42-1.26.03-.11-.04-.23-.15-.26-.11-.03-.23.04-.26.15-.04.15-.21.66-.41,1.23-.22.65-1.1,3.97-1.1,3.97-1.21-.62,1.66-7,1.58-7.59-.03-.19-.11-.69-.13-.5-.02.24-.66,2.91-1.62,3.75-.42.38-.88,0-.88,0,.19-.16.45-.39.75-.92l.02-.04s.76-1.8.95-3.15v-.05c0-.18.04-.37.1-.54.07-.19.17-.37.28-.53.27-.32.63-.72,1.07-1.11.41-.36.89-.7,1.44-.96,1.6.7,2.01,2.46,2.12,3.31-.33.36-.65.81-.92,1.35-.25.51-.44,1.1-.53,1.77h0c-.1.96-.29,1.67-.5,2.19-.34.85-.77,1.38-.86,1.42,0,0,.39-1.26.89-2.76.04-.11-.02-.23-.13-.27ZM117.51,207.44c.27-.21.78-.45,1.7-.42.47-.05,1.96,1.7,1.73,3.37-.06.14-.31.64-.91.97v-.02c-.13-.98-.61-3.03-2.52-3.89ZM120.24,206.91c.54-.25,1.23-.6,2.3-1.13h.01c1.85-.93,2.98-1.31,3.78-1.58.66-.22,1.1-.37,1.55-.68h.02c.48-.38,1.18-1.18,1.8-2.07.45-.65.85-1.36,1.1-2,1.26,1.13,2.81,1.44,3.78,1.52-.18.29-.37.57-.57.87-.32.47-.67.95-1.04,1.46-.01.02-.02.03-.03.05,0,0-1.33,2.66-3.97,3.54h-.01c-.7.26-3.13,1.08-3.13,1.08-1.64.55-3.26,1.09-4.18,1.5-.15-1.2-.84-2.06-1.41-2.56ZM120.52,194.57c-.11-1.34-1.16-1.69-1.16-1.7-.18-.06-.61.11-.45.21.61.4.83.65.91,1.52,0,.12,0,.19,0,.27-.01.53-.03,1.38.16,2.63-.8-.02-2.55-.26-3.66-1.99l.16-.41c.56-1.46,1.29-3.37,2.51-5.47.21.31.49.57.85.72.42.21.89.29,1.36.3.09,0,.18,0,.27,0-.05.08-.62.93-1.66.98-.2,0-.35.16-.35.35,0,.06.01.11.04.16.1.22.83,1.69,3.14,1.4.02,0,.04,0,.06-.01.1-.02.19-.05.28-.07-.07.16-.14.32-.19.49-.43,1.25.14,3.65.73,5.52,0,.01,0,.02,0,.04,0,.36.1.94.23,1.61.18.99.4,2.19.36,3.16-.27.12-.57.25-.89.4-1-2.04-1.63-3.72-2.02-5.09v-.02c.01-.08,0-.17-.05-.23l-.33-1.56c-.01-.07-.04-.12-.09-.17-.22-1.3-.2-2.17-.19-2.71v-.3s0-.03,0-.03ZM106.35,190.24c-1.48-.85-2.07-1.9-2.25-2.31-.19-.28-.43-1.16-.38-1.31.28.54,1.4,2.21,2.69,3.05.1.06.23.04.29-.06.06-.1.03-.23-.06-.29-1.56-1.02-3.06-3-2.8-3.59.23.32,1.32,1.56,1.65,1.88.39.38.87.77,1.47,1.22.09.07.23.05.29-.04.07-.09.05-.23-.04-.3-.58-.44-1.01-.87-1.42-1.19-1.86-1.44-1.64-2.69-1.66-2.94l.02-.16c-.02-.09.22.37.3.52l.03.05c1.87,3.03,3.49,3.37,3.75,3.4.12.02.26-.02.34-.12.12-.15.1-.37-.05-.5-.1-.08-.18-.16-.26-.25v-.02c-.34-.37-.57-.83-.65-1.28-.08-.41-.03-.8.19-1.07.03-.04.06-.07.09-.09.13-.09.09.16.08.21v.05c-.11,1.47,1.47,2.59,1.53,2.63l.05.03c1.57.79,1.74,2.87,1.75,3.11,0,.02,0,.05,0,.08.03.17.02.34-.05.51-.07.19-.18.38-.34.58-.31.34-.72.54-1.15.58-.44.04-.89-.07-1.24-.34h0c-.78-.59-1.52-.96-2.25-1.2-1.42-.46-2.04-1.55-2.04-1.55-.19-.24-.53-1-.53-1.49.37.54,1.41,1.96,2.46,2.57.1.06.23.02.29-.08.06-.1.02-.23-.08-.29ZM112.11,191.74c.23.25.53.69.73,1.35-.02.05-.05.1-.09.17-.02.03-.04.05-.05.08-.3.48-1.06,1.29-2.7,1.27-.17-.16-.58-.56-.87-1.16.79.05,2.12-.15,2.99-1.72ZM112.99,194.12c.62,1.05,1.28,2.22,1.81,3.17.03.1.06.2.12.31.03.09.18.48.58.94.21.38.34.62.37.67v.02c.28.45.51.88.69,1.28.18.39.31.77.4,1.13.05.19.15.39.34.51.17.1.1-1.48-.1-1.92-.09-.19-.18-.39-.29-.59.75.39,1.76.72,3.13.84-.58,1.36-1.22,2.75-1.82,3.82-.54.96-1.03,1.64-1.37,1.74-.66.46-4.07.97-4.98-7.23-.09-.85-.29-1.54-.45-1.99-.15-.58-.39-1.09-.63-1.55,1.1-.16,1.79-.68,2.2-1.15ZM116.1,198.18c-.17-.31-.38-.7-.63-1.13-.07-.41.15-.76.35-.98,1.36,1.95,3.43,2.16,4.28,2.15.08.41.19.85.32,1.33l-.1.25c-2.42-.16-3.63-.98-4.22-1.62ZM137.93,166.42c.29.8.55,1.62.79,2.47,1.07,3.82,1.58,8.03,1.4,11.43-.18,3.3-.98,5.81-2.55,6.38-.04.01-.07.02-.1.04-.56-.22-1.13-.37-1.63-.5-.12-.03-.24-.06-.37-.1.44-.18.89-.54,1.18-1.24h0s.63-1.47-.4-2.93c-.04-.07-.53-.89.59-1.86l.02-.02c.07-.07.12-.16.15-.24.03-.08.03-.16,0-.24l-.02-.05c-.03-.08-.09-.15-.17-.2-.06-.04-.14-.06-.22-.06-.04,0-.09,0-.12.02l-.15.05c-.32.11-.75.24-1.19.43.22-.27.4-.53.54-.73l.1-.14c.11-.16.07-.38-.08-.49-.05-.04-.11-.06-.18-.06.08-.12.15-.23.2-.33.03-.06.05-.11.07-.16.06-.14.13-.3.23-.4h0s.02-.03.02-.03c.81-.97,1.83-.89,1.84-.89.13.01.27-.05.33-.18.1-.17.04-.39-.13-.48-.92-.52-1.67-.71-2.25-.75.11-.19.2-.37.27-.56l.02-.05c.1-.36.15-.71.15-1.07s-.05-.71-.15-1.07h0c-.32-1.04.13-1.64.13-1.64.04-.05.06-.12.07-.19,0-.19-.14-.36-.33-.37-.62-.03-1.16,0-1.61.1.11-.35.18-.84.13-1.53.04-.05.07-.12.11-.19.02-.03.03-.07.03-.1l.09-.56s0-.04,0-.06c0-.17-.05-.35-.15-.48-.09-.12-.22-.21-.39-.24l-.03-.12c-.04-.17-.36-1.78.55-2.62.14-.13.15-.35.02-.5-.09-.1-.21-.13-.33-.11,0,0-.28.06-.67.2.22-1.71-.07-3.3-.17-3.78.35-.13.92-.41,1.15-.95l.02-.04c.22-.78-.29-1.9-.29-1.9-.08-.18-.28-.26-.46-.19h-.01s-1.14.52-1.47,1.3v.04c-.19.62.14,1.27.31,1.55-1.33,1.27-1.97,2.56-2.25,3.33-.18-.17-.39-.33-.63-.46-.17-.09-.38-.02-.47.15-.03.06-.04.13-.04.19,0,0,.17,1.77-.98,2.67l-.06.05s-.4-.06-.57.05l-.43.95s0,.04,0,.06c0,.05,0,.1.01.16-.12.21-.22.41-.3.62-.08.22-.14.44-.18.66-.67-.66-1.38-.93-1.38-.93-.09-.03-.19-.03-.28.02-.17.09-.24.3-.16.47.19.38.23.73.12,1.05-.12.34-.4.68-.85,1.01-.93.68-1.01,1.69-.99,2.11-.17.21-.41.67-.15,1.36v.03c.06.1.13.16.24.22-.05.12-.1.25-.14.38v.02c-.19.68-.35,1.2-.56,1.64-.21.42-.47.77-.86,1.12h-.01c-.72.61-1,1.06-1.06,1.4-.07.41.13.66.34.85.03.03.32.17.24.38,0,.02-.01.05-.01.08-.06.02-.08.09-.13.12-.15.1-.16.21-.16.31,0,.1.05.22.17.36-.22.18-.11.53-.06.64.04.09.19.23.24.25,0,0,0,.02-.01.03-.13.42-.13.77-.04,1.06.09.29.27.5.49.65.11.07.23.13.35.17.01.02.03.03.05.05l.12.09c.39.31,1.21.96,2.76,1.05.05.33.14,1.46-.72,1.92-.77.19-1.48.34-1.84.41-1.83.17-5.94-.2-5.67-6.93.17-4.21,2.52-9.11,5.94-13.77,3.74-5.1,8.74-9.91,13.58-13.29-.36,1.96-.89,7.01,1.51,13.62ZM155.13,209.54c.16-.04.47,0,.78.13.24.1.67.36.78.61h0c.03.06.05.12.05.18.02.14,0,.29-.06.42-.05.12-.14.21-.23.26,0,0-.02,0-.02.01-.16-.27-.38-.52-.62-.69-.3-.22-.64-.33-.91-.26-.15.04-.36.36-.2.34.7-.08,1.35,1.06,1.4,1.09,0,0,.37.78-.38.87-.26-.8-1.28-1.29-1.36-1.16-.08.13.13.3.26.38,0,0,.47.42.61,1.13.16.63-.42.9-.82,1.05-.1-2.21-2.47-2.99-3.17-3.17.07-.1.14-.19.21-.24.16-.11.21-.33.1-.49-.01-.02-.03-.04-.04-.05-.21-.23-3.04-3.33-6.15-1.12-.14-.59-.27-1.44-.25-2.29.01-.7.13-1.39.43-1.93.19-.33.44-.52.71-.62.27-.1.57-.13.82-.13.25.04.49.13.7.25.24.14.44.32.61.52h0c1.49,1.97,4.03,2.34,4.3,2.37h.03s.92.08,1.2.56c.32.71,1.06.88,1.25.92.03,0,.06.01.09.01.48,0,.98.09,1.32.29.11.07.2.15.27.24.05.08.09.18.09.29,0,.1-.02.21-.07.34-.2-.23-.52-.27-.78-.38-.42-.18-1.32-.1-1.28.05.04.15.19.24.34.2ZM150.77,210.19c-.27.36-.46.89-.57,1.28-1.71-.99-3.67-.33-4.53.05-.18-.79-.42-1.26-.61-1.52,2.51-2.52,4.96-.54,5.71.18ZM145.85,213.42c0-.29-.03-.56-.05-.83-.01-.12-.02-.23-.03-.34.62-.31,2.67-1.16,4.29-.03.06.18.12.38.18.57.09.26.17.53.25.8-.4-.03-.83-.02-1.32.05h-.02c-1.56.23-2.63.96-3.33,1.67.08-.62.1-1.25.02-1.89ZM149.27,214.34h0c2.12-.3,3.1.62,3.49,1.17-.5.2-1.18.76-1.22,2.34-.98-.43-3.18-.96-6.19.88-.11-.23-.21-.46-.31-.68.01-.05.03-.09.04-.13.12-.27.23-.55.32-.83.21-.45,1.26-2.36,3.86-2.75ZM152.82,224.2c0-.98-.07-1.99-.18-2.99-.03-.3-.07-.59-.1-.88,1.38-.93,2.66-.78,2.67-.78h.02c2.21.16,3.55-.44,4.31-1.01-.53,2.64-1.31,3.12-1.97,3.53-.66.41-1.23.76-1.45,2.36v.03c-.05.44-.08.88-.1,1.32-.17,2.82-.34,5.65-6.96,7.29-.33.08-.65.14-.98.2h-4.37c-4.5-.75-7.55-3.6-8-4.04-.1-.62-.27-1.26-.43-1.86-.25-.96-.48-1.81-.32-2.21,1.02,1.13,2.03,2.12,2.98,2.96,1.36,1.21,2.59,2.12,3.49,2.71.28.19,4.49,2.77,7.7,2h0c1.3-.35,2.3-.81,2.95-2.08.62-1.21.89-3.16.75-6.52ZM125.62,214.99v-.04c-.12-.66-.08-1.24.05-1.74.16-.6.45-1.1.77-1.47l.13-.13c.36-.37.75-.76,1.25-.7.82.12,1.25.62,1.41.87-1.76,2.09-1.27,6.31-1.25,6.52.13,1.89-1.78,2.45-2.28,2.56l-2.22-1.29c.9-.57,2.49-1.97,2.14-4.58ZM130.33,225.43c-.1-.03-.2-.06-.31-.08-.03,0-.06-.02-.09-.02-.65-.11-1.42.02-2.18.7-.31-1.03-.84-3.32-.23-4.97.18-.14.86-.59,2.41-.61-.2.91-.51,3.06.41,4.97ZM128.3,219.97c.28-.45.44-1.01.39-1.73v-.02s-.15-1.19-.04-2.58c.35.84.68,1.54.98,2.14.36.71.68,1.27.94,1.71-.11.09-.2.18-.29.27-.83-.02-1.48.07-1.98.2ZM129.8,217.23c.17.16,1.41,1.66,1.6,1.81-.04.01-.09.03-.13.05-.03.01-.21.1-.24.12-.1-.17-1.11-1.77-1.22-1.97ZM129.06,214.77c1.08-.11,2.05-.33,2.91-.63.98-.34,1.81-.78,2.48-1.28.19.14.37.27.55.38,1.56.99,2.77,1.14,3.22,1.19.49.09,2.04-.03,3.25-.64.28-.14.55-.31.78-.5.06.12.12.25.18.39h0c-1.63.6-2.33,1.64-3.04,2.71-.76,1.13-1.53,2.28-3.61,2.83h0c-.23.05-.46.09-.68.13-.18.03-.37.05-.55.05-.15-.12-.33-.21-.52-.29-.19-.08-.39-.13-.62-.16h0c-.44-.07-.82-.09-1.17-.07-1.47-.86-2.49-2.26-3.18-4.1ZM131.73,213.48c-.83.29-1.77.5-2.84.6.19-.73.49-1.43.95-1.94.37-.19.8-.41,1.23-.67.38-.22.77-.47,1.13-.74.57.67,1.13,1.22,1.66,1.67-.59.41-1.31.78-2.14,1.07ZM129.79,211.34c-.26-.36-.83-.98-1.87-1.13h0c-.85-.11-1.35.41-1.84.9l-.1.1c.36-.71.69-1.65.9-2.86.84-.28,1.65-.56,2.32-.81.24-.08.46-.17.68-.27.61,1.13,1.24,2.08,1.85,2.87-.65.52-1.34.89-1.94,1.19ZM126.7,221.34c-.33,1.36-.1,2.94.15,4.05-1.07-1.57-2.79-2.45-3.87-2.88,1.3-.47,2.58-.86,3.72-1.17ZM126.97,229.66c-.47-.47-1.36-.94-2.94-.69-.08-1.07-.66-3.77-4.26-5.1l2.19-.97c.84.24,5.92,1.92,5.01,6.76ZM126.79,230.6c.03.11.12.21.24.25.19.05.38-.05.44-.24.41-1.39.41-2.56.15-3.55.09,0,.18-.05.25-.13.61-.73,1.24-.93,1.79-.9.52.41,1.74,1.58,1.72,1.99-.26.72-2.54,1.31-2.58,2.4-.07,1.78.63,2.73.83,2.81h-11.8c.28-.04.56-.08.84-.15,2.08-.51,3.24-1.56,4.68-2.92.18-.17.36-.33.51-.45,2.33-.5,2.88.71,2.94.88ZM129.67,230.16c-.22.16-.36.33-.45.49-.05-.48.12-.67.31-.88.52-.59,1.86-1.01,2.1-1.38l.05.06c.04.51-1.89,1.6-2.02,1.71ZM132.03,228.95c.03.06.06.13.08.19.06.18.11.37.11.56-.66.17-1.18.36-1.6.56-.5.24-1.04.79-1.27,1.05-.28-.9,2.5-1.94,2.68-2.36ZM129.54,232.18c-.02-.2.01-.42.14-.64.18-.3.52-.61,1.13-.89.35-.17.78-.33,1.32-.48-.04.08-.09.16-.16.23-.12.13-.3.24-.55.33-1.12.39-1.64.99-1.88,1.46ZM131.66,231.39h0c.35-.13.61-.3.8-.49.3-.3.44-.66.47-1.02.02-.34-.04-.68-.15-.97-.15-.39-1.37-1.98-2.28-2.64.45.22.86-.52.75-.68-1.6-2.57-.77-4.46-.58-5.2.22-.27.5-.5.86-.65.43-.17,1-.23,1.76-.11h.02c.17.03.32.07.46.12.53.21.83.66.98,1.2.16.6.15,1.3.06,1.97-.1.75-.31,1.44-.48,1.88-.29.62-.03,1.61.27,2.72.41,1.54.89,3.89-.11,4.78-.43.11-1.67.61-4.36.3.13-.33.5-.86,1.55-1.22ZM134.71,232.98c.06-.01.11-.04.16-.08.67-.55.9-1.84.91-2.67.9.77,2.72,2.12,5.19,3.01h-7.33c.58-.11.94-.23,1.07-.27ZM145.96,221.87c1.12,1.66,1.12,3.68,1.12,3.88-.04,1.22-.1,3.13-2.05,4.48-.49.33-1.05.49-1.61.49s-1.12-.16-1.61-.5h0c-.5-.33-1.11-.76-1.78-1.29.4.07.8.08,1.19.03,1.03-.13,2.01-.66,2.88-1.6.28-.3.54-.64.79-1.02.96-1.4,1.16-3.07,1.09-4.48ZM145.64,219.38c3.31-2.06,5.47-1.01,5.95-.71.18.88.52,5.55.52,5.55.14,3.23-.11,5.08-.67,6.18-.53,1.04-1.39,1.42-2.5,1.72-1.77.43-3.68-.2-4.91-.75.48-.09.95-.27,1.39-.56h.01c2.24-1.56,2.31-3.68,2.35-5.04,0-.17-.3-2.51-1.25-4.37-.33-.65-.59-1.36-.88-2.02ZM144.29,225.95h0c-.23.35-.47.66-.72.93-.75.81-1.59,1.27-2.45,1.38-.86.11-1.75-.13-2.62-.7-.28-.18-.56-.4-.83-.65h-.01c-.79-.76-1.62-1.6-2.45-2.54.11-.4.22-.87.29-1.35.1-.75.11-1.56-.07-2.25-.02-.07-.04-.13-.06-.2,1.43,1.32,5,4.24,6.36,1.85.1-.17-.05-.66-.13-.48-1.13,2.35-4.68-.87-5.87-2l.2-.04h.05c2.33-.63,3.18-1.89,4.01-3.13.65-.96,1.28-1.91,2.71-2.44.02.07.36,1.03.52,1.41.19.44.39.86.59,1.26.26.56.76,1.39,1.07,2.49.18.84.97,4.2-.57,6.45ZM142.45,211.76c-.06.25-.17.47-.32.66-3.02,2.41-6.33,1.51-9.71-2.53-.63-.8-1.28-1.77-1.92-2.95.62-.37,1.14-.81,1.57-1.25.27.63,1.87,3.33,2.19,3.74.46.59.93,1.06,1.47,1.48,2.94,1.9,4.94.29,5.39-.31.24-.45.49-1.01.47-1.44.19.28.38.58.55.91.34.69.42,1.24.32,1.69ZM135.19,205.49c-.17.53-.38.99-.62,1.43-.18.33-.38.64-.59.93-.75-1.18-1.24-2.32-1.4-2.73.58-.7.9-1.3.97-1.42.36-.5.71-.98,1.03-1.46.07-.1.14-.21.21-.31-.15.99-.19,2.35.4,3.57ZM140.84,209.51c-.87-1.17-1.74-2.05-2.51-2.7,1.73.59,2.32,1.61,2.32,1.61.21.41.25.77.19,1.09ZM140.49,210.24c-.33.43-.78.69-.89.74-1.12.44-2.15.21-3.05-.35.85-1.25,1.19-2.53,1.32-3.28.8.68,1.71,1.61,2.61,2.89ZM135.98,210.22c-.43-.35-.83-.77-1.18-1.22-.13-.16-.25-.32-.36-.48.28-.39.55-.81.79-1.28.2-.39.39-.82.54-1.27.4.23,1.04.59,1.41.82l.06.05c-.06.51-.3,1.95-1.26,3.37ZM130.83,198.47c.02-.28.14-1.03.66-2.08.71.62,2.47,1.88,5.08,1.84-.2.6-.62,1.63-1.21,2.06,0,0-2.68.21-4.53-1.82ZM129.77,197.89c-.06.08-.13.15-.19.21-.88.91-2.16,1.85-3.21,2.55-.04.01-.07.04-.1.06-.6.4-1.12.72-1.42.9-.47-1.21-2.15-5.72-1.54-7.48h0c.12-.42.33-.79.58-1.12.23-.29.51-.55.8-.76l.11.09c-.18.14-.36.3-.51.47-.29.33-.52.7-.67,1.11v.03c-.2.64-.06,1.67.2,2.7,0,.02,0,.04.01.07h0c.39,1.57,1.01,3.11,1.07,3.26,0,.02.01.03.02.05.08.13.25.18.38.1.01,0,4.08-2.37,4.67-4.05h0c.21-.69.27-1.41.14-2.06-.08-.4-.24-.77-.48-1.09.06-.03.13-.05.19-.08.44.47.67.99.83,1.61.18.7.15,1.44-.1,2.17,0,0-.41.83-.8,1.25ZM130.46,197.93c0,1.63-1.63,3.72-1.78,3.92-.05-.2-.34-1.54-.41-1.87.5-.39,1-.8,1.43-1.22,0,0,.34-.27.76-.83ZM128.21,202.22c-.28.31-.53.57-.74.73-.15.1-.31.19-.48.26-.07-.68-.14-1.4-.21-2.16.32-.22.66-.45,1-.71.07.31.14.61.19.85.08.36.16.71.24,1.03ZM126.44,203.42c-.11.04-.22.07-.33.11-.39.13-.86.29-1.45.52,0-.6-.07-1.24-.17-1.87.08.12.25.16.37.08,0,0,.58-.34,1.38-.86.07.73.14,1.4.2,2.01ZM122.52,192.86c-1.14.14-1.77-.23-2.09-.55.16-.03,1.17-.66,1.37-.89.17-.21.65-.82.65-.82,0,0,.4-.05.58-.14.27.45.76.97,1.24,1.42-.27.2-.51.43-.73.7-.04,0-.65.19-1.01.28ZM125.03,194.84c.07.36.17.72.28,1.07l-1.01.38c-.2-.85-.3-1.66-.15-2.16.13-.34.32-.66.57-.93.14-.15.29-.29.46-.41-.28.59-.28,1.33-.14,2.06ZM128.83,194.38l-.02.04c-.27.81-1.91,1.93-2.57,2.36-.24-.58-.52-1.32-.65-2.04-.14-.74-.13-1.46.23-1.94.47.18.95.29,1.43.33.48.04.96.02,1.43-.08.11.18.2.4.23.62h0c.04.25.02.5-.08.7ZM129.34,194.62c.12-.25.17-.53.15-.8.04.1.07.21.09.32.11.55.06,1.17-.12,1.76-.17.48-.69,1.04-1.32,1.58l-.41-1.07c.69-.54,1.41-1.21,1.61-1.79ZM125.85,197.31c.06.14.23.21.37.15.02,0,.04-.02.05-.03.08-.05.52-.32,1.05-.71l.42,1.09c-.92.73-1.94,1.38-2.42,1.67-.2-.51-.61-1.6-.9-2.71l1.06-.4c.13.35.26.67.37.93ZM125.49,192c-.61-.46-1.62-1.38-1.93-2.02-.33-.67-.58-1.5-.76-2.51.48-.06.79-.14.79-.14.05-.01.1-.04.14-.07.13-.03.27-.06.41-.09-.01.67.09,1.88.84,2.91h.01c.48.61,1.28,1,2.21,1.13.85.12,1.82.02,2.74-.37.47-.19.9-.47,1.29-.8.42-.37.79-.81,1.1-1.28.01-.02.02-.04.03-.05l.15-.3c.32-.63.71-1.4.97-2.21.27.06.68.12,1.07.14-.15.6-.5,1.71-1.13,2.76-.23.44-.57.82-.63.9-.45.5-.97.89-1.49,1.27-3.05,2.22-5.73.8-5.83.73ZM123.46,182.8c-.38.12-.66.06-.86.05-.17-.01-.34-.06-.48-.16-.13-.09-.24-.22-.3-.39-.06-.19-.06-.44.04-.76,0-.03.01-.05.01-.08.34,0,.68-.07.98-.18.37-.14.7-.36.93-.62,0,0,.02-.02.02-.03.18-.02.27-.06.51-.15.21-.08.29-.4.2-.36-.35.2-.91.36-1.51-.06-.22-.16-.49-.35-.66-.38-.16-.05-.51.09-.51.09,0,0,.06-.36.03-.49.05,0,.1,0,.16,0,.17-.01.35-.2.46-.11.35.26.77.1.77.1.34-.12.31-.46.3-.57-.02-.22-.17-.44-.47-.55-.09-.03-.19.02-.22.11.32.1.44.47.32.6h0s-.31.27-.58-.04c-.05-.05-.14-.04-.2,0-.08.06-.23.14-.39.15-.13,0-.37.02-.53-.1h0c-.11-.1-.22-.22-.18-.4.04-.24.28-.59.89-1.1l.02-.02c.44-.39.74-.79.97-1.27.23-.47.39-1.01.58-1.73.05-.14.09-.28.15-.4.2.03.44.04.71.05,1.2.07,3.25.18,5.41,1.17.41.67.69,1.35.82,1.84.07.31.09.7.09.74.08.71-.09,1.4-.09,1.42-.17,1.36-.91,2.3-.96,2.36,0,0-1.19,1.32-1.87,1.73-.69.41-1.42.67-2.09.72-.11,0-.54.02-.6,0-1.11-.03-1.83-.38-2.27-.67.13-.03.25-.09.35-.16.11-.08.19-.38.06-.34ZM122.4,180.53c.24.02.74.08,1,.07-.13.09-.51.3-.67.36-.31.12-.65.18-.98.16-.09-.02-.3-.02-.36-.23-.11-.42.63-.38.99-.35ZM121.28,180.06c.05-.11.08-.2.13-.2,0,0,.32.23.35.2.05-.04.33-.18.42-.17.25.04.48.26.68.4l.2.12c-.14,0-.48-.06-.62-.07-.35-.03-.73-.04-.99.04-.12-.1-.19-.27-.16-.33ZM127.29,172.16c-1.07-.18-2.18-.27-3.25-.21.02-.34.16-.89.7-1.29.57-.42.94-.87,1.1-1.36.08-.23.11-.47.09-.72.59.42,1.35,1.22,1.4,2.54h0c-.09.28-.12.62-.04,1.03ZM133.71,174.99c-.11.11-.31.19-.66.22h-.04c-.29.05-.55.1-.78.16-.1.03-.19.05-.28.09-2.85-1.91-5.75-2.08-7.31-2.16-.29-.02-.76,0-.82,0-.11-.32-.03-.52.03-.62,3.7-.27,7.77,1.34,9.85,2.32ZM133.61,167.76c.05.19.08.38.11.54l-5.47-1.2c.1-.12.2-.25.32-.37l5.04,1.02ZM129.19,166.15c.63-.7.83-1.61.88-2.23.09.09.29.35.4.54.4.72.48,1.58.49,2.05l-1.77-.36ZM133.29,164.98c.13-.07.31-.15.31-.15-.33.85-.24,1.79-.17,2.19l-1.71-.35c.28-.83.95-1.36,1.57-1.69ZM133.12,158.71c.14-.3.51-.56.78-.73.1.31.21.74.13,1.05-.14.29-.49.46-.72.54-.12-.21-.27-.56-.19-.87ZM132.94,164.37c-.48.26-.99.63-1.39,1.14-.09-.46-.24-.98-.52-1.45.13-.46.57-1.79,1.9-3.17.12.76.26,2.11,0,3.49ZM133.81,169.05c.07,1.15-.04,1.37-.42,1.57-.44.2-.75.46-.98.72-.04-.1-.09-.19-.15-.29-.29-.52-.52-.87-.69-1.14-.27-.43-.38-.59-.38-.92,0-.2-.16-.35-.35-.35-.09,0-.18.04-.24.09-.18.14-1.23.91-2.2,1.32-.02,0-.23.08-.47.27-.07-.28-.16-.53-.27-.76,0-.01,0-.02-.01-.04-.16-.43-.13-.94.06-1.45.04-.1.09-.21.14-.31.02,0,.05,0,.08,0l5.89,1.29ZM135.42,172.61c.08.29.12.59.12.88s-.04.59-.13.88h0c-.05.15-.14.31-.24.49l-.03.05c-.18-.1-.44-.23-.76-.38-.06-.22-.15-.39-.15-.39-.08-.13-.25-.18-.38-.11-.07.04-.12.11-.13.18-.5-.23-1.08-.47-1.73-.72.24-.24.5-.62.57-1.11.18-.48.81-1.44,2.84-1.48-.12.39-.2.98.02,1.7ZM135.64,182.35l.02.02c.81,1.14.33,2.26.33,2.26-.49,1.19-1.76,1.22-2.84.75,1.17-.16,1.77-.9,2.06-1.44.06-.1.12-.21.17-.35.03-.04.06-.08.07-.13.4-1.34-1.04-1.47-1.05-1.47-.19-.02-.37.12-.38.32-.02.19.12.37.32.38,0,0,.47.04.46.41-.01.02-.02.05-.03.07h0s-.02.07-.06.17c-.3.73-1.01.35-1.02.35-.02-.01-.05-.02-.08-.03-.02,0-.04-.02-.07-.03h-.01c-.11-.08-.23-.2-.31-.38-.08-.19-.12-.45-.04-.77.06-.23.17-.49.36-.78h0c.39-.62,1.34-1.07,2.16-1.37-.63,1.03-.13,1.9-.07,2.01ZM131.37,179.43c.02-.1.04-.2.05-.3.05-.25.13-.77.07-1.39.05-.17.26-.73.77-.44.05.03.09.07.13.11.25.25.35.61.33,1.01-.02.43-.2.9-.5,1.34-.11.15-.23.3-.38.45h0c-.12.11-1.13,1.08-1.13,1.08.24-.43.53-1.08.66-1.85ZM131.05,176.16c-.07-.19-.16-.4-.26-.6.17.09.34.19.51.3-.1.09-.18.2-.25.3ZM131.47,181.34l.06-.06c.08.05.16.09.25.12.17.06.36.1.54.1,0,0,.39.02.55-.05-.19.32-.31.61-.38.87v.04c-.25.2-.6.4-1.07.34-.01-.39.04-1.36.04-1.36ZM132.44,182.83c0,.27.05.51.14.71.04.09.09.18.14.26-.11.22-.36.51-.93.59-.07-.13-.13-.26-.18-.42-.08-.25-.13-.55-.16-.9.4.04.73-.07.99-.23ZM132.96,184.08c.06.06.13.11.19.15h.02c.08.06.16.1.23.12.05.03.17.08.32.12-.38.19-.9.3-1.59.21.44-.12.69-.37.83-.59ZM134.56,178.37c-.14.1-.3.17-.48.19-.08-.02-.17-.04-.25-.07-.18-.06-.38.04-.45.22-.06.18.04.38.22.45.07.02.67.17,1.02.14-.5.64-1.17,1.71-2.55,1.46l.15-.14.02-.02c.16-.16.31-.34.44-.53.37-.53.57-1.1.6-1.63.03-.56-.13-1.07-.49-1.43-.06-.06-.13-.12-.21-.17l-.02-.02c-.55-.33-.93-.22-1.18.02,0-.05.02-.11.04-.16.08-.23.24-.44.49-.58l.02-.02c.46-.29,1.77-.1,2.13-.92.22.52-.12,1.22-.51,1.47-.13.09-.16.26-.08.39.09.13.26.17.39.08.39-.26.58-.62.66-1,.2-.11.95-.45,2.22-.02-.4.16-.84.44-1.24.9-.19.19-.29.41-.38.61l-.06.13c-.09.18-.26.45-.51.63ZM131.85,172.33c-.02.08-.04.14-.04.18-.14.4-.46.64-.56.71-.98-.34-2.06-.67-3.19-.91-.38-1.28.59-1.59.59-1.6h.02c.72-.31,1.47-.79,1.93-1.11.08.2.2.39.39.68.16.26.38.6.67,1.1.2.36.24.68.2.94ZM125.84,184.46h.11s0,0,0,0c.75-.06,1.56-.33,2.31-.79.69-.41,1.33-.97,1.86-1.64.21.08.39.06.6-.06-.04.95.03,1.66.2,2.2.1.31.23.57.39.8,0,.04.01.08.02.11l.03.05c.07.12.31.45.96.72.14.07.3.13.47.18-.24.73-.61,1.46-.92,2.06l-.15.3c-.28.41-.6.8-.97,1.12-.33.28-.69.52-1.09.68h0c-.8.34-1.64.43-2.38.32-.75-.11-1.39-.42-1.76-.87-.74-1.03-.72-2.27-.69-2.72,1.05-.65,1.03-1.94.98-2.47ZM131.18,192.77c-.14-.14-.22-.29-.28-.44.31-.17.6-.34.8-.47.6-.38,1.14-.85,1.63-1.39h0s.06-.08.09-.12c.26.27.38.44.73,1h0c.04.06.07.14.12.23.18.36.45.88,1.08,1.35h.02c.16.12.36.2.56.25h0c-.43.42-1.3.97-2.82.7-.42-.09-.73-.21-1.02-.38-.3-.18-.58-.42-.94-.73ZM131.64,194.05c0,.1-.09.53-.12.68-.05.22-.1.46-.17.71,0-.37-.04-.74-.13-1.1-.08-.3-.17-.58-.29-.84.28.24.71.55.71.55ZM136.46,197.52c-2.33,0-3.88-1.11-4.49-1.65.11-.36.35-1.45.34-1.49.21.08.43.15.69.2h.01c2.64.47,3.73-1.19,3.88-1.45.04-.06.06-.12.06-.2,0-.2-.16-.35-.35-.35-.13,0-.3-.02-.47-.07-.13-.04-.26-.09-.36-.15-.49-.37-.71-.8-.86-1.1-.06-.12-.11-.21-.16-.29-.14-.22-.24-.38-.33-.52.05.01.1.03.16.04.47.1,1,.19,1.54.21.55.03,1.11-.03,1.63-.23.24-.08.45-.22.63-.38,0,.05,0,.09,0,.14.01.29-.01.61-.09.95,0,.02,0,.04,0,.05l-.03.2c-.26,1.65-.56,3.56-1.8,6.09ZM137.5,189.81h-.02c-.41.17-.87.21-1.34.19-.48-.02-.98-.11-1.43-.2-.18-.04-.34-.11-.47-.2-.07-.05-.13-.1-.18-.16.58-.97.93-1.98,1.12-2.64.12.03.3.08.48.13.56.14,1.22.31,1.81.58h.03c.17.07.37.12.55.16.17.03.34.06.49.06.1,0,.19,0,.29,0-.16.7-.53,1.84-1.33,2.1ZM121.15,187.72c.35-.06.68-.09.96-.09.15.85.35,1.58.61,2.2-.08.04-.17.06-.23.06h-.04c-.41.05-.84.09-1.24.08-.38,0-1.26-.06-1.83-.99-.11-.23-.25-.73-.27-.86,0,0,.16.06.22.06.15,0,.77-.16.89-.22.3-.11.62-.19.93-.24ZM123.3,210.56s-.02-.64.52-1.17c.69-.24,1.46-.5,2.23-.76l.07-.02c-.57,2.77-1.75,3.75-2.2,4.03-.67-.61-.64-1.8-.62-2.08ZM124.17,213.37s.03-.05.04-.08c.22-.13.6-.4,1.01-.91-.09.2-.17.42-.23.65-.16.6-.2,1.28-.07,2.04h0c.22,1.63-.44,2.7-1.11,3.35-.29-.14-1.36-.75-2.45-2.17.48-.39.9-.77,1.27-1.13.65-.64,1.15-1.24,1.53-1.76ZM123.35,218.82c-.4.29-.72.42-.72.42-.18.07-.26.28-.19.46.03.08.09.14.16.18l2.22,1.29c-.34.38-2.64.9-4.31-.03-.17-.09-.6-.45-.88-.6-.17-.09-.13.36.01.5.72.68,1.59.98,2.38,1.09-.88.33-1.75.69-2.6,1.08-.67,0-3.1-.19-4.28-2.32,1.49-1.27,3.25-2.53,5.03-3.72h0c.26-.19.5-.37.73-.55.97,1.26,1.95,1.92,2.43,2.2ZM118.25,223.78c-1.39.73-2.64,1.55-3.59,2.46-.52-.09-2.18-.46-2.81-1.71.51-.88,1.29-1.8,2.26-2.71.16-.15.33-.3.49-.46.95,1.6,2.52,2.2,3.64,2.42ZM114.18,226.86s-.13.2-.16.23c-.51.64-.44,1.04-.23.8.13-.15,1.19-.98,1.24-1.02h0c.96-.96,2.28-1.82,3.76-2.57,4.23,1.18,4.54,4.22,4.55,4.93-.16.13-.33.28-.49.44-.24.22-.44.42-.61.6h0c-1.29,1.2-2.53,1.85-3.75,2.15-1.22.3-2.43.25-3.64.08-3.04-1.01-3.94-3.26-3.64-6.21.03-.33.14-.66.28-1,.73.99,1.97,1.42,2.69,1.59ZM160.54,259.65l-2.84-.02.07-.14c1.76-3.8,2.7-7.31,2.84-10.64.14-3.34-.54-6.5-2.02-9.61-.36-.78.52-1.26,1.02-1.53l.6-.32-3.27-4.15h-6.04c5.46-1.81,5.63-4.64,5.8-7.44.02-.43.05-.86.1-1.28h0c.17-1.27.61-1.54,1.12-1.86.88-.55,1.93-1.2,2.49-5.18.03-.19-.11-.37-.3-.4-.15-.02-.3.06-.36.19-.07.13-1.05,1.82-4.47,1.57-.1-.01-1.41-.13-2.85.72-.06-.43-.12-.84-.18-1.25,0,0,0-.02,0-.03-.09-2.1.9-2.17,1.03-2.17.05,0,.1,0,.16-.02.18-.07.27-.28.2-.46,0,0-.54-1.44-2.35-1.91-.11-.39-.23-.77-.35-1.14-.05-.16-.1-.32-.15-.47.01-.06.08-.38.19-.72.39.09,2.96.75,2.73,2.95-.02.19.12.37.32.39.04,0,.08,0,.11,0,0,0,1.85-.4,1.82-1.52.38-.22,1.04-.72.92-1.48.2-.12.37-.32.47-.55.12-.25.17-.54.12-.82,0-.07-.03-.13-.04-.19.16-.3.23-.58.23-.83s-.07-.49-.2-.68c-.12-.18-.29-.34-.5-.46-.45-.27-1.08-.39-1.66-.39-.11-.02-.55-.12-.72-.53l-.02-.04c-.46-.81-1.76-.92-1.76-.92h-.01c-.22-.03-2.5-.35-3.82-2.09l-.02-.03c-.22-.26-.49-.5-.8-.68-.3-.17-.63-.3-.99-.35h-.05c-.31,0-.7.02-1.09.17-.41.15-.8.43-1.08.94-.37.65-.5,1.46-.52,2.26-.02,1.09.19,2.18.36,2.79-.15.14-.29.29-.44.45-.13.15-.12.37.03.5.02.02.49.39.72,1.81,0,.19.02.38.04.58.02.24.05.49.05.78,0,.02,0,.04,0,.06.08.71.05,1.42-.08,2.11-.08.42-.19.83-.32,1.23-.03.06-.04.09-.04.09v.02s-.05.12-.08.2l-.2-.43h0c-.2-.4-.39-.81-.57-1.24-.15-.36-.3-.74-.42-1.11h0c-.06-.2-.12-.38-.18-.56h0s-.01-.05-.02-.07c-.05-.12-.09-.23-.14-.34-.09-.21-.2-.43-.31-.66.17-.25.3-.52.37-.83.13-.6.04-1.31-.38-2.16-1.76-3.52-5.19-3.94-5.85-3.99-.51-.32-.89-.5-1.07-.58-.83-1.74-.22-3.84-.05-4.33,1.01-.75,1.56-2.69,1.62-2.9.01-.04.02-.09.02-.14,0-.12-.08-.23-.18-.28,1.17-2.48,1.46-4.37,1.72-6l.03-.2c.1-.4.12-.78.11-1.13-.01-.33-.06-.63-.1-.91.48-.87.62-1.9.64-2.06.02-.11-.01-.23-.1-.31-.14-.14-.36-.14-.5,0-.08.08-.29.08-.49.08-.02,0-.05,0-.07,0,1.43-1.03,2.18-3.53,2.35-6.66.18-3.48-.34-7.76-1.42-11.66-.24-.86-.51-1.71-.8-2.52-2.98-8.22-1.34-13.89-1.29-14.07.03-.1.02-.21-.04-.3-.11-.16-.33-.2-.49-.1-5.13,3.43-10.52,8.54-14.49,13.96-3.5,4.77-5.9,9.8-6.08,14.16-.21,5.05,1.86,6.86,3.86,7.44,0,0-.52.26-.86.14h0c-.1-.03-.21-.06-.26-.11-.14-.14-.36-.14-.5,0-.08.08-.11.19-.1.3.01.14.06.71.27,1.31-1.4,2.31-2.19,4.39-2.8,5.97l-.15.4c-.12.09-.48.39-.71.84-.48-.86-1.02-1.79-1.52-2.63.06-.12.1-.21.11-.24.03-.07.03-.14.01-.22-.41-1.52-1.34-2.14-1.34-2.15-.02-.01-.04-.03-.06-.04-.05-.02-.11-.03-.16-.03-.03-.4-.27-2.72-2.11-3.66-.15-.11-1.28-.96-1.23-1.98.05-.23-.27-1.7-1.39-.7,0,0-.55.64-.35,1.66.05.25.13.51.24.75-.56-.43-1.27-1.19-2.08-2.49,0,0-1.03-1.49-1.38-.08,0,0-.13.49.1.93-.36.54-.9,3.09-.06,4.53.43.74,1.25,1.2,2.24,1.75.65.36,1.38.77,2.11,1.32.05.04.1.07.15.11-.01.06-.01.12,0,.18.37,1.21,1.26,1.99,1.4,2.11.06.05.14.09.22.09.06,0,.11,0,.17,0l.04.08c.24.47.52,1.01.67,1.6l.02.05c.14.4.27,1.08.42,1.89.55,2.91,1.41,7.42,4.32,7.96.37.11,1.38,0,1.74-.29.14-.11,1.07-1.04,1.6-1.97.64-1.13,1.32-2.61,1.92-4.04.41,1.24.99,2.69,1.81,4.38-.1.05-.21.1-.32.16h0c-1.29.65-2.02,1.01-2.61,1.28-.04-.02-.07-.04-.09-.05-.05-.03-.11-.05-.18-.06-2.19-.1-2.75,1.12-2.75,1.13l-.02.05s-.02.07-.01.11c-.48.26-.9.58-1.27.9-.48.42-.86.85-1.15,1.18v.02c-.18.22-.32.47-.41.73-.09.24-.14.5-.14.76-.17,1.18-.82,2.77-.89,2.93-.24.43-.45.6-.6.72-.15.12-.26.21-.33.39-.02.05-.03.1-.03.15,0,.12.05.23.13.33.11.13.29.25.51.32.2.07.44.12.68.12.05,0,.11,0,.16,0-.38,1.34-.64,2.64-.46,3.33.14.55.47.82,1.07.67.12-.03.23-.12.26-.26.04-.14.07-.3.11-.48.05-.24.11-.5.18-.75.08.04.19.07.33.09.05,0,.09.01.13.01.18,0,.33-.06.45-.16.15.12.33.17.52.18h0c.27,0,.47-.12.6-.27.14.08.31.11.5,0h.01c.17-.1.7-.55,1.11-1.57.23-.58.44-1.35.55-2.37.08-.59.25-1.1.46-1.55.16-.32.34-.61.53-.85.07.03.16.04.24.01,1.33-.41,1.78-1.53,1.8-1.6h0s.04-.26.05-.35c.29-.15.74-.34,1.28-.54-.24.22-.34.68-.34.73,0,0-.18,1.79.83,2.73-.34.44-.77.94-1.3,1.46-.62.61-1.4,1.27-2.35,1.95-1.84,1.23-5.38,3.97-5.41,4.04-.26.23-.51.46-.75.68-1.02.97-2.13,2.43-2.53,3.15-.31.59-.5,1.18-.56,1.76h0c-.15,1.8.08,3.46.83,4.73.68,1.15,1.77,1.96,3.36,2.24h.02c.18.03.35.04.53.06h-5.99v-35.09c-1.69-.71-2.51-2.14-3.24-3.48-.92-1.66-1.64-3.05-3.77-3.29v-.14h0v-24.66c-.07-.04-.14-.08-.21-.12,1.26-5.02,2.82-10.14,4.66-15.25,1.78-4.92,3.84-9.84,6.17-14.65,2.32-4.78,4.93-9.53,7.88-14.22,2.7-4.29,5.67-8.54,8.93-12.71,7.04,7.56,12.46,15.68,16.63,24.22,4.28,8.76,7.27,17.97,9.36,27.5,2.15,9.79,3.37,19.89,4.11,30.16.74,10.32.99,20.76,1.2,31.22l-.45,36.94Z"/>
      <path class="cls-1" d="M164.7,191.01c-.75-10.46-1.99-20.75-4.19-30.74-2.2-10-5.35-19.69-9.91-28.92-4.53-9.18-10.44-17.9-18.19-26.02-1.67-10.9-3.91-21.33-6.76-31.24-2.82-9.81-6.22-19.11-10.25-27.87-4-8.7-8.6-16.85-13.84-24.4-4.55-6.58-9.59-12.7-15.11-18.34l-3.5-3.47-3.5,3.47c-5.52,5.64-10.55,11.77-15.11,18.34-5.23,7.55-9.83,15.7-13.83,24.4-4.02,8.76-7.43,18.06-10.25,27.87-2.85,9.91-5.09,20.33-6.76,31.24-7.75,8.12-13.66,16.85-18.19,26.02-4.56,9.24-7.71,18.93-9.91,28.92-2.2,9.99-3.44,20.28-4.19,30.74C.47,201.42.22,212.03,0,222.65h0c0,9.01.15,18.3.3,27.58.07,4.57.15,9.13.2,13.67v.7s44.29-.26,44.29-.26c12.72,9.87,25.44,19.74,38.16,29.61l38.16-29.61,44.28.26v-.7c.06-4.54.14-9.11.21-13.67.15-9.28.3-18.57.3-27.57h0c-.22-10.64-.47-21.24-1.21-31.65ZM164.5,222.66c0,9.32-.15,18.44-.29,27.55-.07,4.33-.14,8.65-.2,12.98l-43.37-.26c-12.19,9.46-26.64,20.67-37.68,29.24-11.09-8.6-25.48-19.77-37.68-29.24l-43.37.26c-.06-4.33-.12-8.65-.2-12.98-.15-9.11-.29-18.23-.29-27.55h0c.21-10.56.47-21.12,1.21-31.55.74-10.39,1.98-20.62,4.16-30.54,2.18-9.9,5.29-19.48,9.79-28.6,4.5-9.12,10.38-17.78,18.1-25.84l.16-.16.03-.22c1.66-10.92,3.91-21.36,6.75-31.28,2.8-9.75,6.18-18.99,10.17-27.67,3.96-8.62,8.53-16.7,13.71-24.19,4.33-6.26,9.11-12.11,14.33-17.51.84-.87,2.04-2.08,3.13-3.13,1.07,1.05,2.31,2.28,3.24,3.25,5.18,5.38,9.91,11.18,14.22,17.4,5.19,7.49,9.75,15.57,13.71,24.19,3.99,8.68,7.37,17.92,10.17,27.67,2.85,9.92,5.09,20.36,6.75,31.28l.03.22.16.16c7.72,8.06,13.6,16.72,18.1,25.84,4.5,9.12,7.62,18.7,9.79,28.6,2.18,9.92,3.42,20.15,4.16,30.54.75,10.43,1,20.99,1.21,31.55h0Z"/>
      <path class="cls-1" d="M125.13,175.74s.42,0,.64.27c.03.06.36.41.81.41,0,0,.44,0,.68-.26.05-.06.02-.23-.05-.18-.33.27-.72.4-1.12-.07v-.02c-.33-.39-.87-.41-.9-.41-1.32-.07-1.63.91-1.53.93.09.02.43-.73,1.48-.67Z"/>
      <path class="cls-1" d="M123.85,175.62s.51-.87,1.6-.8h.01c.68,0,.89.25,1.08.52.42.61,1.2.68,1.69.48.09-.04.46-.39.38-.34-.54.34-1.43.17-1.73-.36-.2-.35-.52-.7-1.35-.7-1.31-.07-2,1.21-1.92,1.26.08.05.19.03.24-.06Z"/>
      <path class="cls-1" d="M125.48,177.33h0c.49-.07.88-.24,1.07-.34.18-.07.35-.46.27-.41-.42.28-.77.07-.8.02,0,0-.04-.06-.1-.13-.17-.19-.39-.45-.79-.52h0c-.7-.1-1.29.61-1.36.71l-.02.02c-.05.08-.03.19.06.24.79.5,1.69.4,1.69.4ZM125.41,176.47c.09.08.17.16.23.24.06.08.12.14.18.19-.12.03-.25.06-.39.08,0,0-.02,0-.07,0,.06-.08.09-.18.09-.29,0-.08-.02-.15-.05-.22ZM124.57,176.89c-.13-.04-.27-.09-.41-.16.11-.11.28-.26.48-.35-.07.08-.1.19-.1.31,0,.07.01.14.04.2Z"/>
      <path class="cls-1" d="M41.07,175.48s-.57.02-.89.41v.02c-.41.47-.8.34-1.13.07-.07-.05-.1.12-.05.18.23.26.67.26.68.26.44,0,.77-.35.81-.41.22-.27.64-.27.64-.27,1.04-.06,1.39.69,1.48.67.09-.02-.21-1-1.53-.93Z"/>
      <path class="cls-1" d="M40.73,174.42c-.84,0-1.15.35-1.35.7-.31.53-1.2.7-1.73.36-.08-.05.29.31.38.34.48.2,1.26.13,1.69-.48.19-.27.4-.52,1.08-.52h0c1.1-.07,1.6.8,1.6.8.05.08.16.11.24.06.08-.05-.61-1.33-1.92-1.26Z"/>
      <path class="cls-1" d="M42.5,176.67c-.08-.1-.66-.81-1.36-.71h0c-.4.07-.63.33-.79.52-.06.07-.1.12-.1.13-.03.06-.38.26-.8-.02-.08-.05.09.33.27.41.18.09.58.26,1.07.33h0s.9.1,1.69-.4c.08-.05.11-.16.06-.24l-.02-.02ZM40.81,176.98c-.14-.02-.27-.05-.39-.08.06-.05.12-.11.18-.19.07-.07.14-.16.23-.24-.03.06-.04.14-.04.22,0,.12.03.22.09.29-.05,0-.07,0-.07,0ZM41.68,176.89c.02-.06.04-.13.04-.2,0-.12-.04-.23-.1-.31.2.09.37.24.48.35-.14.07-.28.12-.41.16Z"/>
      <path class="cls-1" d="M40.29,239.88c.47.87,2.2,2.53,2.93.8-.61-.18-1.47-.53-1.6-1.33,2.07-.6,4.29,1.36,5.35,2.13.49-.43.85-.74,1.31-1.33-1.94-2.01-6.49-3.67-8-.27Z"/>
      <path class="cls-1" d="M52.79,245.6c-.43,1.41.87,3.44.21,5.42-1.06.03-2.28-.77-2.18-1,.65-1.43,3.33-6.88-.04-6.91-.79,0-1.36.5-1.91,1.26,1.22.23,1.82.58,1.84,1.48.05,1.49-1.19,3.81-1.84,4.65.86,1.16,2.14,2.23,3.85,2.59,5.28-1.36-.64-8.16,3.31-8.16v8.27s2.13-1.4,2.13-1.4l.05-8.68c-1.4,0-4.47-.44-5.43,2.48Z"/>
      <path class="cls-1" d="M126.99,250.05v-7.04s-2.22,1.51-2.22,1.51l.04,5.85c0,1.8,1.26,2.59,2.23,2.58.95-.52,1.41-.99,1.69-2.21-.57.51-1.73.72-1.73-.7Z"/>
      <path class="cls-1" d="M135.09,243.14l-2.17,1.49c.86.03,1.53.28,1.53.81l-.02,7.75,2.21-1.52.02-6.82,2.89.04-.05,8.35,2.2-1.45-.03-8.68-6.58.03Z"/>
      <path class="cls-1" d="M18.64,250.35l-2.91-1.81v-3.92c0-2.11-2.66-1.91-3.43-.3,1.43,0,1.19.93,1.23,1.63v2.34s-1.11.86-1.6,1.74c.81.62,1.52,1.64,1.62,2.91l2.15-1.47.05-.97c1.1.73,2.05,1.5,2.91,2.54l2.16-1.48v-8.59s-2.19,1.51-2.19,1.51l.02,5.87Z"/>
      <path class="cls-1" d="M39.77,244.86h5.24l-.04,6.54c-.49-.13-1.01-.48-1.24-1.16l-1.41.96c.48,1.56,1.81,1.91,2.66,1.88.87-.33,2.19-1.34,2.19-2.39v-7.6s-5.71.02-5.71.02l-1.69,1.75Z"/>
      <path class="cls-1" d="M65.06,244.45l-.02,6.94c-1.41-.17-2.86-.84-3.65-2.28,0-.8,1.77-1.49,2.37-1.89-1.38-.62-2.52-1.16-2.64-2.63.92-.86,2.39.47,2.66,1.15,1.1-.78.85-2.16-.46-2.55-1.48-.45-2.91,1.35-3.66,2.62.24,1.1.99,1.65,1.73,2.2-.72.18-1.54.73-1.73,1.71.5,1.59,2.24,3.44,4.99,3.25.88-.59,1.75-1.2,2.6-1.72l-.02-8.34-2.17,1.53Z"/>
      <path class="cls-1" d="M77.76,243.11l-1.67,1.75h6.17s0,2.8,0,2.8c-1.29-1.71-3.15-1.95-4.24-1.02-1.59,1.36-2.08,4.77.4,6.37,1.48-.09,2.08-1.26,2.12-2.02-1.32.62-3.04-1.97-2.27-3.68,2.88.31,3.83,4,4.01,5.79l2.16-1.6v-8.39s-6.67,0-6.67,0Z"/>
      <path class="cls-1" d="M106.16,243.08l-1.71,1.79h5.65v6.39c-1.5-.09-3.31-1.02-3.85-2.18-.86-1.86,2.4-2.21,1.47-.52-.26.48,1.32-.14,1.42-1,.09-.82-.74-1.35-1.79-1.27-1.15.09-2.4,1.19-2.63,2.25-.55,2.51,1.9,4.41,4.65,4.41l2.94-1.98-.04-7.87-6.1-.02Z"/>
      <path class="cls-1" d="M121.27,249.6l.74-.5c.45-.26.49-.75.49-1.09v-5.1s-2.21,1.55-2.21,1.55l.03,5.25c-.84.39-1.59.85-2.19,1.41-.04.04-1.9-1.02-2.28-2.1,1.47-1.55,2.69-3.12,2.01-5.08-.98-1.41-2.76-.86-3.43.49,1.35-.06,1.65.98,1.71,1.22.92,3.18-3.17,3.55-1.27,5.57.73.73,1.76,1.41,2.98,1.71,1.55-2.2,4.12-2.27,3.42.11,2.39.04,2.65-3.54,0-3.45Z"/>
      <path class="cls-1" d="M29.98,245.82h-.64c-.55,0-.89-.61-.98-.96h2.44s1.62-1.76,1.62-1.76h-3.29s-2.37,2.5-2.37,2.5v5.39c-.86-.37-1.84-.61-2.2-1.47,1.93-1.26,2.3-6.09.52-6.47-.88-.19-2.04.28-2.87,1.49,3.9-.46,1.74,4.98.39,6.2.86,1.02,1.74,1.79,2.97,2.28,1.65-1.22,3.29-2.45,3.17-5.45h1.11s-.01,5.46-.01,5.46l2.24-1.51-.03-5.71h-2.07Z"/>
      <path class="cls-1" d="M100.81,251.11c-1.27.11-2.55-.77-2.69-1.41,1.04-1.3,2.46-2.67,2.14-5.58-1.53-2.33-3.85-.43-5.08.98.37,1.29,2.33,2.08,2.94.49-.61,0-1.9-.73-1.22-1.22,3.92.92-.18,4.9-.98,6.31.78.88,2.1,2.31,4.91,2.3l2.18-1.46v-8.72l-2.2,1.47v6.85Z"/>
      <path class="cls-1" d="M88.92,238.08c-.91,1.32-3.02,2.06-4.74,1.95-.63-.35-1.05-.98-1.39-1.67-.81.19-1.39.63-1.39,1.67,1.97,3.03,7.55.82,7.53-1.95Z"/>
      <polygon class="cls-1" points="69.76 243.09 68.1 244.86 72.38 244.86 72.38 253.06 74.57 251.5 74.55 243.11 69.76 243.09"/>
      <path class="cls-1" d="M131.46,250.05v-7.04s-2.22,1.51-2.22,1.51l.04,5.85c0,1.8,1.26,2.59,2.23,2.58.95-.52,1.41-.99,1.69-2.21-.57.51-1.73.72-1.73-.7Z"/>
      <path class="cls-1" d="M150.16,249.6l.74-.5c.45-.26.49-.75.49-1.09v-5.1s-2.22,1.55-2.22,1.55l.03,5.25c-.84.39-1.59.85-2.19,1.41-.04.04-1.9-1.02-2.28-2.1,1.47-1.55,2.69-3.12,2.01-5.08-.98-1.41-2.76-.86-3.43.49,1.35-.06,1.65.98,1.71,1.22.92,3.18-3.17,3.55-1.27,5.57.73.73,1.76,1.41,2.98,1.71,1.55-2.2,4.12-2.27,3.42.11,2.39.04,2.65-3.54,0-3.45Z"/>
      <path class="cls-1" d="M91.5,244.45l-.02,6.94c-1.41-.17-2.86-.84-3.65-2.28,0-.8,1.77-1.49,2.37-1.89-1.38-.62-2.52-1.16-2.64-2.63.92-.86,2.39.47,2.66,1.15,1.1-.78.85-2.16-.46-2.55-1.48-.45-2.91,1.35-3.66,2.62.24,1.1.99,1.65,1.73,2.2-.72.18-1.54.73-1.73,1.71.5,1.59,2.24,3.44,4.99,3.25.88-.59,1.75-1.2,2.6-1.72l-.02-8.34-2.17,1.53Z"/>
      <polygon class="cls-1" points="34.06 243.09 32.4 244.86 36.69 244.86 36.69 253.06 38.87 251.5 38.86 243.11 34.06 243.09"/>
      <polygon class="cls-1" points="141.67 237.01 139.5 238.43 139.5 241.42 141.67 240 141.67 237.01"/>
    </g>
  </g>
</svg>