<?xml version="1.0" encoding="UTF-8"?>
<svg id="Layer_2" xmlns="http://www.w3.org/2000/svg" version="1.1" viewBox="0 0 165.9 294">
  <!-- Generator: Adobe Illustrator 29.7.1, SVG Export Plug-In . SVG Version: 2.1.1 Build 8)  -->
  <defs>
    <style>
      .st0 {
        fill: #fff;
      }
    </style>
  </defs>
  <g id="Layer_2-2">
    <g>
      <path class="st0" d="M61,208.1v19h4.4v-19h-4.4ZM61.7,208.8h3v17.6h-3s0-17.6,0-17.6Z"/>
      <path class="st0" d="M98.8,188.6h0v-13.2h-3.9v13.2h3.9ZM95.7,176.1h2.4v11.8h-2.4v-11.8Z"/>
      <path class="st0" d="M84.5,131.2c.4-.4.7-1,.7-1.6s-.2-1.2-.7-1.6c-.4-.4-1-.7-1.6-.7s-1.2.2-1.6.7c-.4.4-.7,1-.7,1.6s.2,1.2.7,1.6c.4.4,1,.6,1.6.6s1.2-.2,1.6-.6ZM81.5,129.6c0-.4.2-.8.4-1.1.3-.3.7-.4,1.1-.4s.8.2,1.1.4.4.6.4,1.1-.2.8-.4,1.1c-.3.3-.7.4-1.1.4s-.8-.2-1.1-.4-.4-.6-.4-1.1Z"/>
      <path class="st0" d="M100.9,208.1h-.3v19h4.4v-19h-4.1ZM104.2,226.4h-2.9v-17.6h2.9v17.6Z"/>
      <path class="st0" d="M67.1,175.4v13.2h3.9v-13.2h-3.9ZM67.8,176.1h2.5v11.8h-2.5v-11.8Z"/>
      <path class="st0" d="M157.1,161c-2.1-9.6-5.1-18.9-9.5-27.8-4.3-8.9-10-17.3-17.4-25.2l-.6-.6-.5.6c-3.5,4.4-6.7,8.9-9.5,13.5-3,4.7-5.6,9.5-8,14.4-2.3,4.9-4.4,9.8-6.2,14.8-1.8,4.9-3.3,9.9-4.6,14.8-.4-.4-.7-1-1.1-2-.2-.4-.3-.8-.6-1.1,0,.1.1.2.2.4h0c1.3-4.6,2.8-9.5,4.6-14.3,1.7-4.5,3.6-9.1,5.7-13.4,2.5-5.2,5.3-10.3,8.6-15.3,3.1-4.8,6.5-9.6,10.3-14.3l.2-.2v-.3c-1.7-10.6-3.9-20.7-6.7-30.3-2.7-9.4-6-18.4-9.9-26.8-3.9-8.5-8.4-16.5-13.5-23.8-4.5-6.5-10.1-13.4-15.7-18.9-5.6,5.2-11.4,12.6-15.7,18.9-5.1,7.4-9.6,15.3-13.5,23.8-3.9,8.4-7.2,17.4-9.9,26.8-2.8,9.6-5,19.7-6.7,30.3v.3s.2.2.2.2c3.8,4.7,7.2,9.5,10.3,14.3,3.2,5.1,6.1,10.2,8.6,15.3,2.1,4.4,4,8.9,5.7,13.4,1.8,4.8,3.3,9.6,4.6,14.3h0c0-.1.1-.3.2-.4-.2.4-.4.7-.6,1.1-.4,1-.7,1.6-1.1,2-1.2-4.9-2.8-9.8-4.5-14.8-1.8-5-3.9-9.9-6.2-14.8-2.3-4.8-5-9.6-8-14.4-2.8-4.6-6-9-9.5-13.5l-.5-.6-.6.6c-7.4,7.8-13.1,16.3-17.4,25.2s-7.4,18.2-9.5,27.8c-2.2,9.9-3.4,20-4.1,30.4-.7,10.3-1,20.8-1.2,31.3,0,12.8.3,25.6.5,38.4l42-.2,37,28.7,37-28.7,42,.2c.2-12.8.5-25.6.5-38.4-.2-10.5-.5-21-1.2-31.3-.7-10.3-2-20.5-4.1-30.4h0ZM101.2,167.6v23.6h-10.6v-8.3h.1v-2.3c.3-.2.6-.4.9-.6.6-.6,1.1-1.5,1.2-2.8,0-.4,0-.9,0-1.4h0c-.4-2.5.7-2.9,1.5-3.3h0s0-.7,0-.7c-1.2-.6-2.3-.6-3.2-.4-.8.2-1.5.7-2,1.2.6-.8,1.2-1.4,1.6-1.6v-.6c-.5-.5-1.1-.8-1.7-1-.6-.1-1.2,0-1.8.1-.6.2-1.1.6-1.5,1-.1.1-.3.3-.4.5,0-.6-.2-1.2-.4-1.7-.3-.7-.7-1.4-1.2-1.9h17.5ZM75.9,182.2v-1.1h14.1v1.1h-14.1ZM89.9,183v8.1h-2.1v-8.1h2.1ZM87.1,182.9v8.3h-3.5v-8.3h3.5ZM82.8,182.9v8.3h-3.9v-8.3h3.9ZM78.2,183v8.1h-2.1v-8.1h2.1ZM79.1,180.4s0,0,0,0c.5-.4,1-.9,1.3-1.7h0c.1-.5.2-1.1.2-1.6,0-1,.2-2.1.7-2.2.2,0,.6,0,.8,0,.2,0,.3.1.4.3h.6c0-.1.2-.2.4-.3.3,0,.6,0,.8,0,.5.2.6,1.2.7,2.2,0,.6.1,1.1.2,1.6h0c.3.8.7,1.3,1.3,1.7,0,0,0,0,0,0,0,0-7.6,0-7.6,0ZM89.3,180.3c-.2,0-.4,0-.6,0-.6,0-1.2-.2-1.6-.5-.4-.3-.7-.7-1-1.3-.1-.4-.2-.9-.2-1.5-.1-1.3-.2-2.6-1.2-2.8h0c-.3,0-.8,0-1.1,0-.2,0-.3.1-.5.2-.2-.1-.3-.2-.5-.2-.4-.1-.8,0-1.1,0h0c-1,.3-1.1,1.6-1.2,2.8,0,.5,0,1.1-.2,1.5-.2.6-.6,1-1,1.3-.4.3-1,.4-1.6.5-.2,0-.4,0-.6,0-.7,0-1.3-.3-1.8-.8-.5-.5-.9-1.3-.9-2.4,0-.4,0-.8,0-1.2.3-2.3-.4-3.2-1.2-3.6.7-.2,1.4-.2,2,0,1,.3,1.7.9,2,1.6.6,1.1.5,2.1.2,2.7-.1.4-.3.6-.5.8-.2.2-.3.3-.4.3h0s0,0,0,0h0c0,0,0,0,0,0h0c0,0-.3.6-.3.6,0,0,0,0,.1,0,.1,0,.3.1.6.1.8,0,1.9-.2,2.2-2.4.1-1-.2-2-.7-2.9-.6-1-1.4-1.9-1.9-2.4.4-.3.7-.4,1.1-.5.5-.1,1,0,1.4.1.4.2.9.5,1.2.8.4.5.8,1.1.9,1.8h.7c-.1-1.2,0-2.2.2-3,.3-.8.7-1.5,1.5-2.1.7.5,1.1,1.2,1.4,1.9.3,1,.4,2.1.3,3.1h.7c.2-.6.5-1.2.9-1.7.3-.4.8-.7,1.2-.8.4-.2.9-.2,1.4-.1.4,0,.7.2,1.1.5-.6.5-1.4,1.3-1.9,2.4-.5.9-.8,1.9-.7,2.9.2,2.3,1.4,2.5,2.2,2.4.3,0,.5-.1.6-.1,0,0,0,0,.2,0l-.3-.5h0c0-.1-.2-.2-.4-.4-.2-.2-.4-.5-.5-.8-.2-.7-.3-1.6.2-2.7.3-.7,1.1-1.3,2-1.6.6-.2,1.3-.2,2,0-.8.5-1.5,1.3-1.2,3.6,0,.5,0,.9,0,1.2,0,1.1-.4,1.9-.9,2.4-.5.5-1.1.7-1.8.8h0ZM77.3,173.7c.4.7.6,1.5.5,2.3-.1,1.2-.5,1.6-.9,1.8.2-.2.4-.6.6-1,.3-.8.4-1.8-.2-3.1ZM88.4,176.7c.2.4.4.7.6,1-.4-.1-.8-.6-.9-1.8,0-.8.2-1.6.5-2.3-.5,1.2-.5,2.3-.2,3.1h0ZM89.9,177.7s0,0,0,0h0c0,0,0,0,0,0ZM63.2,148c-1.7-4.6-3.6-9.2-5.8-13.6-2.5-5.2-5.4-10.4-8.6-15.5-3.1-4.8-6.5-9.6-10.2-14.2,1.6-10.4,3.8-20.3,6.6-29.8,2.7-9.4,6-18.3,9.8-26.6,3.9-8.4,8.3-16.3,13.4-23.6,4.4-6.4,9.2-12.3,14.6-17.7,5.3,5.4,10.2,11.4,14.6,17.7,5.1,7.3,9.5,15.2,13.4,23.6,3.8,8.4,7.1,17.2,9.8,26.6,2.7,9.4,4.9,19.4,6.6,29.8-3.8,4.7-7.2,9.4-10.2,14.2-3.2,5.1-6.1,10.3-8.6,15.5-2.1,4.4-4.1,9-5.8,13.6-1.6,4.4-3.1,8.8-4.3,13.1v-8l-2.5-4.1c0-.2,0-.4.1-.7,1.1-5.2,5-22.8-2.5-50.3h0c-1.4-5-4-17.1-4.2-26.9-.1-4.9.3-9.2,1.7-11.6.2-.2.3-.5.5-.7.2-.3.5-.5.8-.8l-.6-.8h0c-.7-.3-1.4-.9-1.9-1.7-.6-.8-1-1.9-1.2-3.1h0c-1.8-8.6-3-15.1-3.7-19.9-.7-4.7-.8-7.6-.5-9.1h0c0-.7,0-1.2.2-1.8.1-.5.3-1,.6-1.5v-.2c.1,0-1.7-6.9-1.7-6.9h-1l-1.8,6.9v.2c.4.5.6,1,.7,1.5.1.5.2,1.1.2,1.7h0c.3,1.6.2,4.5-.5,9.2-.7,4.7-1.8,11.2-3.7,19.9h0c-.2,1.2-.7,2.3-1.2,3.1-.6.8-1.2,1.4-1.9,1.7h0s-.6.8-.6.8c.3.2.5.5.8.8.1.2.3.5.5.7,1.4,2.4,1.8,6.7,1.7,11.6-.3,9.8-2.8,21.9-4.2,26.9h0c-7.5,27.4-3.6,45.1-2.5,50.3,0,.2,0,.5.1.7l-2.5,4.1v8c-1.2-4.3-2.6-8.7-4.3-13.1h0ZM82.7,23.4c0-.7,0-1.3-.3-1.9-.2-.5-.4-1.1-.6-1.6l1.2-4.5,1.2,4.5c-.3.5-.5,1-.6,1.6-.2.6-.2,1.2-.3,1.9-.3,1.6-.2,4.7.5,9.4.3,1.8.6,3.9,1,6.3h-3.6c.4-2.4.8-4.5,1-6.3.7-4.8.8-7.8.5-9.4h0ZM84.1,40.7c-.2-.4-.4-.8-.8-1h0s1.6,0,1.6,0h0c-.4.4-.6.7-.8,1.1h0ZM85,40.2c0,.6.2,1.2.3,1.8h-1c0-.4,0-1.2.6-1.8h0ZM83.8,42h-1.7c0-.4,0-1.4.9-2,.8.6.9,1.5.9,2ZM82.7,39.6h0c-.4.3-.7.7-.8,1.1-.2-.4-.4-.7-.8-1h0c0,0,1.6,0,1.6,0h0ZM81.6,42h-1c.1-.6.2-1.2.3-1.8.6.6.7,1.4.6,1.8h0ZM81.7,42.5h3.7v.4c0,0-4.9,0-4.9,0v-.4h1.2ZM83,43.8c1.1.7,1.2,1.9,1.2,2.5h-2.5c0-.6.1-1.8,1.2-2.5h0ZM81.4,44.7c-.2-.4-.4-.8-.8-1.2h1.7c-.4.3-.7.8-.8,1.2ZM83.7,43.6h1.7c-.4.3-.7.8-.8,1.2-.2-.4-.4-.8-.8-1.2ZM85.7,44.1c.1.7.3,1.5.4,2.2h-1.3c0-.5,0-1.5.9-2.2ZM81.1,46.3h-1.3c.2-.8.3-1.5.4-2.2.8.7.9,1.7.9,2.2ZM83,47.1h3.3v.6c.1,0-6.8,0-6.8,0v-.6h3.4,0ZM83,48.6c1.7.9,1.8,2.7,1.7,3.3h-3.4c0-.7,0-2.4,1.7-3.3h0ZM80.9,49.9c-.2-.5-.5-1-1-1.4h2c-.5.4-.8.9-1,1.4h0ZM84.1,48.5h2c-.5.4-.8.9-1,1.4-.2-.5-.5-1-1-1.4ZM86.7,48.9c.2,1,.4,2,.6,3h-1.9c0-.6,0-2.1,1.2-3ZM80.5,51.9h-1.9c.2-1,.4-2,.6-3,1.2.9,1.3,2.4,1.2,3ZM83,52.8h4.5c0,.2,0,.4.1.6h-9.3c0-.2,0-.4.1-.6h4.5ZM83,54.3h4.9c.3.7.6,1.4,1,1.9.3.5.7.9,1.1,1.3h-14.1c.4-.3.8-.8,1.1-1.3.4-.6.7-1.2,1-1.9h4.9,0ZM90.6,58.3c-.1.2-.2.4-.4.5,0,0-.2.2-.2.2-.2.2-.5.3-.8.4-.3.2-.7.3-1,.6-.5.4-.9.8-1.1,1.2-.3-.7-.8-1.4-1.7-1.9l-.3-.2-.3.2c-1,.6-1.5,1.5-1.8,2.2-.3-.7-.8-1.5-1.8-2.2l-.3-.2-.3.2c-.9.6-1.4,1.3-1.7,1.9-.2-.4-.6-.8-1.1-1.2-.4-.3-.7-.4-1-.6-.3-.1-.5-.2-.8-.4,0,0-.2-.2-.2-.2-.1-.2-.2-.4-.4-.5h15.3ZM87.1,67.5c0,0,.2-.1.3-.2.4-.4.7-1,.7-1.6s-.2-1.2-.7-1.6-.2-.2-.4-.3h.7s0,0,0,0h1c-.2,1.1-.3,2.4-.3,3.7h-1.2ZM88.2,68.3c0,.7,0,1.5,0,2.2-.8-.8-1-1.8-1-2.2h1.1,0ZM77.6,67.5c0-1.3-.2-2.5-.3-3.7h1s.7,0,.7,0c-.1,0-.2.2-.4.3-.4.4-.7,1-.7,1.6s.2,1.2.7,1.6.2.2.3.2h-1.2,0ZM78.7,68.3c0,.5-.2,1.4-1,2.2,0-.8,0-1.5,0-2.2h1.1,0ZM78.6,65.7c0-.4.2-.8.4-1.1.3-.3.7-.4,1.1-.4s.8.2,1.1.4c.3.3.4.7.4,1.1s-.2.8-.4,1.1c-.3.3-.7.4-1.1.4s-.8-.2-1.1-.4c-.3-.3-.4-.7-.4-1.1ZM79.4,63c0-.6.2-1.8,1.5-2.6,1.2.9,1.4,2.1,1.5,2.6h-2.9ZM82.4,68.3c0,.5-.2,1.7-1.4,2.5-1.2-.8-1.4-2-1.4-2.5h2.8ZM81.4,67.5c0,0,.2-.1.3-.2.4-.4.7-1,.7-1.6s-.2-1.2-.7-1.6-.2-.2-.4-.3h3.3c-.1,0-.3.2-.4.3-.4.4-.7,1-.7,1.6s.2,1.2.7,1.6.2.2.3.2h-3ZM83.6,63c0-.6.2-1.8,1.5-2.6,1.2.9,1.4,2.1,1.5,2.6h-2.9ZM86.3,68.3c0,.5-.2,1.7-1.4,2.5-1.2-.8-1.4-2-1.4-2.5h2.8ZM85.8,67.2c-.4,0-.8-.2-1.1-.4-.3-.3-.4-.7-.4-1.1s.2-.8.4-1.1c.3-.3.7-.4,1.1-.4s.8.2,1.1.4c.3.3.4.7.4,1.1s-.2.8-.4,1.1c-.3.3-.7.4-1.1.4ZM87.7,63c0-.2,0-.5.2-.8.2-.4.4-.8,1-1.2.2-.2.4-.2.6-.3-.2.7-.5,1.5-.6,2.3h-1.1ZM77.1,61c.5.4.8.8,1,1.2,0,.3.2.5.2.8h-1.1c-.2-.8-.4-1.6-.6-2.3.2,0,.4.2.6.4ZM77.6,71.7c.8-.5,1.2-1.1,1.5-1.7.3.6.8,1.2,1.5,1.7l.3.2.3-.2c.9-.6,1.4-1.2,1.6-1.9.3.6.8,1.3,1.6,1.9l.3.2.3-.2c.8-.5,1.2-1.1,1.5-1.7.3.6.8,1.2,1.5,1.7.3,9.8,2.8,21.7,4.2,26.7h0c2.7,9.7,3.9,18.2,4.3,25.3h-.8c0,.9-1.6,1-3.2,1.1-2.3.2-5.1.4-6.1,2.8-.3-.4-.6-.7-1-1.1,0,0-.2-.2-.2-.3,1.1-1.2,3.1-1.5,4.8-1.8,2.2-.3,4-.6,4.1-2.4h0c.5,0,.8-.3,1.1-.6.4-.5.6-1.2.6-1.8s-.2-1.1-.5-1.8c-.3-.6-.8-1.3-1.4-1.9l-.3-.4-.3.4c-.5.6-1,1.3-1.3,1.9-.3.6-.5,1.2-.5,1.7s.2,1.3.6,1.8c.3.3.7.6,1.2.7,0,1-1.5,1.2-3.3,1.5-1.9.3-4,.6-5.3,2-.2-.2-.3-.4-.5-.7,0-1,1.3-1.2,2.3-1.4,1.2-.2,2.3-.4,2.6-1.5.3-.1.6-.3.8-.6.4-.5.6-1.2.6-1.8s-.2-1.1-.5-1.8c-.3-.6-.8-1.3-1.3-1.9l-.3-.4-.3.4c-.5.6-1,1.3-1.3,1.9-.3.6-.5,1.2-.5,1.7s.2,1.3.6,1.8c.3.3.7.6,1.3.7-.3.3-1,.4-1.6.5-1,.2-2.1.4-2.7,1.1-.1-.4-.2-.9-.3-1.5.4-.1.8-.3,1-.7.4-.5.6-1.2.6-1.8s0-.2,0-.3h0c.1-3.5,2.1-3.8,3.7-3.9,1.2-.2,2.3-.3,2.7-1.3.5,0,.8-.3,1.1-.6.4-.5.6-1.2.6-1.8s-.2-1.1-.5-1.8c-.3-.6-.8-1.3-1.3-1.9l-.3-.4-.3.4c-.5.6-1,1.3-1.3,1.9-.3.6-.5,1.2-.5,1.7s.2,1.3.6,1.8c.2.3.6.5,1,.6-.4.3-1,.4-1.7.4-1.7.2-3.6.4-4.3,3.1h0c-.2-1.6.6-2.2,1.2-2.6.4-.3.7-.5.9-.9.4-.1.7-.3,1-.6.4-.5.6-1.2.6-1.8s-.2-1.1-.5-1.8c-.3-.6-.8-1.3-1.3-1.9l-.3-.4-.3.4c-.5.6-1,1.3-1.3,1.9-.3.6-.5,1.2-.5,1.7s.2,1.3.6,1.8c.2.3.6.5,1,.6,0,0-.2.1-.2.2h0c-.6.4-1.3.9-1.5,2h0v-7.4c.4-1.6,1.8-1.7,3-1.8,1.2-.1,2.2-.2,2.6-1.2.4-.1.6-.3.9-.6.4-.5.6-1.2.6-1.8s-.2-1.1-.5-1.8c-.3-.6-.8-1.3-1.3-1.9l-.3-.4-.3.4c-.5.6-1,1.3-1.3,1.9-.3.6-.5,1.2-.5,1.7s.2,1.3.6,1.8c.2.3.6.5,1,.6-.3.1-.8.2-1.3.2-1,0-2.1.2-2.9.9v-.8c.4-.1.8-.3,1.1-.7.4-.5.6-1.2.6-1.8s-.2-1.2-.5-1.8c-.2-.4-.4-.8-.7-1.2,1.5-.7,1.9-1.5,2.4-2.2.2-.3.4-.5.6-.8.2-.1.4-.3.6-.4.4-.5.6-1.2.6-1.8s-.2-1.1-.5-1.8c-.3-.6-.8-1.3-1.3-1.9l-.3-.4-.3.4c-.5.6-1,1.3-1.3,1.9-.3.6-.5,1.2-.5,1.7s.2,1.3.6,1.8c.3.4.8.6,1.3.7h0c-.5.7-.8,1.3-2,1.9v-10c.4-.1.8-.3,1.1-.7.4-.5.6-1.2.6-1.8s-.2-1.2-.5-1.8c-.3-.6-.7-1.2-1.1-1.8v-1.3c.5-.1.8-.5,1.1-.9.4-.6.6-1.5.6-2.3s-.2-1.4-.5-2.3c-.3-.9-.8-1.8-1.3-2.6l-.4-.6-.4.6c-.5.8-1,1.7-1.3,2.6-.3.8-.5,1.7-.5,2.3s.2,1.6.6,2.3c.3.4.7.8,1.2.9v1.2c-.5.6-.9,1.2-1.2,1.8-.3.7-.5,1.3-.5,1.8s.2,1.3.6,1.8c.3.3.6.6,1.1.7v10c-1.3-.6-1.6-1.3-2-1.9h0c.6,0,1-.3,1.3-.7.4-.5.6-1.2.6-1.8s-.2-1.1-.5-1.7c-.3-.6-.8-1.3-1.3-1.9l-.3-.4-.3.4c-.5.6-1,1.2-1.3,1.9-.3.6-.5,1.2-.5,1.8s.2,1.3.6,1.8c.2.2.3.3.6.4.2.2.4.5.6.8.5.8.9,1.5,2.3,2.2-.3.4-.5.8-.7,1.2-.3.7-.5,1.3-.5,1.8s.2,1.3.6,1.8c.3.3.6.6,1.1.7v.8c-.8-.7-1.9-.8-2.9-.9-.5,0-1,0-1.3-.2.4-.1.8-.3,1-.6.4-.5.6-1.2.6-1.8s-.2-1.1-.5-1.7c-.3-.6-.8-1.3-1.3-1.9l-.3-.4-.3.4c-.5.6-1,1.2-1.3,1.9-.3.6-.5,1.2-.5,1.8s.2,1.3.6,1.8c.2.2.5.4.9.6.4,1,1.4,1.1,2.6,1.2,1.2.1,2.6.2,3,1.8v7.3h0c-.2-.9-.9-1.4-1.5-1.8h0c0,0-.2-.1-.2-.2.4-.1.8-.3,1-.6.4-.5.6-1.2.6-1.8s-.2-1.1-.5-1.7c-.3-.6-.8-1.3-1.3-1.9l-.3-.4-.3.4c-.5.6-1,1.2-1.3,1.9s-.5,1.2-.5,1.8.2,1.3.6,1.8c.2.3.6.5,1,.6.2.4.6.7.9.9.6.4,1.3.9,1.2,2.3,0,0,0,.1,0,.2-.7-2.6-2.6-2.8-4.2-3-.7,0-1.3-.2-1.7-.4.4-.1.8-.3,1-.6.4-.5.6-1.2.6-1.8s-.2-1.1-.5-1.7c-.3-.6-.8-1.3-1.3-1.9l-.3-.4-.3.4c-.5.6-1,1.2-1.3,1.9s-.5,1.2-.5,1.8.2,1.3.6,1.8c.3.3.6.5,1.1.6.4,1.1,1.5,1.2,2.7,1.3,1.6.2,3.5.4,3.7,3.7,0,.2,0,.4,0,.6,0,.6.2,1.3.6,1.8.3.3.6.6,1.1.7,0,.6-.1,1.1-.3,1.5-.6-.7-1.7-.9-2.7-1.1-.7-.1-1.3-.2-1.6-.5.6,0,1-.3,1.3-.7.4-.5.6-1.2.6-1.8s-.2-1.1-.5-1.7c-.3-.6-.8-1.3-1.3-1.9l-.3-.4-.3.4c-.5.6-1,1.2-1.4,1.9-.3.6-.5,1.2-.5,1.8s.2,1.3.6,1.8c.2.2.5.4.8.6.2,1.1,1.4,1.3,2.6,1.5,1,.2,2.3.4,2.3,1.4-.2.2-.3.5-.5.7-1.3-1.4-3.4-1.7-5.3-2-1.7-.3-3.2-.5-3.3-1.5.5,0,.9-.3,1.2-.7.4-.5.6-1.2.6-1.8s-.2-1.1-.5-1.7c-.3-.6-.8-1.3-1.3-1.9l-.3-.4-.3.4c-.5.6-1,1.2-1.3,1.9s-.5,1.2-.5,1.8.2,1.3.6,1.8c.3.3.6.5,1.1.6h0c0,1.8,1.9,2.1,4.1,2.4,1.8.3,3.8.6,4.8,1.8,0,0-.2.2-.2.3-.3.4-.7.7-1,1.1-1.1-2.4-3.8-2.6-6.1-2.8-1.7-.1-3.1-.3-3.2-1.2h-.8c.4-7,1.6-15.5,4.3-25.2h0c1.4-4.9,3.9-16.8,4.2-26.7h0ZM95.5,131.3c-1,.9-2.1,1.9-2.4,3.2-.3-.6-.8-1.3-1.7-1.9l-.3-.2-.3.2c-.7.4-1.1.9-1.4,1.4,0,0,0-.1,0-.2.4-1.4-.2-2.1-.7-2.8-.3-.4-.7-.9-.7-1.6.7-1.1,1.3-2.2,2.8-2.3,1.2,0,2.1.8,1.5,1.7,0-2.3-3.7-1.5-3,.9.6,2,3.9,3.4,6-.2.8-1.3,1.1-3.1,1.1-4.8h0c.2-.2.3-.4.4-.8.1,2,.2,3.9.2,5.8-.3.5-.8,1-1.4,1.6h0ZM97,131.2c0,1.5,0,2.9-.2,4.2h-2.9c0-1.3,1.2-2.4,2.3-3.4.3-.3.6-.5.8-.8ZM92.4,135.4h-2.7c.2-.6.5-1.3,1.3-1.9.8.6,1.2,1.3,1.3,1.9h0ZM85.4,133c0,.3-.1.6,0,.8,0,.4.2.7.4,1,.2.2.4.4.8.6h-2.6c0-1.2.9-2,1.8-2.8.4-.4.8-.7,1.1-1.1.2-.3.5-.6.7-.9.2.4.4.7.7,1,.4.5.8,1,.5,1.9-.1.4-.3.6-.5.8s-.5.2-.7.2c-.2,0-.3,0-.4,0-.2,0-.3-.2-.5-.3-.1-.1-.2-.3-.2-.5,0-.2,0-.3,0-.5l-.9-.3h0ZM80.5,133l-.9.3c0,.2,0,.3,0,.5,0,.2,0,.4-.2.5s-.3.3-.5.3c-.1,0-.3,0-.4,0-.3,0-.5,0-.7-.2-.2-.1-.4-.4-.5-.8-.3-.9.1-1.4.5-1.9.2-.3.5-.6.7-1,.2.3.4.6.7.9.3.4.7.7,1.1,1.1.8.7,1.8,1.5,1.8,2.8h-2.6c.3-.1.6-.3.8-.6.2-.3.4-.6.4-1,0-.3,0-.6,0-.8h0ZM77.8,135.4h-.7c0-.2-.1-.5-.2-.7.1.2.3.3.4.5.2.1.3.2.5.3h0ZM72.6,129c.2.4.7.8,1.3.9l.2-.5h0c0-.4,0-.7.3-.9,1-.7,2.1.9.6,2-2.1,1.6-4.6-1.4-4.6-5.2.7.2,1.7.3,2.7.4,2.3.2,5,.4,5.6,3.1,0,.2,0,.4,0,.6,0-.2-.2-.3-.2-.5-.9-1.7-2.3-2.8-3.9-2.5-.8.2-1.6.6-1.9,1.4-.1.4-.1.8,0,1.1h0ZM80.9,132c-.6-.6-1.2-1.1-1.3-1.6-.3-1.5.5-2.3,1.3-3.2.7-.8,1.6-1.7,2-3.1.5,1.4,1.3,2.3,2,3.1.9.9,1.6,1.7,1.3,3.2,0,.6-.7,1.1-1.3,1.6-.9.8-1.8,1.6-2,2.8-.2-1.2-1.2-2-2-2.8ZM81.7,119.1c0-.3.2-.6.4-.9.1-.2.2-.4.4-.7h0c.2-.3.3-.5.5-.7.3.4.7.9.9,1.4.3.5.4,1,.4,1.4s-.1.9-.4,1.3c-.2.2-.5.4-.9.4s-.7-.2-.9-.4c-.3-.3-.4-.8-.4-1.3s0-.2,0-.4h0c0-.1,0-.1,0-.1ZM83.8,85.8c.3.5.4,1,.4,1.4s-.1.9-.4,1.3c-.2.2-.5.4-.9.4s-.7-.2-.9-.4c-.3-.3-.4-.8-.4-1.3s.2-.9.4-1.4c.2-.4.5-.9.9-1.4.3.4.7.9.9,1.4h0ZM82,81c-.3-.5-.4-1.2-.4-1.8s.2-1.2.4-2c.2-.6.5-1.2.8-1.8.3.6.6,1.2.9,1.8.3.7.4,1.4.4,1.9s-.1,1.3-.4,1.8c-.2.3-.5.5-.9.5s-.7-.2-.9-.5h0ZM83.8,102.1c.3.5.4,1,.4,1.4s-.1.9-.4,1.3c-.2.2-.5.4-.9.4s-.7-.2-.9-.4c-.3-.3-.4-.8-.4-1.3s.2-.9.4-1.4c.2-.4.5-.9.9-1.4.3.4.7.9.9,1.4h0ZM91.8,129.4h0l.2.5c.6,0,1.1-.4,1.3-.9.1-.4.1-.8,0-1.1-.3-.8-1.1-1.2-1.9-1.4-1.6-.3-3,.8-3.9,2.5,0,.1-.2.3-.2.5,0-.2,0-.4,0-.6.6-2.6,3.3-2.9,5.6-3.1,1,0,2-.2,2.7-.4,0,3.9-2.5,6.8-4.6,5.2-1.5-1.1-.4-2.7.6-2,.2.1.3.4.3.9h0,0ZM88.6,135.1c.2-.1.3-.3.4-.5-.1.3-.2.5-.2.7h-.7c.2,0,.4-.2.5-.3h0ZM93.8,121.1c-.4,0-.7-.2-.9-.4-.3-.3-.4-.8-.4-1.2s.2-.8.4-1.3c.2-.4.6-.9.9-1.3.3.4.7.9.9,1.3.3.5.4,1,.4,1.3s-.1.9-.4,1.2c-.2.2-.5.4-.9.4h0ZM88.4,121.1c-.4,0-.7-.2-.9-.4-.3-.3-.4-.8-.4-1.2s.2-.8.4-1.3c.2-.4.6-.9.9-1.3.3.4.7.9.9,1.3.3.5.4,1,.4,1.3s-.1.9-.4,1.2c-.2.2-.5.4-.9.4h0ZM91,113.1c-.4,0-.7-.2-.9-.4-.3-.3-.4-.8-.4-1.2s.2-.8.4-1.3c.2-.4.6-.9.9-1.3.3.4.6.9.9,1.3.3.5.4,1,.4,1.3s-.1.9-.4,1.2c-.2.2-.5.4-.9.4ZM84.9,112.7c-.3-.3-.4-.8-.4-1.2s.2-.8.4-1.3c.2-.4.6-.9.9-1.3.3.4.6.9.9,1.3.3.5.4,1,.4,1.3s-.1.9-.4,1.2c-.2.2-.5.4-.9.4s-.7-.2-.9-.4ZM88.3,104.9c-.4,0-.7-.2-.9-.4-.3-.3-.4-.8-.4-1.2s.2-.8.4-1.3c.2-.4.6-.9.9-1.3.3.4.6.9.9,1.3.3.5.4,1,.4,1.3s-.1.9-.4,1.2c-.2.2-.5.4-.9.4ZM85.8,96.9c-.4,0-.7-.2-.9-.4-.3-.3-.4-.8-.4-1.2s.2-.8.4-1.3c.2-.4.6-.9.9-1.3.3.4.7.9.9,1.3.3.5.4,1,.4,1.3s-.1.9-.4,1.2c-.2.2-.5.4-.9.4ZM80.1,96.9c-.4,0-.7-.2-.9-.4-.3-.3-.4-.8-.4-1.2s.2-.8.4-1.3c.2-.4.5-.9.9-1.3.3.4.7.9.9,1.3.3.5.4.9.4,1.3s-.1.9-.4,1.2c-.2.2-.5.4-.9.4ZM77.6,104.9c-.4,0-.7-.2-.9-.4-.3-.3-.4-.8-.4-1.2s.2-.8.4-1.3c.2-.4.5-.9.9-1.3.3.4.7.9.9,1.3.3.5.4.9.4,1.3s-.1.9-.4,1.2c-.2.2-.5.4-.9.4ZM80,113.1c-.4,0-.7-.2-.9-.4-.3-.3-.4-.8-.4-1.2s.2-.8.4-1.3c.2-.4.5-.9.9-1.3.3.4.7.9.9,1.3.3.5.4.9.4,1.3s-.1.9-.4,1.2c-.2.2-.5.4-.9.4ZM75,113.1c-.4,0-.7-.2-.9-.4-.3-.3-.4-.8-.4-1.2s.2-.8.4-1.3c.2-.4.5-.9.9-1.3.3.4.7.9.9,1.3.3.5.4.9.4,1.3s-.1.9-.4,1.2c-.2.2-.5.4-.9.4ZM77.5,121.1c-.4,0-.7-.2-.9-.4-.3-.3-.4-.8-.4-1.2s.2-.8.4-1.3c.2-.4.5-.9.9-1.3.3.4.7.9.9,1.3.3.5.4.9.4,1.3s-.1.9-.4,1.2c-.2.2-.5.4-.9.4h0ZM72.2,121.1c-.4,0-.7-.2-.9-.4-.3-.3-.4-.8-.4-1.2s.2-.8.4-1.3c.2-.4.5-.9.9-1.3.3.4.7.9.9,1.3.3.5.4.9.4,1.3s-.1.9-.4,1.2c-.2.2-.5.4-.9.4h0ZM69.5,124.8h0c0,1.8.3,3.5,1.1,4.8,2.1,3.7,5.4,2.3,6,.2.7-2.5-3-3.2-3-.9-.7-.9.3-1.7,1.5-1.7,1.5.2,2.1,1.2,2.8,2.3,0,.7-.3,1.1-.7,1.6-.6.7-1.1,1.4-.7,2.8,0,0,0,.1,0,.2-.3-.5-.8-1-1.4-1.4l-.3-.2-.3.2c-.9.6-1.4,1.2-1.7,1.9-.4-1.3-1.5-2.3-2.4-3.2-.6-.6-1.2-1.1-1.4-1.6,0-1.8,0-3.7.2-5.8,0,.3.2.6.4.8h0ZM76.1,135.4h-2.7c.2-.6.5-1.3,1.3-1.9.8.6,1.2,1.3,1.3,1.9h0ZM69.8,132c1.1,1,2.2,2.1,2.3,3.4h-2.9c0-1.3-.1-2.7-.2-4.2.2.3.5.5.8.8ZM72.4,136.3h24.3c0,.4,0,.7,0,1.1h-27.4c0-.4,0-.7,0-1.1h3.3ZM74.7,141.8c.4-.4.7-1,.7-1.6s-.3-1.2-.7-1.6-.3-.2-.4-.4h4.3c-.2.1-.3.2-.4.4-.4.4-.7,1-.7,1.6s.3,1.2.7,1.6.2.2.3.2h-4c0,0,.2-.2.3-.2h0ZM74.1,141.3c-.3.3-.7.5-1.1.5s-.8-.2-1.1-.5c-.3-.3-.5-.7-.5-1.1s.2-.8.5-1.1c.3-.3.7-.5,1.1-.5s.8.2,1.1.5c.3.3.5.7.5,1.1s-.2.8-.5,1.1ZM78.1,140.2c0-.4.2-.8.5-1.1.3-.3.7-.5,1.1-.5s.8.2,1.1.5c.3.3.5.7.5,1.1s-.2.8-.5,1.1c-.3.3-.7.5-1.1.5s-.8-.2-1.1-.5c-.3-.3-.5-.7-.5-1.1ZM81.4,141.8c.4-.4.7-1,.7-1.6s-.3-1.2-.7-1.6c-.1-.1-.3-.2-.4-.4h4c-.2.1-.3.2-.4.4-.4.4-.7,1-.7,1.6s.3,1.2.7,1.6.2.2.3.2h-3.7c0,0,.2-.2.3-.2h0ZM84.6,140.2c0-.4.2-.8.5-1.1.3-.3.7-.5,1.1-.5s.8.2,1.1.5c.3.3.5.7.5,1.1s-.2.8-.5,1.1c-.3.3-.7.5-1.1.5s-.8-.2-1.1-.5c-.3-.3-.5-.7-.5-1.1ZM87.8,141.8c.4-.4.7-1,.7-1.6s-.3-1.2-.7-1.6c-.1-.1-.3-.2-.4-.4h4.3c-.2.1-.3.2-.4.4-.4.4-.7,1-.7,1.6s.3,1.2.7,1.6c0,0,.2.2.3.2h-4c0,0,.2-.2.3-.2h0ZM91.3,140.2c0-.4.2-.8.5-1.1.3-.3.7-.5,1.1-.5s.8.2,1.1.5c.3.3.5.7.5,1.1s-.2.8-.5,1.1c-.3.3-.7.5-1.1.5s-.8-.2-1.1-.5c-.3-.3-.5-.7-.5-1.1ZM94.5,141.8c.4-.4.7-1,.7-1.6s-.3-1.2-.7-1.6c-.1-.1-.3-.2-.4-.4h2.5c-.1,1.4-.3,2.7-.5,3.9h-1.9c0,0,.2-.2.3-.2h0ZM71.8,138.2c-.2.1-.3.2-.4.4-.4.4-.7,1-.7,1.6s.3,1.2.7,1.6.2.2.3.2h-1.8c-.2-1.2-.3-2.5-.5-3.9h2.5,0ZM82.9,142.9h13.1c0,.4-.1.8-.2,1.2h-25.7c0-.4-.1-.8-.2-1.2h13ZM95.7,144.9c-.2,1.3-.5,2.4-.7,3.2v.3h-24v-.3c-.2-.8-.5-1.8-.7-3.2h25.4,0ZM70.9,149.2h24l2.3,3.8h-28.7s2.3-3.8,2.3-3.8ZM79.5,153.8h17.8v7.4h-28.8v-7.4h11ZM67.1,163.9c.3-.8.7-1.5,1.3-1.8h.1s28.8,0,28.8,0h0s.1,0,.1,0c.6.3.9,1,1.3,1.8.4.9.8,1.8,1.6,2.6h-34.8c.8-.8,1.2-1.7,1.6-2.6h0ZM64.7,167.6h17.5c-.7.6-1.1,1.4-1.4,2.2-.2.5-.2.9-.3,1.4-.1-.2-.2-.3-.4-.5-.4-.5-.9-.8-1.5-1-.6-.2-1.2-.3-1.8-.1-.6.1-1.2.4-1.8,1v.6c.4.2,1,.8,1.6,1.6-.5-.6-1.2-1-2-1.2-.9-.2-2.1-.2-3.2.4v.6s0,0,0,0c.8.3,1.9.7,1.5,3.2h0c0,.5,0,1,0,1.4.1,1.3.5,2.2,1.2,2.8s.6.5.9.6v2.3h.1v8.3h-10.6v-23.6h0ZM64.7,192.3h36.5c2.3,0,3,1.3,3.9,2.9.6,1,1.2,2.1,2.2,3h-48.7c1-.9,1.6-1.9,2.2-3,.9-1.6,1.6-3,3.9-2.9h0ZM73.4,222.1v-2h18.8v2h-18.8ZM91.9,223.1v10.1h-3.1v-10.1h3.1ZM88.1,222.9v10.4h-4.5v-10.4h4.5ZM82.8,222.9v10.4h-5.2v-10.4h5.2ZM76.9,222.9v10.1h-3.1v-10.1h3.1ZM80.9,214.9s0-.1,0-.2c0-.3,0-.8,0-1.2,0-.4.3-.7.5-.8,0,0,0,0,0,0,.3,0,.5,0,.7,0,.2,0,.3.2.4.3h.6c.1-.2.3-.3.4-.3.2,0,.4,0,.7,0,0,0,0,0,0,0,.3.1.4.4.5.8.1.4.1.9,0,1.2,0,0,0,.1,0,.2,0,.2,0,.4.2.5.1,0,.2,0,.4,0,.4,0,1.2-.1,1.4.3.2,1.3.7,2.2,1.3,2.8.5.5,1,.8,1.6,1h-13.8c.6-.2,1.1-.5,1.6-1,.6-.6,1.1-1.5,1.3-2.8.1-.4,1-.3,1.4-.3.2,0,.3,0,.4,0,.2,0,.3-.2.2-.5h0ZM91.7,218.9c-.2,0-.4,0-.6,0-.8,0-1.7-.3-2.3-1-.5-.5-.9-1.3-1.1-2.4h0c-.3-.9-1.3-.9-2-.9,0-.4,0-.9,0-1.4-.2-.6-.5-1.1-.9-1.3,0,0-.1,0-.2,0h0c-.4,0-.8,0-1.1,0-.2,0-.3.1-.5.3-.1-.1-.3-.2-.5-.3-.3-.1-.6-.1-1.1,0h0c0,0-.1,0-.2,0-.5.2-.8.7-.9,1.3-.1.4-.1,1,0,1.4-.7,0-1.7,0-1.9.9h0c-.2,1.2-.6,1.9-1.1,2.5-.7.7-1.6.9-2.3,1-.2,0-.4,0-.6,0-1,0-1.9-.4-2.7-1.2-.7-.8-1.2-2-1.2-3.9,0-.4,0-.8,0-1.2.3-1.8,0-3.5-.5-4.9-.5-1.4-1.2-2.5-1.9-3.1,1.3-.4,2.7,0,3.8.8,1.1.8,2,1.9,2.4,2.9.1.2.2.4.2.6.6,2.2.7,3.7.5,4.6-.2.6-.4,1-.7,1.3-.3.2-.6.3-.9.4-.2,0-.4,0-.4,0l-.4.6h0c0,0,.3.2.5.3.3.1.8.3,1.2.3,1.2,0,2.6-.6,2.7-3.9,0-1.7-.4-3.4-1-4.8-.7-1.6-1.6-2.8-2.4-3.5.4-.1.7-.3,1-.3.9-.2,1.7,0,2.4.4.7.4,1.2,1.1,1.7,2,.4.9.8,1.9,1,3h.7c0-1.6,0-3.5.7-5.2.4-1.2,1.1-2.2,2-2.9.9.7,1.6,1.7,2,2.9.6,1.7.8,3.6.7,5.1h.7c.2-1.1.6-2.1,1-2.9.4-.9,1-1.6,1.7-2,.7-.4,1.4-.5,2.4-.4.3,0,.7.2,1,.3-.8.7-1.7,2-2.4,3.5-.7,1.5-1.1,3.2-1,4.8.2,3.3,1.5,4,2.7,3.9.5,0,.9-.2,1.2-.3.2-.1.4-.2.5-.3h0s-.4-.6-.4-.6c0,0-.2,0-.4,0-.3,0-.6-.1-.9-.4-.3-.2-.6-.7-.7-1.3-.2-1-.2-2.4.5-4.6,0-.2.1-.4.2-.6.5-1,1.3-2.1,2.4-2.9,1.1-.8,2.4-1.2,3.8-.8-.7.6-1.4,1.7-1.9,3.1-.5,1.4-.7,3.1-.5,4.9,0,.4,0,.8,0,1.2,0,1.9-.5,3.1-1.2,3.9-.7.8-1.7,1.1-2.7,1.2h0ZM92.6,222.9h.2v-3.4c.7-.2,1.4-.6,2-1.2.8-.9,1.4-2.3,1.4-4.4,0-.4,0-.8,0-1.3h0c-.2-1.7,0-3.3.4-4.6.6-1.6,1.5-2.8,2.1-3v-.6c-.2-.1-.5-.2-.7-.3-1.6-.5-3.1,0-4.3.9-1.2.9-2.2,2.1-2.7,3.2-.1.3-.2.5-.3.8-.7,2.3-.7,3.9-.5,4.9.2.8.6,1.3,1,1.7.1.1.3.2.4.3h0c-.9,0-1.9-.5-2-3.2,0-1.6.3-3.1,1-4.5.8-1.8,1.9-3.2,2.6-3.6v-.6c-.6-.3-1.2-.5-1.8-.6-1.1-.2-2.1,0-2.9.4-.8.5-1.4,1.3-1.9,2.2-.2.3-.3.6-.4,1,0-1-.3-2.1-.7-3.1-.5-1.4-1.3-2.6-2.5-3.4h-.4c-1.2.7-2,2-2.5,3.4-.3,1-.6,2-.7,3.1-.1-.3-.3-.7-.4-1-.5-1-1.1-1.8-1.9-2.2-.8-.5-1.8-.7-2.9-.4-.5.1-1.1.3-1.7.6v.6c.7.4,1.8,1.8,2.6,3.6.6,1.4,1,3,1,4.5-.1,2.7-1.1,3.3-2,3.2h0c.1,0,.3-.1.4-.3.4-.3.8-.9,1-1.6.3-1.1.2-2.7-.5-5,0-.2-.2-.5-.3-.8-.5-1.1-1.5-2.3-2.7-3.2-1.2-.9-2.8-1.4-4.3-.9-.2,0-.5.2-.7.3v.6c.7.3,1.6,1.4,2.2,3,.4,1.3.7,2.9.4,4.5h0c0,.5,0,.9,0,1.3,0,2.1.6,3.5,1.4,4.4.6.6,1.2,1,2,1.2h-.3v3.4h.4v10.4h-15.4v-34.2h50.5v34.2h-15.6v-10.4h0ZM5.4,259.7l-.4-36.9c.2-10.5.5-20.9,1.2-31.2.7-10.3,1.9-20.4,4.1-30.2,2.1-9.5,5.1-18.7,9.4-27.5,4.2-8.5,9.6-16.7,16.6-24.2,3.3,4.2,6.2,8.4,8.9,12.7,2.9,4.7,5.6,9.4,7.9,14.2,2.3,4.8,4.4,9.7,6.2,14.6,1.8,5.1,3.4,10.2,4.7,15.2,0,0-.1,0-.2.1v24.7h0c-2.1.4-2.9,1.8-3.8,3.4-.7,1.3-1.5,2.8-3.2,3.5v35.1h-5.7c.2,0,.3,0,.5,0h0c1.6-.3,2.7-1.1,3.4-2.2.8-1.3,1-2.9.8-4.7h0c0-.6-.2-1.2-.6-1.8-.4-.7-1.5-2.2-2.5-3.1-.2-.2-.5-.5-.8-.7,0,0-3.6-2.8-5.4-4-1-.7-1.7-1.3-2.3-1.9-.5-.5-1-1-1.3-1.5,1-.9.8-2.7.8-2.7,0,0,0-.5-.3-.7.5.2,1,.4,1.3.5,0,0,0,.3,0,.4h0c0,0,.5,1.2,1.8,1.6,0,0,.2,0,.2,0,.2.2.4.5.5.9.2.4.4,1,.5,1.6.1,1,.3,1.8.5,2.4.4,1,.9,1.5,1.1,1.6h0c.2.1.4,0,.5,0,.1.1.3.3.6.3h0c.2,0,.4,0,.5-.2.1.1.3.2.5.2s0,0,.1,0c.1,0,.2,0,.3,0,0,.2.1.5.2.8,0,.2,0,.3.1.5,0,.1.1.2.3.3.6.1.9-.1,1.1-.7.2-.7,0-2-.5-3.3h.2c.2,0,.5,0,.7-.1.2,0,.4-.2.5-.3,0-.1.1-.2.1-.3s0-.1,0-.1c0-.2-.2-.3-.3-.4s-.4-.3-.6-.7c0-.2-.7-1.8-.9-2.9,0-.3,0-.5-.1-.8,0-.3-.2-.5-.4-.7h0c-.3-.4-.7-.8-1.2-1.2-.4-.3-.8-.6-1.3-.9,0,0,0,0,0-.1h0c0,0-.6-1.3-2.8-1.2,0,0-.1,0-.2,0,0,0,0,0,0,0-.6-.3-1.3-.6-2.6-1.3h0c-.1,0-.2-.1-.3-.2.8-1.7,1.4-3.1,1.8-4.4.6,1.4,1.3,2.9,1.9,4,.5.9,1.5,1.9,1.6,2,.4.3,1.4.4,1.7.3,2.9-.5,3.8-5.1,4.3-8,.2-.8.3-1.5.4-1.9h0c.2-.6.4-1.2.7-1.7h0c0,0,.1,0,.2,0,0,0,.2,0,.2,0,.1-.1,1-.9,1.4-2.1,0,0,0-.1,0-.2,0,0,0,0,.2-.1.7-.6,1.5-1,2.1-1.3,1-.6,1.8-1,2.2-1.8.8-1.4.3-4,0-4.5.2-.4,0-.9,0-.9-.3-1.4-1.4,0-1.4,0-.8,1.3-1.5,2.1-2.1,2.5.1-.2.2-.5.2-.8.2-1-.3-1.7-.3-1.7-1.1-1-1.4.5-1.4.7,0,1-1.1,1.9-1.2,2-1.8.9-2.1,3.3-2.1,3.7,0,0-.1,0-.2,0,0,0,0,0,0,0,0,0-.9.6-1.3,2.1,0,0,0,.1,0,.2,0,0,0,.1.1.2-.5.8-1,1.8-1.5,2.6-.2-.4-.6-.7-.7-.8l-.2-.4c-.6-1.6-1.4-3.7-2.8-6,.2-.6.3-1.2.3-1.3,0-.1,0-.2,0-.3-.1-.1-.4-.1-.5,0,0,0-.2,0-.3.1h0c-.3.1-.8-.1-.8-.1,2-.6,4.1-2.4,3.9-7.4-.2-4.4-2.6-9.4-6.1-14.2-4-5.4-9.4-10.5-14.5-14-.2-.1-.4,0-.5.1,0,0,0,.2,0,.3,0,.2,1.7,5.9-1.3,14.1-.3.8-.6,1.6-.8,2.5-1.1,3.9-1.6,8.2-1.4,11.7.2,3.1.9,5.6,2.4,6.7h0c-.2,0-.4,0-.5,0-.1-.1-.4-.1-.5,0,0,0-.1.2-.1.3,0,.2.2,1.2.6,2.1,0,.3,0,.6-.1.9,0,.4,0,.7.1,1.1v.2c.3,1.6.6,3.5,1.8,6-.1,0-.2.2-.2.3,0,0,0,.1,0,.1,0,.2.6,2.1,1.6,2.9.2.5.8,2.6,0,4.3-.2,0-.6.3-1.1.6-.7,0-4.1.5-5.9,4-.4.8-.5,1.6-.4,2.2,0,.3.2.6.4.8-.1.2-.2.4-.3.7,0,.1-.1.2-.1.3,0,0,0,0,0,0h0c0,.2-.1.4-.2.6h0c-.1.4-.3.8-.4,1.1-.2.4-.4.8-.6,1.2h0l-.2.4c0,0,0-.1,0-.2h0s0,0,0-.1c-.1-.4-.2-.8-.3-1.2-.1-.7-.2-1.4,0-2.1h0c0-.3,0-.6,0-.8,0-.2,0-.4,0-.6.2-1.4.7-1.8.7-1.8.1-.1.2-.4,0-.5-.1-.2-.3-.3-.4-.4.2-.6.4-1.7.4-2.8,0-.8-.1-1.6-.5-2.3-.3-.5-.7-.8-1.1-.9-.4-.1-.8-.2-1.1-.2h0c-.4,0-.7.2-1,.4-.3.2-.6.4-.8.7h0c-1.3,1.8-3.6,2.1-3.8,2.1h0s-1.3.1-1.8.9h0c-.2.4-.6.5-.7.6-.6,0-1.2.1-1.7.4-.2.1-.4.3-.5.5-.1.2-.2.4-.2.7s0,.5.2.8c0,0,0,.1,0,.2,0,.3,0,.6.1.8.1.2.3.4.5.6-.1.8.5,1.3.9,1.5,0,1.1,1.8,1.5,1.8,1.5,0,0,0,0,.1,0,.2,0,.3-.2.3-.4-.2-2.2,2.4-2.9,2.7-2.9.1.3.2.7.2.7,0,.2-.1.3-.1.5-.1.4-.2.8-.4,1.1-1.8.5-2.3,1.9-2.3,1.9,0,.2,0,.4.2.5,0,0,.1,0,.1,0,.1,0,1.1,0,1,2.2h0c0,.4-.1.9-.2,1.3-1.4-.8-2.8-.7-2.9-.7-3.4.2-4.4-1.4-4.5-1.6,0-.1-.2-.2-.4-.2-.2,0-.3.2-.3.4.6,4,1.6,4.6,2.5,5.2.5.3.9.6,1.1,1.9h0c0,.4,0,.9.1,1.3.2,2.8.4,5.6,5.8,7.4h-6.4l-3.3,4.1.6.3c.5.3,1.4.7,1,1.5-1.5,3.1-2.2,6.3-2,9.6.1,3.3,1.1,6.8,2.8,10.6h0c0,.1-2.8.2-2.8.2h0ZM14.2,230.7c.6,1.3,1.6,1.7,3,2.1h0c3.2.8,7.4-1.8,7.7-2,.9-.6,2.1-1.5,3.5-2.7.9-.8,2-1.8,3-3,.2.4,0,1.2-.3,2.2-.2.6-.3,1.2-.4,1.9-.5.4-3.5,3.3-8,4h-4.4c-.3,0-.6-.1-1-.2-6.6-1.6-6.8-4.5-7-7.3,0-.4,0-.9-.1-1.3h0c-.2-1.6-.8-2-1.4-2.4-.7-.4-1.4-.9-2-3.5.8.6,2.1,1.2,4.3,1h0s1.3-.1,2.7.8c0,.3,0,.6-.1.9-.1,1-.2,2-.2,3-.1,3.4.1,5.3.8,6.5h0ZM14.8,210.5c0,0,.1.1.2.2-.7.2-3.1,1-3.2,3.2-.4-.1-1-.4-.8-1.1.1-.7.6-1.1.6-1.1.1,0,.3-.2.3-.4s-1.1.4-1.4,1.2c-.8,0-.4-.9-.4-.9,0,0,.7-1.2,1.4-1.1.1,0,0-.3-.2-.3-.3,0-.6,0-.9.3-.2.2-.5.4-.6.7,0,0,0,0,0,0-.1,0-.2-.1-.2-.3,0-.1,0-.3,0-.4,0,0,0-.1,0-.2h0c.1-.2.6-.5.8-.6.3-.1.6-.2.8-.1.1,0,.3,0,.3-.2s-.9-.2-1.3,0c-.3.1-.6.1-.8.4,0-.1,0-.2,0-.3s0-.2,0-.3c0,0,.1-.2.3-.2.3-.2.8-.3,1.3-.3s0,0,0,0c.2,0,.9-.2,1.2-.9.3-.5,1.2-.6,1.2-.6h0c.3,0,2.8-.4,4.3-2.4h0c.2-.2.4-.4.6-.5.2-.1.5-.2.7-.2.2,0,.5,0,.8.1.3.1.5.3.7.6.3.5.4,1.2.4,1.9,0,.9-.1,1.7-.2,2.3-3.1-2.2-5.9.9-6.1,1.1,0,0,0,0,0,0-.1.2,0,.4.1.5h0ZM21.2,210c-.2.3-.4.7-.6,1.5-.9-.4-2.8-1-4.5,0-.1-.4-.3-.9-.6-1.3.7-.7,3.2-2.7,5.7-.2h0ZM20.4,215.3c-.7-.7-1.8-1.4-3.3-1.7h0c-.5,0-.9,0-1.3,0,0-.3.2-.5.2-.8,0-.2.1-.4.2-.6,1.6-1.1,3.7-.3,4.3,0,0,.1,0,.2,0,.3,0,.3,0,.5,0,.8,0,.6,0,1.3,0,1.9h0ZM17,214.3h0c2.6.4,3.6,2.3,3.9,2.8.1.3.2.6.3.8,0,0,0,0,0,.1-.1.2-.2.4-.3.7-3-1.8-5.2-1.3-6.2-.9,0-1.6-.7-2.1-1.2-2.3.4-.6,1.4-1.5,3.5-1.2h0ZM29.8,152.8c4.8,3.4,9.8,8.2,13.6,13.3,3.4,4.7,5.8,9.6,6,13.8.3,6.7-3.8,7.1-5.7,6.9-.4,0-1.1-.2-1.8-.4-.9-.5-.8-1.6-.7-1.9,1.5,0,2.4-.7,2.8-1.1h.1c0,0,0-.1,0-.1.1,0,.2-.1.3-.2.2-.1.4-.4.5-.6,0-.3,0-.6,0-1.1,0,0,0,0,0,0,0,0,.2-.2.2-.2,0-.1.2-.4,0-.6.1-.1.2-.3.2-.4s0-.2-.2-.3c0,0,0-.1-.1-.1,0,0,0,0,0,0,0-.2.2-.4.2-.4.2-.2.4-.4.3-.9,0-.3-.3-.8-1.1-1.4h0c-.4-.4-.7-.7-.9-1.1-.2-.4-.4-1-.5-1.6h0c0-.2,0-.3-.2-.4,0,0,.2-.1.2-.2h0c.3-.7,0-1.2-.1-1.4,0-.4,0-1.4-1-2.1-.5-.3-.7-.7-.8-1-.1-.3,0-.7.1-1.1,0-.2,0-.4-.2-.5,0,0-.2,0-.3,0,0,0-.7.3-1.4.9,0-.2,0-.4-.2-.7,0-.2-.2-.4-.3-.6,0,0,0-.1,0-.2h0c0,0-.4-1-.4-1-.2-.1-.6,0-.6,0h0c-1.2-.9-1-2.7-1-2.7,0,0,0-.1,0-.2,0-.2-.3-.2-.5-.1-.2.1-.5.3-.6.5-.3-.8-.9-2.1-2.3-3.3.2-.3.5-.9.3-1.6h0c-.3-.8-1.5-1.3-1.5-1.3h0c-.2,0-.4,0-.5.2,0,0-.5,1.1-.3,1.9h0c.2.6.8.9,1.2,1,0,.5-.4,2.1-.2,3.8-.4-.1-.7-.2-.7-.2-.1,0-.2,0-.3.1-.1.1-.1.4,0,.5.9.8.6,2.4.5,2.6h0c-.2.1-.3.2-.4.4-.1.1-.1.3-.1.5h0c0,0,0,.6,0,.6,0,0,0,0,0,.1,0,0,0,.1.1.2,0,.7,0,1.2.1,1.5-.5,0-1-.1-1.6-.1-.2,0-.3.2-.3.4,0,0,0,.1,0,.2,0,0,.5.6.1,1.6h0c-.1.4-.1.7-.1,1.1s0,.7.1,1.1h0c0,.2.2.4.3.6-.6,0-1.3.2-2.2.8-.2.1-.2.3-.1.5,0,.1.2.2.3.2,0,0,1,0,1.8.9h0c.1.1.2.3.2.4,0,0,0,.1,0,.2,0,.1.1.2.2.3,0,0-.1,0-.2,0-.2.1-.2.3,0,.5h.1c.1.3.3.6.5.9-.4-.2-.9-.3-1.2-.4h-.1c0,0,0,0-.1,0,0,0-.2,0-.2,0,0,0-.1.1-.2.2h0c0,.1,0,.2,0,.3s0,.2.1.2h0c1.1,1,.6,1.8.6,1.9-1,1.5-.4,2.9-.4,2.9h0c.3.7.7,1.1,1.2,1.2-.1,0-.2,0-.4.1-.5.1-1.1.3-1.6.5,0,0,0,0-.1,0-1.6-.6-2.4-3.1-2.5-6.4-.2-3.4.3-7.6,1.4-11.4.2-.8.5-1.7.8-2.5,2.4-6.6,1.9-11.6,1.5-13.6h0ZM58.3,185.1c0,0,0-.3,0-.2,0,0,0,0,0,0,.2.3.3.6.2,1.1,0,.4-.3.9-.6,1.3h0c0,.1-.2.2-.3.3-.2.1-.2.3,0,.5,0,.1.2.1.3.1.3,0,1.9-.4,3.8-3.4h0c0-.2.3-.7.3-.6v.2c0,.2.2,1.5-1.6,2.9-.4.3-.8.8-1.4,1.2,0,0-.1.2,0,.3,0,0,.2.1.3,0,.6-.4,1.1-.9,1.5-1.2.3-.3,1.4-1.6,1.7-1.9.3.6-1.2,2.6-2.8,3.6,0,0-.1.2,0,.3,0,.1.2.1.3,0,1.3-.8,2.4-2.5,2.7-3.1,0,.1-.2,1-.4,1.3-.2.4-.8,1.5-2.2,2.3,0,0-.1.2,0,.3,0,.1.2.1.3,0,1.1-.6,2.1-2,2.5-2.6,0,.5-.3,1.3-.5,1.5,0,0-.6,1.1-2,1.6-.7.2-1.5.6-2.2,1.2h0c-.3.3-.8.4-1.2.4-.4,0-.8-.2-1.2-.6-.2-.2-.3-.4-.3-.6,0-.2,0-.3,0-.5h0c0-.3.2-2.4,1.8-3.2h0c0,0,1.7-1.2,1.5-2.7h0c0,0,0,0,0,0ZM57.1,193.5c-.3.6-.7,1-.9,1.2-1.6,0-2.4-.8-2.7-1.3,0,0,0,0,0,0,0,0,0-.1,0-.2.2-.7.5-1.1.7-1.4.9,1.6,2.2,1.8,3,1.7h0ZM55.5,195.3c-.2.5-.5,1-.6,1.6-.2.4-.3,1.1-.5,2-.9,8.2-4.3,7.7-5,7.2-.3-.1-.8-.8-1.4-1.7-.6-1.1-1.2-2.5-1.8-3.8,1.4-.1,2.4-.4,3.1-.8,0,.2-.2.4-.3.6-.2.4-.3,2,0,1.9.2-.1.3-.3.3-.5,0-.4.2-.7.4-1.1.2-.4.4-.8.7-1.3h0s.2-.3.4-.7c.4-.5.5-.9.6-.9,0-.1,0-.2.1-.3.5-1,1.2-2.1,1.8-3.2.4.5,1.1,1,2.2,1.1h0ZM50.8,197.1c-.2.4-.5.8-.6,1.1-.6.6-1.8,1.5-4.2,1.6v-.2c0-.5.1-.9.2-1.3.8,0,2.9-.2,4.3-2.1.2.2.4.6.4,1ZM46.3,197.5c.2-1.2.2-2.1.2-2.6v-.3c0-.9.3-1.1.9-1.5.2-.1-.3-.3-.5-.2,0,0-1,.4-1.2,1.7h0v.3c0,.5,0,1.4-.2,2.7,0,0,0,.1,0,.2l-.3,1.6c0,0,0,.1,0,.2h0c-.4,1.4-1,3.1-2,5.1-.3-.1-.6-.3-.9-.4,0-1,.2-2.2.4-3.2.1-.7.2-1.2.2-1.6h0c.6-1.9,1.2-4.3.7-5.6,0-.2-.1-.3-.2-.5,0,0,.2,0,.3,0,0,0,0,0,0,0,2.3.3,3-1.2,3.1-1.4,0,0,0-.1,0-.2,0-.2-.2-.3-.3-.4-1,0-1.6-.9-1.7-1h.3c.5,0,.9,0,1.4-.3.4-.1.7-.4.8-.7,1.2,2.1,2,4,2.5,5.5l.2.4c-1.1,1.7-2.9,2-3.7,2h0ZM52.6,219.7s-.9-3.3-1.1-4c-.2-.6-.4-1.1-.4-1.2,0-.1-.1-.2-.3-.1-.1,0-.2.1-.2.3s.2.7.4,1.3c.2.6.4,1.1.5,1.5.2.8-.1.9-.1.9-.2,0-.4-.6-.5-1.2-.2-.6-.4-1.4-.7-2.1,0-.1-.2-.2-.3-.1-.1,0-.2.2-.1.3.3.7.5,1.5.6,2.1.4,1.4,0,1.3,0,1.3-.2,0-.5-1.1-.5-1.1-.1-.3-.2-.5-.7-2,0-.1-.2-.2-.3-.1s-.2.2-.1.3c.5,1.5.9,2.8.9,2.8,0,0-.5-.6-.9-1.4-.2-.5-.4-1.2-.5-2.2h0c0-.7-.3-1.3-.5-1.8-.3-.5-.6-1-.9-1.4,0-.9.5-2.6,2.1-3.3.5.3,1,.6,1.4,1,.4.4.8.8,1.1,1.1.1.2.2.3.3.5,0,.2,0,.4,0,.5h0c.2,1.4,1,3.2,1,3.2h0c.3.6.6.8.8,1,0,0-.5.4-.9,0-1-.8-1.6-3.5-1.6-3.8,0-.2-.1.3-.1.5,0,.6,2.8,7,1.6,7.6h0ZM46.2,211.3h0c-.6-.3-.9-.8-.9-.9-.2-1.7,1.3-3.4,1.7-3.4.9,0,1.4.2,1.7.4-1.9.9-2.4,2.9-2.5,3.9h0ZM44.6,209.5c-.9-.4-2.5-1-4.2-1.5,0,0-2.4-.8-3.1-1.1h0c-2.6-.9-4-3.5-4-3.5,0,0,0,0,0,0-.4-.5-.7-1-1-1.5-.2-.3-.4-.6-.6-.9,1,0,2.5-.4,3.8-1.5.2.6.7,1.4,1.1,2,.6.9,1.3,1.7,1.8,2.1h0c.5.3.9.5,1.5.7.8.3,1.9.6,3.8,1.6h0c1.1.5,1.8.9,2.3,1.1-.6.5-1.3,1.4-1.4,2.6h0ZM46.8,223.2c-.8-.4-1.7-.8-2.6-1.1.8-.1,1.7-.4,2.4-1.1.1-.1.2-.6,0-.5-.3.1-.7.5-.9.6-1.7.9-4,.4-4.3,0l2.2-1.3c0,0,.1-.1.2-.2,0-.2,0-.4-.2-.5,0,0-.3-.1-.7-.4.5-.3,1.5-.9,2.4-2.2.2.2.5.4.7.6h0c1.8,1.2,3.5,2.4,5,3.7-1.2,2.1-3.6,2.3-4.3,2.3h0ZM51.6,221.4c.2.1.3.3.5.5,1,.9,1.8,1.8,2.3,2.7-.6,1.3-2.3,1.6-2.8,1.7-1-.9-2.2-1.7-3.6-2.5,1.1-.2,2.7-.8,3.7-2.4h0ZM35.2,211.5c.4.2.9.5,1.2.7.5.5.8,1.2,1,1.9-1.1-.1-2-.3-2.8-.6-.8-.3-1.5-.7-2.1-1.1.5-.4,1.1-1,1.7-1.7.4.3.8.5,1.1.7h0ZM34.5,210.2c.6-.8,1.2-1.8,1.8-2.9.2.1.4.2.7.3.7.2,1.5.5,2.3.8.2,1.2.5,2.1.9,2.9h0c-.5-.6-1-1.1-1.8-1h0c-1,.1-1.6.8-1.9,1.1-.6-.3-1.3-.7-1.9-1.2h0ZM34.3,214.2c.8.3,1.8.5,2.9.6-.7,1.8-1.7,3.2-3.2,4.1-.3,0-.7,0-1.2,0h0c-.2,0-.4,0-.6.2-.2,0-.4.2-.5.3-.2,0-.4,0-.5,0-.2,0-.5,0-.7-.1h0c-2.1-.6-2.9-1.7-3.6-2.8-.7-1.1-1.4-2.1-3-2.7h0c0-.1.1-.3.2-.4.2.2.5.4.8.5,1.2.6,2.8.7,3.2.6.5,0,1.7-.2,3.2-1.2.2-.1.4-.2.5-.4.7.5,1.5.9,2.5,1.3h0ZM36.5,217.2c-.1.2-1.1,1.8-1.2,2,0,0-.2-.1-.2-.1,0,0,0,0-.1,0,.2-.1,1.4-1.6,1.6-1.8h0ZM36.6,217.8c.3-.6.6-1.3,1-2.1.1,1.4,0,2.6,0,2.6h0c0,.7.1,1.3.4,1.8-.5-.1-1.2-.2-2-.2,0-.1-.2-.2-.3-.3.3-.4.6-1,.9-1.7h0ZM36.3,220.5c1.5,0,2.2.5,2.4.6.6,1.6,0,3.9-.2,5-.8-.7-1.5-.8-2.2-.7,0,0,0,0,0,0-.1,0-.2,0-.3,0,.9-1.9.6-4.1.4-5h0ZM38.3,218.3c0-.2.5-4.4-1.2-6.5.2-.2.6-.8,1.4-.9.5,0,.9.3,1.2.7h.1c.3.5.6,1,.8,1.6.1.5.2,1.1,0,1.7h0c-.4,2.6,1.2,4,2.1,4.6l-2.2,1.3c-.5-.1-2.4-.7-2.3-2.6ZM39.5,221.3c1.1.3,2.4.7,3.7,1.2-1.1.4-2.8,1.3-3.9,2.9.3-1.1.5-2.7.1-4.1ZM44.3,222.9l2.2,1c-3.6,1.3-4.2,4-4.3,5.1-1.6-.3-2.5.2-2.9.7-.9-4.8,4.2-6.5,5-6.8h0ZM42.4,218.4c-.7-.6-1.3-1.7-1.1-3.4h0c.1-.8,0-1.4,0-2.1,0-.2-.1-.4-.2-.6.4.5.8.8,1,.9,0,0,0,0,0,0,.4.5.9,1.1,1.5,1.8.4.4.8.7,1.3,1.1-1.1,1.4-2.2,2-2.5,2.2h0ZM40.1,208.6h0c.8.3,1.5.5,2.2.8.5.5.5,1.2.5,1.2,0,.3,0,1.5-.6,2.1-.5-.3-1.6-1.3-2.2-4ZM31.5,201.9c0,.1.1.2.2.3.3.5.7,1,1,1.5,0,.1.4.7,1,1.4-.2.4-.7,1.6-1.4,2.7-.2-.3-.4-.6-.6-.9-.2-.4-.4-.9-.6-1.4.6-1.2.5-2.6.4-3.6h0ZM35.1,192.8c-.3.3-.6.6-.9.7-.3.2-.6.3-1,.4-1.5.3-2.4-.3-2.8-.7h0c.2,0,.4-.1.6-.2h0c.6-.5.9-1,1.1-1.4,0,0,0-.2.1-.2h0c.3-.6.5-.7.7-1,0,0,0,0,0,.1h0c.5.6,1,1,1.6,1.4.2.1.5.3.8.5,0,.1-.1.3-.3.4h0ZM35.3,193.5c-.1.3-.2.5-.3.8,0,.4-.1.7-.1,1.1,0-.2-.1-.5-.2-.7,0-.1-.1-.6-.1-.7,0,0,.4-.3.7-.6ZM34.9,191.3c-.5-.4-1-.8-1.5-1.3,0,0-.4-.5-.6-.9-.6-1.1-1-2.2-1.1-2.8.4,0,.8,0,1.1-.1.3.8.7,1.6,1,2.2l.2.3s0,0,0,0c.3.5.7.9,1.1,1.3.4.3.8.6,1.3.8.9.4,1.9.5,2.7.4.9-.1,1.7-.5,2.2-1.1h0c.8-1.1.9-2.3.8-2.9.1,0,.3,0,.4,0,0,0,0,0,.1,0,0,0,.3,0,.8.1-.2,1-.4,1.8-.8,2.5-.3.6-1.3,1.6-1.9,2,0,0-2.8,1.5-5.8-.7h0ZM30.5,180.3c.8.3,1.8.8,2.2,1.4h0c.2.3.3.6.4.8,0,.3,0,.6,0,.8,0,.2-.2.3-.3.4h0s0,0,0,0c0,0,0,0,0,0,0,0-.7.4-1-.4,0-.1,0-.2,0-.2h0s0,0,0,0c0-.4.5-.4.5-.4.2,0,.3-.2.3-.4,0-.2-.2-.3-.4-.3,0,0-1.5.1-1,1.5,0,0,0,0,0,.1,0,.1.1.2.2.4.3.5.9,1.3,2.1,1.4-1.1.5-2.4.4-2.8-.8,0,0-.5-1.1.3-2.3h0c0-.1.6-1,0-2h0ZM30.9,170.9c2,0,2.6,1,2.8,1.5,0,.5.3.9.6,1.1-.7.2-1.2.5-1.7.7,0,0,0-.1-.1-.2-.1,0-.3,0-.4.1,0,0-.1.2-.1.4-.3.1-.6.3-.8.4h0c-.1-.2-.2-.4-.2-.5h0c0-.3-.1-.6-.1-.9s0-.6.1-.9c.2-.7.1-1.3,0-1.7h0ZM33,165c.6.3,1.3.9,1.6,1.7l-1.7.4c0-.4.2-1.3-.2-2.2,0,0,.2,0,.3.1ZM32.9,159.6c-.2,0-.6-.2-.7-.5,0-.3,0-.8.1-1.1.3.2.6.4.8.7,0,.3,0,.6-.2.9h0ZM33.3,160.9c1.3,1.4,1.8,2.7,1.9,3.2-.3.5-.4,1-.5,1.4-.4-.5-.9-.9-1.4-1.1-.2-1.4-.1-2.7,0-3.5h0ZM37.7,166.7c.1.1.2.2.3.4l-5.5,1.2c0-.2,0-.4.1-.5l5-1h0ZM35.3,166.5c0-.5,0-1.3.5-2.1.1-.2.3-.4.4-.5,0,.6.2,1.5.9,2.2,0,0-1.8.4-1.8.4ZM38.3,167.8h0c0,.1,0,.2.1.3.2.5.2,1,0,1.4,0,0,0,0,0,0-.1.2-.2.5-.3.8-.2-.2-.5-.3-.5-.3-1-.4-2-1.2-2.2-1.3,0,0-.2,0-.2,0-.2,0-.3.2-.3.4,0,.3,0,.5-.4.9-.2.3-.4.6-.7,1.1,0,.1-.1.2-.2.3-.2-.3-.5-.5-1-.7-.4-.2-.5-.4-.4-1.6l5.9-1.3h0ZM38.9,171.1h0c0-1.3.8-2.1,1.4-2.6,0,.2,0,.5,0,.7.2.5.5.9,1.1,1.4.5.4.7.9.7,1.3-1.1,0-2.2,0-3.2.2,0-.4,0-.8,0-1h0ZM42.4,172.7c0,.1.2.3,0,.6,0,0-.5,0-.8,0-1.6,0-4.5.2-7.3,2.2,0,0-.2,0-.3,0-.2,0-.5-.1-.8-.2h0c-.3,0-.5-.1-.7-.2,2.1-1,6.2-2.6,9.8-2.3h0ZM44.8,180.4c-.2,0-.6,0-1,0-.1,0-.5,0-.6,0h.2c.2-.3.4-.5.7-.5,0,0,.4.1.4.2,0,0,.3-.2.3-.2,0,0,0,0,.1.2,0,0,0,.2-.2.3h0ZM44.8,180.9c0,.2-.3.2-.4.2-.3,0-.7,0-1-.2-.2,0-.5-.3-.7-.4.3,0,.8,0,1,0,.4,0,1.1,0,1,.4h0ZM44.8,178.9h0c-.2.1-.4.1-.5.1-.2,0-.3,0-.4-.1,0,0-.2,0-.2,0-.3.3-.6,0-.6,0h0c-.1-.1,0-.5.3-.6,0,0-.1-.1-.2-.1-.3.1-.4.3-.5.6,0,.1,0,.4.3.6,0,0,.4.2.8-.1.1,0,.3.1.5.1h.2c0,.1,0,.5,0,.5,0,0-.4-.1-.5,0-.2,0-.4.2-.7.4-.6.4-1.2.3-1.5,0,0,0,0,.3.2.4.2.1.3.1.5.1,0,0,0,0,0,0,.2.3.6.5.9.6.3.1.7.2,1,.2,0,0,0,0,0,0,0,.3,0,.6,0,.8,0,.2-.2.3-.3.4s-.3.1-.5.2c-.2,0-.5,0-.9,0-.1,0,0,.3,0,.3,0,0,.2.1.3.2-.4.3-1.2.6-2.3.7h-.6c-.7,0-1.4-.3-2.1-.7-.7-.4-1.9-1.7-1.9-1.7,0,0-.8-1-1-2.4,0,0-.2-.7,0-1.4,0,0,0-.4,0-.7.1-.5.4-1.2.8-1.8,2.2-1,4.2-1.1,5.4-1.2.3,0,.5,0,.7,0,0,.1.1.3.2.4.2.7.4,1.3.6,1.7.2.5.5.9,1,1.3h0c.6.5.8.9.9,1.1s0,.3-.2.4h0ZM34.8,179.1c0,.1,0,.2,0,.3.1.8.4,1.4.7,1.9,0,0-1-1-1.1-1.1h0c-.2-.1-.3-.3-.4-.4-.3-.4-.5-.9-.5-1.3,0-.4,0-.8.3-1,0,0,0,0,.1-.1.5-.3.7.3.8.4,0,.6,0,1.1,0,1.4h0ZM35,175.9c.2-.1.3-.2.5-.3,0,.2-.2.4-.3.6,0-.1-.2-.2-.2-.3ZM34.5,181.4c0,0,.2,0,.2-.1h0c0,0,0,1,0,1.4-.5,0-.8-.1-1.1-.3h0c0-.3-.2-.6-.4-.9.2,0,.5,0,.5,0,.2,0,.4,0,.5-.1h0ZM34.8,183.1c0,.4,0,.6-.2.9,0,.2-.1.3-.2.4-.6,0-.8-.4-.9-.6,0,0,0-.2.1-.3,0-.2.1-.4.1-.7.3.1.6.3,1,.2h0ZM34.1,184.7c-.7.1-1.2,0-1.6-.2.2,0,.3,0,.3-.1,0,0,.2,0,.2-.1h0c0,0,.1-.1.2-.2.1.2.4.5.8.6h0ZM33.9,185.9c.7-.3.9-.6,1-.7h0c0,0,0-.1,0-.2.2-.2.3-.5.4-.8.2-.6.2-1.2.2-2.2.2.1.4.1.6,0,.5.7,1.2,1.2,1.9,1.6.8.4,1.6.7,2.3.8h.1c0,.5,0,1.8,1,2.5,0,.4,0,1.7-.7,2.7-.4.4-1,.8-1.8.9-.7.1-1.6,0-2.4-.3h0c-.4-.2-.8-.4-1.1-.7-.4-.3-.7-.7-1-1.1l-.2-.3c-.3-.6-.7-1.3-.9-2.1.2,0,.3-.1.5-.2h0ZM34.4,172.3c0-.3,0-.6.2-.9.3-.5.5-.9.7-1.1.2-.3.3-.5.4-.7.5.3,1.2.8,1.9,1.1h0s1,.3.6,1.6c-1.1.2-2.2.6-3.2.9,0,0-.4-.3-.6-.7,0,0,0-.1,0-.2h0ZM31.7,176.1c0,.4.3.7.7,1,.1,0,.3,0,.4,0,0-.1,0-.3,0-.4-.4-.3-.7-.9-.5-1.5.4.8,1.7.6,2.1.9h0c.2.2.4.4.5.6,0,0,0,.1,0,.2-.2-.2-.6-.4-1.2,0h0c0,0-.2.1-.2.2-.4.4-.5.9-.5,1.4,0,.5.2,1.1.6,1.6.1.2.3.4.4.5h0s.2.2.2.2c-1.4.2-2-.8-2.5-1.5.4,0,1-.1,1-.1.2,0,.3-.3.2-.4,0-.2-.3-.3-.4-.2s-.2,0-.3,0c-.2,0-.3,0-.5-.2-.2-.2-.4-.4-.5-.6h0c0-.3-.2-.6-.4-.7-.4-.5-.8-.7-1.2-.9,1.3-.4,2-.1,2.2,0h0ZM41.4,201.6c-.3-.2-.8-.5-1.4-.9,0,0,0,0,0,0-1-.7-2.3-1.6-3.2-2.6,0,0-.1-.1-.2-.2-.4-.4-.8-1.2-.8-1.2-.3-.7-.3-1.5,0-2.2.2-.6.4-1.1.8-1.6,0,0,.1,0,.2,0-.2.3-.4.7-.5,1.1-.1.6,0,1.4.1,2.1h0c.6,1.7,4.7,4.1,4.7,4.1.1,0,.3,0,.4-.1,0,0,0,0,0,0,0-.1.7-1.7,1.1-3.2h0s0,0,0,0c.2-1,.4-2.1.2-2.7h0c-.2-.4-.4-.8-.7-1.1-.2-.2-.3-.3-.5-.5h.1c.3.1.6.4.8.7.2.3.5.7.6,1.1h0c.6,1.8-1.1,6.3-1.5,7.5h0ZM41.8,202.2c0,.6-.2,1.3-.2,1.9-.6-.2-1.1-.4-1.5-.5-.1,0-.2,0-.3-.1,0-.6.1-1.3.2-2,.8.5,1.4.9,1.4.9.1,0,.3,0,.4,0h0ZM39.5,201.1c0,.8-.1,1.5-.2,2.2-.2,0-.3-.2-.5-.3-.2-.2-.5-.4-.7-.7,0-.3.2-.7.2-1,0-.2.1-.5.2-.9.3.2.7.5,1,.7h0ZM38,200c0,.3-.4,1.7-.4,1.9-.2-.2-1.8-2.3-1.8-3.9.4.6.8.8.8.8.4.4.9.8,1.4,1.2ZM41.1,192.8c.2.1.3.3.5.4.2.3.4.6.6.9.2.5,0,1.3-.2,2.2l-1-.4c.1-.3.2-.7.3-1.1.1-.7.2-1.5-.1-2.1h0ZM41.8,196.8c-.3,1.1-.7,2.2-.9,2.7-.5-.3-1.5-.9-2.4-1.7l.4-1.1c.5.4,1,.7,1,.7,0,0,0,0,0,0,.1,0,.3,0,.4-.1.1-.3.2-.6.4-.9l1.1.4h0ZM40.7,194.7c-.1.7-.4,1.5-.7,2-.7-.4-2.3-1.6-2.6-2.4h0c0-.2-.1-.5,0-.7h0c0-.2.1-.4.2-.6.5,0,1,.1,1.4,0s1-.1,1.4-.3c.4.5.4,1.2.2,1.9h0ZM38.5,196.4l-.4,1.1c-.6-.5-1.2-1.1-1.3-1.6-.2-.6-.2-1.2-.1-1.8,0-.1,0-.2,0-.3,0,.3,0,.6.2.8.2.6.9,1.2,1.6,1.8ZM42.7,192.6c-.2-.3-.5-.5-.7-.7.5-.4,1-1,1.2-1.4.2,0,.6.1.6.1,0,0,.5.6.7.8.2.2,1.2.9,1.4.9-.3.3-1,.7-2.1.6-.4,0-1-.3-1-.3h0ZM46.9,189c-.6.9-1.4,1-1.8,1-.4,0-.8,0-1.2,0h0c0,0-.2,0-.2,0,.2-.6.5-1.4.6-2.2.3,0,.6,0,1,0,.3,0,.6.1.9.2.1,0,.7.2.9.2s.2,0,.2,0c0,.1-.2.6-.3.9h0ZM28.8,187.5h0c.6-.3,1.3-.4,1.8-.6.2,0,.4,0,.5-.1.2.7.5,1.7,1.1,2.6,0,0-.1.1-.2.2-.1.1-.3.2-.5.2-.5,0-1,.2-1.4.2-.5,0-.9,0-1.3-.2h0c-.8-.3-1.2-1.4-1.3-2.1h.3c.1,0,.3,0,.5,0,.2,0,.4,0,.5-.1h0ZM27.9,190.1c.2.2.4.3.6.4.5.2,1.1.3,1.6.2.5,0,1.1-.1,1.5-.2,0,0,.1,0,.2,0,0,.1-.2.3-.3.5,0,0-.1.2-.2.3-.1.3-.4.7-.9,1.1,0,0-.2.1-.4.1-.2,0-.3,0-.5,0-.2,0-.4.2-.4.4s0,.1,0,.2c.1.2,1.2,1.9,3.9,1.4h0c.3,0,.5-.1.7-.2,0,0,.2,1.1.3,1.5-.6.5-2.2,1.6-4.5,1.6-1.2-2.5-1.5-4.4-1.8-6.1v-.2s0,0,0,0c0-.3-.1-.6,0-.9h0c0-.1,0-.1,0-.1ZM34.8,196.4c.5,1.1.6,1.8.7,2.1-1.8,2-4.5,1.8-4.5,1.8-.6-.4-1-1.5-1.2-2.1,2.6,0,4.4-1.2,5.1-1.8h0ZM31,207.2c.2.5.5.9.8,1.3-.1.2-.2.3-.4.5-.4.4-.8.9-1.2,1.2-1-1.4-1.2-2.9-1.3-3.4h0c.4-.3,1-.7,1.4-.9.2.4.3.9.5,1.3h0ZM29.7,210.6c-.9.6-1.9.8-3,.4-.1,0-.5-.3-.9-.7.9-1.3,1.8-2.2,2.6-2.9.1.8.5,2,1.3,3.3h0ZM25.4,209.5c0-.3,0-.7.2-1.1,0,0,.6-1,2.3-1.6-.8.6-1.6,1.5-2.5,2.7ZM30.5,210.9c.5-.4,1-.9,1.5-1.5.3-.4,1.9-3.1,2.2-3.7.4.4,1,.9,1.6,1.2-.6,1.2-1.3,2.1-1.9,2.9-3.4,4-6.7,4.9-9.7,2.5-.1-.2-.3-.4-.3-.7-.1-.4,0-1,.3-1.7.2-.3.4-.6.5-.9,0,.4.2,1,.5,1.4.4.6,2.5,2.2,5.4.3h0ZM26.3,216.8c.8,1.2,1.7,2.5,4,3.1h.2c-1.2,1.2-4.7,4.4-5.9,2.1,0-.2-.2.3-.1.5,1.4,2.4,4.9-.5,6.4-1.9,0,0,0,.1,0,.2-.2.7-.2,1.5,0,2.2,0,.5.2,1,.3,1.4-.8.9-1.6,1.8-2.5,2.5h0c-.3.3-.5.5-.8.7-.9.6-1.8.8-2.6.7-.9-.1-1.7-.6-2.5-1.4-.2-.3-.5-.6-.7-.9h0c-1.5-2.2-.8-5.6-.6-6.4.3-1.1.8-1.9,1.1-2.5.2-.4.4-.8.6-1.3.2-.4.5-1.3.5-1.4,1.4.5,2.1,1.5,2.7,2.4h0ZM21.2,230.2c-2-1.4-2-3.2-2-4.5,0-.2,0-2.2,1.1-3.9,0,1.4.1,3.1,1.1,4.5.2.4.5.7.8,1,.9.9,1.9,1.5,2.9,1.6.4,0,.8,0,1.2,0-.7.5-1.3,1-1.8,1.3h0c-.5.3-1,.5-1.6.5s-1.1-.2-1.6-.5h0ZM22.2,231.4c-1.2.6-3.1,1.2-4.9.8-1.1-.3-2-.7-2.5-1.7-.6-1.1-.8-2.9-.7-6.2,0,0,.3-4.7.5-5.6.5-.3,2.6-1.4,5.9.7-.3.7-.5,1.4-.9,2-1,1.9-1.3,4.2-1.3,4.4,0,1.4.1,3.5,2.4,5h0c.4.3.9.5,1.4.6h0ZM30.5,230.2c0,.8.2,2.1.9,2.7,0,0,.1,0,.2,0,.1,0,.5.2,1.1.3h-7.3c2.5-.9,4.3-2.2,5.2-3h0ZM31.8,232.3c-1-.9-.5-3.2-.1-4.8.3-1.1.6-2.1.3-2.7-.2-.4-.4-1.1-.5-1.9,0-.7-.1-1.4,0-2,.1-.5.5-1,1-1.2.1,0,.3,0,.5-.1h0c.8-.1,1.3,0,1.8.1.4.1.6.4.9.6.2.7,1,2.6-.6,5.2,0,.2.3.9.8.7-.9.6-2.1,2.2-2.3,2.6-.1.3-.2.6-.2,1,0,.4.2.7.5,1,.2.2.5.4.8.5h0c1,.4,1.4.9,1.5,1.2-2.7.3-3.9-.2-4.4-.3h0ZM36.6,230.2c-.1-.1-2.1-1.2-2-1.7h0c.2.3,1.6.7,2.1,1.3.2.2.3.4.3.9,0-.2-.2-.3-.5-.5h0ZM36.9,231.3c-.2-.3-.8-.8-1.3-1.1-.4-.2-.9-.4-1.6-.6,0-.2,0-.4.1-.6,0,0,0-.1,0-.2.2.4,3,1.5,2.7,2.4ZM34.8,230.7c-.2,0-.4-.2-.5-.3,0,0-.1-.1-.2-.2.5.1,1,.3,1.3.5.6.3,1,.6,1.1.9.1.2.2.4.1.6-.2-.5-.8-1.1-1.9-1.5h0ZM37.5,230.4c0-1.1-2.3-1.7-2.6-2.4,0-.4,1.2-1.6,1.7-2,.5,0,1.2.2,1.8.9,0,0,.2.1.2.1-.3,1-.3,2.2.2,3.6,0,.2.2.3.4.2.1,0,.2-.1.2-.2,0-.2.6-1.4,2.9-.9.2.1.3.3.5.4,1.4,1.4,2.6,2.4,4.7,2.9.3,0,.6.1.8.1h-11.8c.2,0,.9-1,.8-2.8h0ZM47.8,232.4c-1.2-.3-2.5-.9-3.8-2.1h0c-.2-.2-.4-.4-.6-.6-.2-.2-.3-.3-.5-.4,0-.7.3-3.8,4.5-4.9,1.5.8,2.8,1.6,3.8,2.6h0s1.1.9,1.2,1c.2.2.3-.2-.2-.8,0,0-.1-.2-.2-.2.7-.2,2-.6,2.7-1.6.1.3.2.7.3,1,.3,2.9-.6,5.2-3.6,6.2-1.2.2-2.4.2-3.6,0h0ZM49.2,260.4h5.7c2.8-.1,2.7-.2,5.3,1.1l-.8-1.3c2,0,7.1-.1,7.1,2.8s-1.1,2.6-2.8,1.9c-.7-.4-1-.9-1.2-1.5-.4.8-.1,2,1.1,2.7,3,1.7,7.7.2,8.6-3.8.3.7.8,1.3,1.4,1.7-.2.6-.4,1.3-.3,1.9-5.4,6.4-9.5,4.7-16.1,0,1-.2,2-.8,2.4-1.5.3-.5-1.2.5-2.8.5-1,.3-3.4-1.2-3.6-1.4l-3.9-3.2ZM65.1,259.7h6.1c.5,3.3-1.5,6.4-5.1,6.1,1.6-.9,2.8-4.6-.9-6.1ZM82.9,266.5c3.3,0,6.4-3,5.7-6.8h4.5c0,.7,0,1.5-.4,2.1-.5,1-1.1,1.4-1.9,1.9l.2.5c1.1,2,0,4.4-2.1,5-1,.3-1.7,0-2.6-.2l-.2.5c-.5,1.3-1.7,2.3-3.2,2.3-1.4,0-2.7-1-3.2-2.3l-.2-.5c-.9.3-1.6.5-2.6.2-2.2-.6-3.2-3.1-2.1-5l.2-.5c-.8-.5-1.4-.8-1.9-1.9-.3-.6-.5-1.4-.4-2.1h4.5c-.7,3.8,2.4,6.8,5.7,6.8h0ZM78.2,259.7h9.3c.3,1.6-.2,3.2-1.3,4.4-1,1-2.2,1.4-3.3,1.4s-2.3-.4-3.3-1.4c-1.1-1.1-1.6-2.8-1.3-4.4ZM92.2,267.3c1.9,2.1,3.6,3.3,5.3,3.8.2,1.5-.3,2.3-.4,3.5-1.2-.1-2.2.4-3.5,0-.2-2.1-1.5-3.7-3.5-4.7,1-.5,1.8-1.4,2.1-2.5ZM81.2,272.4c.5.2,1.1.4,1.7.4.6,0,1.2-.1,1.7-.4-.2.9.1,1.9.8,2.5.8.7,1.6.8,2.6.6-.2,1.7-1.7,2.4-3.1,2.9-.8.3-1.6.8-2.1,1.3-.5-.5-1.3-1-2.1-1.3-1.3-.6-2.8-1.2-3.1-2.9,1,.2,1.8.1,2.6-.6.7-.6.9-1.5.8-2.5ZM75.7,269.8c-2.1,1-3.3,2.6-3.5,4.7-1.3.4-2.4,0-3.5,0,0-1.2-.6-2-.4-3.5,1.7-.5,3.4-1.7,5.3-3.8.4,1.1,1.1,2,2.1,2.5ZM67.5,275.1v.5c0,0-12.2-9.4-12.2-9.4,2.8,1.8,6.7,4,8.1,4.5,1.3.4,2.5.6,3.7.5-.2,1.7.6,2.7.4,3.9h0ZM67.7,275.9c.8-.3,1-.4,2.1-.2.7,0,1.4.1,2.3,0,0,.5.1,1,.3,1.5.3,1.5,1.2,2.9,2.3,4.2l-7-5.4h0ZM81.1,286.3c.5.3.9.6,1,.8l-1-.8ZM83,287.7l-.6-.5h.4s.2,0,.2,0h.6c0-.3,1-.9,2.3-1.7l-2.8,2.2h0ZM88.8,278.7c.1,2.5-1.8,4.9-3.5,5.9-.9.6-1.9,1-2.4,1.6-.5-.6-1.5-1-2.4-1.6-1.7-1.1-3.6-3.4-3.5-5.9,0-.7-1.2,1-1.3,2.2-1.2-1.1-2.6-4.3-2.5-6.1,0-.7.2-1.4.6-2,.6-1,1.7-1.9,3.4-2.5.6,0,1.1,0,1.7,0,.2.4.5.8.8,1.1.4.6.8,2,0,2.7-.8.7-2,.3-2.9.1-.4,5.4,4.1,4.3,6.1,7,2.1-2.6,6.5-1.6,6.1-7-.9.2-2.1.6-2.9-.1-.8-.7-.5-2.1,0-2.7.3-.3.6-.7.8-1.1.5.1,1.1.1,1.7,0,1.8.6,2.8,1.5,3.4,2.5.4.6.6,1.3.6,2,.1,1.8-1.3,5-2.5,6.1,0-1.1-1.2-2.9-1.3-2.2h0ZM90.5,281.8c1.4-1.4,2.5-2.9,2.8-4.7.2-.5.2-1,.3-1.5.8.2,1.6.1,2.3,0,1.2-.1,1.4,0,2.2.3l-7.6,5.9h0ZM98.3,275.8v-.6c-.3-1.1.5-2.1.3-3.9,1.2.1,2.4,0,3.7-.5,1.6-.5,6.2-3.3,9.1-5.2l-13.1,10.2h0ZM112.6,263.7c-.2.2-2.7,1.7-3.6,1.4-1.6,0-3.2-1-2.8-.5.4.7,1.4,1.3,2.4,1.5-6.5,4.7-10.7,6.4-16.1,0,0-.7,0-1.3-.3-1.9.6-.4,1.1-1,1.4-1.7.9,4,5.5,5.5,8.6,3.8,1.2-.7,1.5-1.9,1.1-2.7-.3.6-.5,1-1.2,1.5-1.7.7-2.8-.6-2.8-1.9,0-2.9,5.1-2.8,7.1-2.8l-.8,1.3c2.6-1.2,2.5-1.2,5.3-1.1h5.7c0,0-3.9,3.3-3.9,3.3h0ZM99.7,265.8c-3.6.3-5.6-2.8-5.1-6.1h6.1c-3.8,1.4-2.6,5.1-.9,6.1ZM118.1,260.4l.8-.7h0l-.9.7ZM83.6,258.6H8.9c-1.6-3.5-2.5-6.7-2.6-9.8-.1-3.2.5-6.2,1.9-9.1h0c.6-1.4-.2-2.1-1-2.6l2.2-2.8h147l2.2,2.8c-.8.5-1.6,1.2-1,2.6h0c1.4,3,2.1,6,1.9,9.1-.1,3.1-1,6.4-2.6,9.9h-73.4ZM117.3,215.1c-.1,0-.2,0-.3.1-.5,1.5-.6,1.7-.7,2,0,0-.3,1.2-.6,1.1,0,0-.4,0,0-1.3.2-.6.4-1.4.6-2.1,0-.1,0-.2-.1-.3-.1,0-.2,0-.3.1-.3.7-.5,1.5-.7,2.1-.2.7-.3,1.3-.5,1.2,0,0-.3,0-.1-.9.1-.4.3-.8.5-1.5.2-.6.4-1.1.4-1.3,0-.1,0-.2-.2-.3s-.2,0-.3.1c0,.1-.2.7-.4,1.2-.2.6-1.1,4-1.1,4-1.2-.6,1.7-7,1.6-7.6,0-.2-.1-.7-.1-.5,0,.2-.7,2.9-1.6,3.8-.4.4-.9,0-.9,0,.2-.2.4-.4.8-.9h0s.8-1.8.9-3.2h0c0-.2,0-.4,0-.6,0-.2.2-.4.3-.5.3-.3.6-.7,1.1-1.1.4-.4.9-.7,1.4-1,1.6.7,2,2.5,2.1,3.3-.3.4-.7.8-.9,1.4-.2.5-.4,1.1-.5,1.8h0c0,1-.3,1.7-.5,2.2-.3.9-.8,1.4-.9,1.4,0,0,.4-1.3.9-2.8,0-.1,0-.2-.1-.3h0ZM117.5,207.4c.3-.2.8-.4,1.7-.4.5,0,2,1.7,1.7,3.4,0,.1-.3.6-.9,1h0c-.1-1-.6-3.1-2.5-3.9h0ZM120.2,206.9c.5-.2,1.2-.6,2.3-1.1h0c1.8-.9,3-1.3,3.8-1.6.7-.2,1.1-.4,1.6-.7h0c.5-.4,1.2-1.2,1.8-2.1.4-.6.9-1.4,1.1-2,1.3,1.1,2.8,1.4,3.8,1.5-.2.3-.4.6-.6.9-.3.5-.7.9-1,1.5,0,0,0,0,0,0,0,0-1.3,2.7-4,3.5h0c-.7.3-3.1,1.1-3.1,1.1-1.6.6-3.3,1.1-4.2,1.5-.2-1.2-.8-2.1-1.4-2.6ZM120.5,194.6c-.1-1.3-1.2-1.7-1.2-1.7-.2,0-.6.1-.4.2.6.4.8.6.9,1.5v.3c0,.5,0,1.4.2,2.6-.8,0-2.6-.3-3.7-2l.2-.4c.6-1.5,1.3-3.4,2.5-5.5.2.3.5.6.8.7.4.2.9.3,1.4.3h.3c0,0-.6.9-1.7,1-.2,0-.3.2-.3.4s0,.1,0,.2c0,.2.8,1.7,3.1,1.4,0,0,0,0,0,0,0,0,.2,0,.3,0,0,.2-.1.3-.2.5-.4,1.2.1,3.6.7,5.5h0c0,.4,0,1,.2,1.6.2,1,.4,2.2.4,3.2-.3.1-.6.2-.9.4-1-2-1.6-3.7-2-5.1h0c0-.1,0-.2,0-.2l-.3-1.6c0,0,0-.1,0-.2-.2-1.3-.2-2.2-.2-2.7v-.3h0s0,0,0,0ZM106.3,190.2c-1.5-.9-2.1-1.9-2.2-2.3-.2-.3-.4-1.2-.4-1.3.3.5,1.4,2.2,2.7,3.1,0,0,.2,0,.3,0,0-.1,0-.2,0-.3-1.6-1-3.1-3-2.8-3.6.2.3,1.3,1.6,1.7,1.9.4.4.9.8,1.5,1.2,0,0,.2,0,.3,0,0,0,0-.2,0-.3-.6-.4-1-.9-1.4-1.2-1.9-1.4-1.6-2.7-1.7-2.9v-.2c0,0,.2.4.3.5h0c1.9,3.1,3.5,3.4,3.8,3.4.1,0,.3,0,.3-.1.1-.1,0-.4,0-.5,0,0-.2-.2-.3-.2h0c-.3-.4-.6-.9-.7-1.3,0-.4,0-.8.2-1.1,0,0,0,0,0,0,.1,0,0,.2,0,.2h0c-.1,1.5,1.5,2.6,1.5,2.7h0c1.6.8,1.7,2.9,1.8,3.1h0c0,.2,0,.4,0,.6,0,.2-.2.4-.3.6-.3.3-.7.5-1.2.6-.4,0-.9,0-1.2-.3h0c-.8-.6-1.5-1-2.2-1.2-1.4-.5-2-1.6-2-1.6-.2-.2-.5-1-.5-1.5.4.5,1.4,2,2.5,2.6,0,0,.2,0,.3,0s0-.2,0-.3h0ZM112.1,191.7c.2.2.5.7.7,1.4,0,0,0,.1,0,.2,0,0,0,0,0,0-.3.5-1.1,1.3-2.7,1.3-.2-.2-.6-.6-.9-1.2.8,0,2.1-.1,3-1.7h0ZM113,194.1c.6,1.1,1.3,2.2,1.8,3.2,0,.1,0,.2.1.3,0,0,.2.5.6.9.2.4.3.6.4.7h0c.3.5.5.9.7,1.3.2.4.3.8.4,1.1,0,.2.2.4.3.5.2.1,0-1.5,0-1.9,0-.2-.2-.4-.3-.6.8.4,1.8.7,3.1.8-.6,1.4-1.2,2.8-1.8,3.8-.5,1-1,1.6-1.4,1.7-.7.5-4.1,1-5-7.2,0-.9-.3-1.5-.4-2-.2-.6-.4-1.1-.6-1.6,1.1-.2,1.8-.7,2.2-1.1h0ZM116.1,198.2c-.2-.3-.4-.7-.6-1.1,0-.4.2-.8.3-1,1.4,1.9,3.4,2.2,4.3,2.1,0,.4.2.9.3,1.3v.2c-2.5-.2-3.7-1-4.3-1.6ZM137.9,166.4c.3.8.6,1.6.8,2.5,1.1,3.8,1.6,8,1.4,11.4-.2,3.3-1,5.8-2.6,6.4,0,0,0,0-.1,0-.6-.2-1.1-.4-1.6-.5-.1,0-.2,0-.4-.1.4-.2.9-.5,1.2-1.2h0s.6-1.5-.4-2.9c0,0-.5-.9.6-1.9h0c0,0,.1-.2.1-.3s0-.2,0-.2h0c0-.1,0-.2-.2-.2,0,0-.1,0-.2,0s0,0-.1,0h-.1c-.3.2-.8.3-1.2.5.2-.3.4-.5.5-.7h.1c.1-.3,0-.5,0-.6,0,0-.1,0-.2,0,0-.1.1-.2.2-.3s0-.1,0-.2c0-.1.1-.3.2-.4h0c.8-1,1.8-.9,1.8-.9.1,0,.3,0,.3-.2.1-.2,0-.4-.1-.5-.9-.5-1.7-.7-2.2-.8.1-.2.2-.4.3-.6h0c.1-.4.1-.8.1-1.1s0-.7-.1-1.1h0c-.3-1,.1-1.6.1-1.6,0,0,0-.1,0-.2,0-.2-.1-.4-.3-.4-.6,0-1.2,0-1.6.1.1-.4.2-.8.1-1.5,0,0,0-.1.1-.2,0,0,0,0,0-.1v-.6c0,0,0,0,0,0,0-.2,0-.4-.1-.5,0-.1-.2-.2-.4-.2h0c0-.3-.4-1.9.6-2.7.1-.1.1-.4,0-.5,0-.1-.2-.1-.3-.1,0,0-.3,0-.7.2.2-1.7,0-3.3-.2-3.8.4-.1.9-.4,1.1-.9h0c.2-.8-.3-1.9-.3-1.9,0-.2-.3-.3-.5-.2h0s-1.1.5-1.5,1.3h0c-.2.7.1,1.3.3,1.6-1.3,1.3-2,2.6-2.2,3.3-.2-.2-.4-.3-.6-.5-.2,0-.4,0-.5.1,0,0,0,.1,0,.2,0,0,.2,1.8-1,2.7h0c0,0-.4,0-.6.1l-.4.9h0c0,.1,0,.2,0,.2-.1.2-.2.4-.3.6,0,.2-.1.4-.2.7-.7-.7-1.4-.9-1.4-.9,0,0-.2,0-.3,0-.2,0-.2.3-.2.5.2.4.2.7.1,1.1-.1.3-.4.7-.8,1-.9.7-1,1.7-1,2.1-.2.2-.4.7-.2,1.4h0c0,.1.1.2.2.2,0,.1,0,.2-.1.4h0c-.2.7-.3,1.2-.6,1.7-.2.4-.5.8-.9,1.1h0c-.7.6-1,1.1-1.1,1.4,0,.4.1.7.3.9,0,0,.3.2.2.4,0,0,0,0,0,0,0,0,0,0-.1.1-.2.1-.2.2-.2.3s0,.2.2.4c-.2.2-.1.5,0,.6,0,0,.2.2.2.2,0,0,0,0,0,0-.1.4-.1.8,0,1.1s.3.5.5.6c.1,0,.2.1.3.2,0,0,0,0,0,0h.1c.4.4,1.2,1.1,2.8,1.1,0,.3.1,1.5-.7,1.9-.8.2-1.5.3-1.8.4-1.8.2-5.9-.2-5.7-6.9.2-4.2,2.5-9.1,5.9-13.8,3.7-5.1,8.7-9.9,13.6-13.3-.4,2-.9,7,1.5,13.6h0ZM155.1,209.5c.2,0,.5,0,.8.1.2.1.7.4.8.6h0c0,0,0,.1,0,.2,0,.1,0,.3,0,.4,0,.1-.1.2-.2.3,0,0,0,0,0,0-.2-.3-.4-.5-.6-.7-.3-.2-.6-.3-.9-.3-.1,0-.4.4-.2.3.7,0,1.4,1.1,1.4,1.1,0,0,.4.8-.4.9-.3-.8-1.3-1.3-1.4-1.2,0,.1.1.3.3.4,0,0,.5.4.6,1.1.2.6-.4.9-.8,1.1-.1-2.2-2.5-3-3.2-3.2,0-.1.1-.2.2-.2.2-.1.2-.3.1-.5,0,0,0,0,0,0-.2-.2-3-3.3-6.1-1.1-.1-.6-.3-1.4-.2-2.3,0-.7.1-1.4.4-1.9.2-.3.4-.5.7-.6.3-.1.6-.1.8-.1.2,0,.5.1.7.2.2.1.4.3.6.5h0c1.5,2,4,2.3,4.3,2.4h0s.9,0,1.2.6c.3.7,1.1.9,1.2.9,0,0,0,0,0,0,.5,0,1,0,1.3.3.1,0,.2.1.3.2,0,0,0,.2,0,.3s0,.2,0,.3c-.2-.2-.5-.3-.8-.4-.4-.2-1.3-.1-1.3,0,0,.1.2.2.3.2h0ZM150.8,210.2c-.3.4-.5.9-.6,1.3-1.7-1-3.7-.3-4.5,0-.2-.8-.4-1.3-.6-1.5,2.5-2.5,5-.5,5.7.2h0ZM145.9,213.4c0-.3,0-.6,0-.8,0-.1,0-.2,0-.3.6-.3,2.7-1.2,4.3,0,0,.2.1.4.2.6,0,.3.2.5.2.8-.4,0-.8,0-1.3,0h0c-1.6.2-2.6,1-3.3,1.7,0-.6.1-1.2,0-1.9h0ZM149.3,214.3h0c2.1-.3,3.1.6,3.5,1.2-.5.2-1.2.8-1.2,2.3-1-.4-3.2-1-6.2.9-.1-.2-.2-.5-.3-.7,0,0,0,0,0-.1.1-.3.2-.6.3-.8.2-.4,1.3-2.4,3.9-2.8h0ZM152.8,224.2c0-1,0-2-.2-3,0-.3,0-.6-.1-.9,1.4-.9,2.7-.8,2.7-.8h0c2.2.2,3.6-.4,4.3-1-.5,2.6-1.3,3.1-2,3.5s-1.2.8-1.4,2.4h0c0,.5,0,.9-.1,1.4-.2,2.8-.3,5.6-7,7.3-.3,0-.6.1-1,.2h-4.4c-4.5-.8-7.6-3.6-8-4-.1-.6-.3-1.3-.4-1.9-.2-1-.5-1.8-.3-2.2,1,1.1,2,2.1,3,3,1.4,1.2,2.6,2.1,3.5,2.7.3.2,4.5,2.8,7.7,2h0c1.3-.4,2.3-.8,2.9-2.1.6-1.2.9-3.2.8-6.5h0ZM125.6,215h0c-.1-.7,0-1.3,0-1.8.2-.6.4-1.1.8-1.5h.1c.4-.5.8-.9,1.2-.8.8.1,1.3.6,1.4.9-1.8,2.1-1.3,6.3-1.2,6.5.1,1.9-1.8,2.4-2.3,2.6l-2.2-1.3c.9-.6,2.5-2,2.1-4.6ZM130.3,225.4c-.1,0-.2,0-.3,0,0,0,0,0,0,0-.6-.1-1.4,0-2.2.7-.3-1-.8-3.3-.2-5,.2-.1.9-.6,2.4-.6-.2.9-.5,3.1.4,5h0ZM128.3,220c.3-.4.4-1,.4-1.7h0s-.1-1.2,0-2.6c.4.8.7,1.5,1,2.1.4.7.7,1.3.9,1.7-.1,0-.2.2-.3.3-.8,0-1.5,0-2,.2h0ZM129.8,217.2c.2.2,1.4,1.7,1.6,1.8,0,0,0,0-.1,0,0,0-.2.1-.2.1-.1-.2-1.1-1.8-1.2-2h0ZM129.1,214.8c1.1-.1,2.1-.3,2.9-.6,1-.3,1.8-.8,2.5-1.3.2.1.4.3.6.4,1.6,1,2.8,1.1,3.2,1.2.5,0,2,0,3.2-.6.3-.1.6-.3.8-.5,0,.1.1.2.2.4h0c-1.6.6-2.3,1.6-3,2.7-.8,1.1-1.5,2.3-3.6,2.8h0c-.2,0-.5,0-.7.1-.2,0-.4,0-.6,0-.1-.1-.3-.2-.5-.3-.2,0-.4-.1-.6-.2h0c-.4,0-.8,0-1.2,0-1.5-.9-2.5-2.3-3.2-4.1h0ZM131.7,213.5c-.8.3-1.8.5-2.8.6.2-.7.5-1.4.9-1.9.4-.2.8-.4,1.2-.7.4-.2.8-.5,1.1-.7.6.7,1.1,1.2,1.7,1.7-.6.4-1.3.8-2.1,1.1h0ZM129.8,211.3c-.3-.4-.8-1-1.9-1.1h0c-.8-.1-1.3.4-1.8.9h0c.4-.6.7-1.5.9-2.8.8-.3,1.7-.6,2.3-.8.2,0,.5-.2.7-.3.6,1.1,1.2,2.1,1.9,2.9-.6.5-1.3.9-1.9,1.2h0ZM126.7,221.3c-.3,1.4,0,2.9.2,4.1-1.1-1.6-2.8-2.4-3.9-2.9,1.3-.5,2.6-.9,3.7-1.2ZM127,229.7c-.5-.5-1.4-.9-2.9-.7,0-1.1-.7-3.8-4.3-5.1l2.2-1c.8.2,5.9,1.9,5,6.8h0ZM126.8,230.6c0,.1.1.2.2.2.2,0,.4,0,.4-.2.4-1.4.4-2.6.2-3.6,0,0,.2,0,.2-.1.6-.7,1.2-.9,1.8-.9.5.4,1.7,1.6,1.7,2-.3.7-2.5,1.3-2.6,2.4,0,1.8.6,2.7.8,2.8h-11.8c.3,0,.6,0,.8-.1,2.1-.5,3.2-1.6,4.7-2.9.2-.2.4-.3.5-.4,2.3-.5,2.9.7,2.9.9h0ZM129.7,230.2c-.2.2-.4.3-.4.5,0-.5.1-.7.3-.9.5-.6,1.9-1,2.1-1.4h0c0,.6-1.9,1.7-2,1.8h0ZM132,229c0,0,0,.1,0,.2,0,.2.1.4.1.6-.7.2-1.2.4-1.6.6-.5.2-1,.8-1.3,1.1-.3-.9,2.5-1.9,2.7-2.4h0ZM129.5,232.2c0-.2,0-.4.1-.6.2-.3.5-.6,1.1-.9.4-.2.8-.3,1.3-.5,0,0,0,.2-.2.2-.1.1-.3.2-.6.3-1.1.4-1.6,1-1.9,1.5h0ZM131.7,231.4h0c.4-.1.6-.3.8-.5.3-.3.4-.7.5-1,0-.3,0-.7-.1-1-.1-.4-1.4-2-2.3-2.6.4.2.9-.5.8-.7-1.6-2.6-.8-4.5-.6-5.2.2-.3.5-.5.9-.6.4-.2,1-.2,1.8-.1h0c.2,0,.3,0,.5.1.5.2.8.7,1,1.2.2.6.1,1.3,0,2-.1.8-.3,1.4-.5,1.9-.3.6,0,1.6.3,2.7.4,1.5.9,3.9-.1,4.8-.4.1-1.7.6-4.4.3.1-.3.5-.9,1.6-1.2h0ZM134.7,233c0,0,.1,0,.2,0,.7-.6.9-1.8.9-2.7.9.8,2.7,2.1,5.2,3h-7.3c.6-.1.9-.2,1.1-.3h0ZM146,221.9c1.1,1.7,1.1,3.7,1.1,3.9,0,1.2-.1,3.1-2.1,4.5-.5.3-1.1.5-1.6.5s-1.1-.2-1.6-.5h0c-.5-.3-1.1-.8-1.8-1.3.4,0,.8,0,1.2,0,1-.1,2-.7,2.9-1.6.3-.3.5-.6.8-1,1-1.4,1.2-3.1,1.1-4.5h0ZM145.6,219.4c3.3-2.1,5.5-1,5.9-.7.2.9.5,5.6.5,5.6.1,3.2-.1,5.1-.7,6.2-.5,1-1.4,1.4-2.5,1.7-1.8.4-3.7-.2-4.9-.8.5,0,.9-.3,1.4-.6h0c2.2-1.6,2.3-3.7,2.4-5,0-.2-.3-2.5-1.2-4.4-.3-.6-.6-1.4-.9-2h0ZM144.3,226h0c-.2.4-.5.7-.7.9-.8.8-1.6,1.3-2.4,1.4s-1.8-.1-2.6-.7c-.3-.2-.6-.4-.8-.6h0c-.8-.8-1.6-1.6-2.4-2.5.1-.4.2-.9.3-1.4.1-.8.1-1.6,0-2.2,0,0,0-.1,0-.2,1.4,1.3,5,4.2,6.4,1.9.1-.2,0-.7-.1-.5-1.1,2.4-4.7-.9-5.9-2h.2s0,0,0,0c2.3-.6,3.2-1.9,4-3.1.6-1,1.3-1.9,2.7-2.4,0,0,.4,1,.5,1.4.2.4.4.9.6,1.3.3.6.8,1.4,1.1,2.5.2.8,1,4.2-.6,6.4h0ZM142.4,211.8c0,.2-.2.5-.3.7-3,2.4-6.3,1.5-9.7-2.5-.6-.8-1.3-1.8-1.9-2.9.6-.4,1.1-.8,1.6-1.2.3.6,1.9,3.3,2.2,3.7.5.6.9,1.1,1.5,1.5,2.9,1.9,4.9.3,5.4-.3.2-.4.5-1,.5-1.4.2.3.4.6.6.9.3.7.4,1.2.3,1.7h0ZM135.2,205.5c-.2.5-.4,1-.6,1.4-.2.3-.4.6-.6.9-.8-1.2-1.2-2.3-1.4-2.7.6-.7.9-1.3,1-1.4.4-.5.7-1,1-1.5,0-.1.1-.2.2-.3-.1,1-.2,2.4.4,3.6h0ZM140.8,209.5c-.9-1.2-1.7-2.1-2.5-2.7,1.7.6,2.3,1.6,2.3,1.6.2.4.2.8.2,1.1h0ZM140.5,210.2c-.3.4-.8.7-.9.7-1.1.4-2.1.2-3.1-.4.9-1.2,1.2-2.5,1.3-3.3.8.7,1.7,1.6,2.6,2.9h0ZM136,210.2c-.4-.4-.8-.8-1.2-1.2-.1-.2-.2-.3-.4-.5.3-.4.6-.8.8-1.3.2-.4.4-.8.5-1.3.4.2,1,.6,1.4.8h0c0,.6-.3,2-1.3,3.4h0ZM130.8,198.5c0-.3.1-1,.7-2.1.7.6,2.5,1.9,5.1,1.8-.2.6-.6,1.6-1.2,2.1,0,0-2.7.2-4.5-1.8h0ZM129.8,197.9c0,0-.1.1-.2.2-.9.9-2.2,1.9-3.2,2.6,0,0,0,0,0,0-.6.4-1.1.7-1.4.9-.5-1.2-2.2-5.7-1.5-7.5h0c.1-.4.3-.8.6-1.1.2-.3.5-.6.8-.8h.1c-.2.2-.4.4-.5.6-.3.3-.5.7-.7,1.1h0c-.2.7,0,1.7.2,2.7,0,0,0,0,0,0h0c.4,1.6,1,3.1,1.1,3.3,0,0,0,0,0,0,0,.1.2.2.4.1,0,0,4.1-2.4,4.7-4.1h0c.2-.7.3-1.4.1-2.1,0-.4-.2-.8-.5-1.1,0,0,.1,0,.2,0,.4.5.7,1,.8,1.6.2.7.1,1.4-.1,2.2,0,0-.4.8-.8,1.2h0ZM130.5,197.9c0,1.6-1.6,3.7-1.8,3.9,0-.2-.3-1.5-.4-1.9.5-.4,1-.8,1.4-1.2,0,0,.3-.3.8-.8h0ZM128.2,202.2c-.3.3-.5.6-.7.7-.2.1-.3.2-.5.3,0-.7-.1-1.4-.2-2.2.3-.2.7-.4,1-.7,0,.3.1.6.2.9,0,.4.2.7.2,1h0ZM126.4,203.4c-.1,0-.2,0-.3.1-.4.1-.9.3-1.4.5,0-.6,0-1.2-.2-1.9,0,.1.2.2.4,0,0,0,.6-.3,1.4-.9,0,.7.1,1.4.2,2h0ZM122.5,192.9c-1.1.1-1.8-.2-2.1-.6.2,0,1.2-.7,1.4-.9.2-.2.7-.8.7-.8,0,0,.4,0,.6-.1.3.4.8,1,1.2,1.4-.3.2-.5.4-.7.7,0,0-.7.2-1,.3h0ZM125,194.8c0,.4.2.7.3,1.1l-1,.4c-.2-.9-.3-1.7-.2-2.2.1-.3.3-.7.6-.9.1-.1.3-.3.5-.4-.3.6-.3,1.3-.1,2.1h0ZM128.8,194.4h0c-.3.8-1.9,2-2.6,2.4-.2-.6-.5-1.3-.7-2-.1-.7-.1-1.5.2-1.9.5.2.9.3,1.4.3.5,0,1,0,1.4,0,.1.2.2.4.2.6h0c0,.2,0,.5,0,.7h0ZM129.3,194.6c.1-.2.2-.5.1-.8,0,.1,0,.2,0,.3.1.6,0,1.2-.1,1.8-.2.5-.7,1-1.3,1.6l-.4-1.1c.7-.5,1.4-1.2,1.6-1.8h0ZM125.8,197.3c0,.1.2.2.4.1,0,0,0,0,0,0,0,0,.5-.3,1.1-.7l.4,1.1c-.9.7-1.9,1.4-2.4,1.7-.2-.5-.6-1.6-.9-2.7l1.1-.4c.1.4.3.7.4.9h0ZM125.5,192c-.6-.5-1.6-1.4-1.9-2-.3-.7-.6-1.5-.8-2.5.5,0,.8-.1.8-.1,0,0,0,0,.1,0,.1,0,.3,0,.4,0,0,.7,0,1.9.8,2.9h0c.5.6,1.3,1,2.2,1.1.9.1,1.8,0,2.7-.4.5-.2.9-.5,1.3-.8.4-.4.8-.8,1.1-1.3,0,0,0,0,0,0v-.3c.5-.6.9-1.4,1.1-2.2.3,0,.7.1,1.1.1-.1.6-.5,1.7-1.1,2.8-.2.4-.6.8-.6.9-.4.5-1,.9-1.5,1.3-3.1,2.2-5.7.8-5.8.7h0ZM123.5,182.8c-.4.1-.7,0-.9,0-.2,0-.3,0-.5-.2-.1,0-.2-.2-.3-.4,0-.2,0-.4,0-.8,0,0,0,0,0,0,.3,0,.7,0,1-.2.4-.1.7-.4.9-.6,0,0,0,0,0,0,.2,0,.3,0,.5-.1.2,0,.3-.4.2-.4-.3.2-.9.4-1.5,0-.2-.2-.5-.4-.7-.4-.2,0-.5,0-.5,0,0,0,0-.4,0-.5h.2c.2,0,.3-.2.5-.1.3.3.8.1.8.1.3-.1.3-.5.3-.6,0-.2-.2-.4-.5-.6,0,0-.2,0-.2.1.3.1.4.5.3.6h0s-.3.3-.6,0c0,0-.1,0-.2,0,0,0-.2.1-.4.1-.1,0-.4,0-.5-.1h0c-.1-.1-.2-.2-.2-.4,0-.2.3-.6.9-1.1h0c.4-.4.7-.8,1-1.3.2-.5.4-1,.6-1.7,0-.1,0-.3.2-.4.2,0,.4,0,.7,0,1.2,0,3.2.2,5.4,1.2.4.7.7,1.4.8,1.8,0,.3,0,.7,0,.7,0,.7,0,1.4,0,1.4-.2,1.4-.9,2.3-1,2.4,0,0-1.2,1.3-1.9,1.7-.7.4-1.4.7-2.1.7-.1,0-.5,0-.6,0-1.1,0-1.8-.4-2.3-.7.1,0,.2,0,.3-.2.1,0,.2-.4,0-.3h0ZM122.4,180.5c.2,0,.7,0,1,0-.1,0-.5.3-.7.4-.3.1-.7.2-1,.2,0,0-.3,0-.4-.2-.1-.4.6-.4,1-.4h0ZM121.3,180.1c0-.1,0-.2.1-.2,0,0,.3.2.3.2,0,0,.3-.2.4-.2.2,0,.5.3.7.4h.2c-.1.1-.5,0-.6,0-.3,0-.7,0-1,0-.1-.1-.2-.3-.2-.3h0ZM127.3,172.2c-1.1-.2-2.2-.3-3.2-.2,0-.3.2-.9.7-1.3.6-.4.9-.9,1.1-1.4,0-.2.1-.5,0-.7.6.4,1.3,1.2,1.4,2.5h0c0,.3-.1.6,0,1h0ZM133.7,175c-.1.1-.3.2-.7.2h0c-.3,0-.6.1-.8.2-.1,0-.2,0-.3,0-2.9-1.9-5.8-2.1-7.3-2.2-.3,0-.8,0-.8,0-.1-.3,0-.5,0-.6,3.7-.3,7.8,1.3,9.8,2.3h0ZM133.6,167.8c0,.2,0,.4.1.5l-5.5-1.2c.1-.1.2-.2.3-.4l5,1h0ZM129.2,166.2c.6-.7.8-1.6.9-2.2,0,0,.3.4.4.5.4.7.5,1.6.5,2.1l-1.8-.4ZM133.3,165c.1,0,.3-.1.3-.1-.3.9-.2,1.8-.2,2.2l-1.7-.4c.3-.8.9-1.4,1.6-1.7ZM133.1,158.7c.1-.3.5-.6.8-.7.1.3.2.7.1,1.1-.1.3-.5.5-.7.5-.1-.2-.3-.6-.2-.9h0ZM132.9,164.4c-.5.3-1,.6-1.4,1.1,0-.5-.2-1-.5-1.4.1-.5.6-1.8,1.9-3.2.1.8.3,2.1,0,3.5h0ZM133.8,169.1c0,1.1,0,1.4-.4,1.6-.4.2-.8.5-1,.7,0-.1,0-.2-.1-.3-.3-.5-.5-.9-.7-1.1-.3-.4-.4-.6-.4-.9s-.2-.4-.4-.4-.2,0-.2,0c-.2.1-1.2.9-2.2,1.3,0,0-.2,0-.5.3,0-.3-.2-.5-.3-.8,0,0,0,0,0,0-.2-.4-.1-.9,0-1.4,0-.1,0-.2.1-.3h0l5.9,1.3h0ZM135.4,172.6c0,.3.1.6.1.9s0,.6-.1.9h0c0,.1-.1.3-.2.5h0c-.2,0-.4-.2-.8-.3,0-.2-.1-.4-.1-.4,0-.1-.2-.2-.4-.1,0,0-.1.1-.1.2-.5-.2-1.1-.5-1.7-.7.2-.2.5-.6.6-1.1.2-.5.8-1.4,2.8-1.5-.1.4-.2,1,0,1.7h0ZM135.6,182.4h0c.8,1.2.3,2.3.3,2.3-.5,1.2-1.8,1.2-2.8.8,1.2-.2,1.8-.9,2.1-1.4,0-.1.1-.2.2-.4,0,0,0,0,0-.1.4-1.3-1-1.5-1.1-1.5-.2,0-.4.1-.4.3,0,.2.1.4.3.4,0,0,.5,0,.5.4,0,0,0,0,0,0h0s0,0,0,.2c-.3.7-1,.4-1,.4,0,0,0,0,0,0,0,0,0,0,0,0h0c-.1,0-.2-.2-.3-.4,0-.2-.1-.4,0-.8,0-.2.2-.5.4-.8h0c.4-.6,1.3-1.1,2.2-1.4-.6,1-.1,1.9,0,2h0ZM131.4,179.4c0-.1,0-.2,0-.3,0-.2.1-.8,0-1.4,0-.2.3-.7.8-.4,0,0,0,0,.1.1.2.2.4.6.3,1,0,.4-.2.9-.5,1.3-.1.1-.2.3-.4.4h0c-.1.1-1.1,1.1-1.1,1.1.2-.4.5-1.1.7-1.9h0ZM131.1,176.2c0-.2-.2-.4-.3-.6.2,0,.3.2.5.3-.1,0-.2.2-.2.3ZM131.5,181.3h0c0,0,.2,0,.2,0,.2,0,.4.1.5.1,0,0,.4,0,.6,0-.2.3-.3.6-.4.9h0c-.2.2-.6.4-1.1.4,0-.4,0-1.4,0-1.4h0ZM132.4,182.8c0,.3,0,.5.1.7,0,0,0,.2.1.3-.1.2-.4.5-.9.6,0-.1-.1-.3-.2-.4,0-.2-.1-.6-.2-.9.4,0,.7,0,1-.2h0ZM133,184.1c0,0,.1.1.2.1h0c0,0,.2.1.2.1,0,0,.2,0,.3.1-.4.2-.9.3-1.6.2.4-.1.7-.4.8-.6h0ZM134.6,178.4c-.1.1-.3.2-.5.2,0,0-.2,0-.2,0-.2,0-.4,0-.4.2,0,.2,0,.4.2.4,0,0,.7.2,1,.1-.5.6-1.2,1.7-2.6,1.5h.1c0-.1,0-.2,0-.2.2-.2.3-.3.4-.5.4-.5.6-1.1.6-1.6,0-.6-.1-1.1-.5-1.4,0,0-.1-.1-.2-.2h0c-.6-.4-.9-.2-1.2,0,0,0,0-.1,0-.2,0-.2.2-.4.5-.6h0c.5-.3,1.8-.1,2.1-.9.2.5-.1,1.2-.5,1.5-.1,0-.2.3,0,.4,0,.1.3.2.4,0,.4-.3.6-.6.7-1,.2-.1.9-.4,2.2,0-.4.2-.8.4-1.2.9-.2.2-.3.4-.4.6h0c0,.3-.3.6-.5.8h0ZM131.9,172.3c0,0,0,.1,0,.2-.1.4-.5.6-.6.7-1-.3-2.1-.7-3.2-.9-.4-1.3.6-1.6.6-1.6h0c.7-.3,1.5-.8,1.9-1.1,0,.2.2.4.4.7.2.3.4.6.7,1.1.2.4.2.7.2.9h0ZM125.8,184.5h.1c.8,0,1.6-.3,2.3-.8.7-.4,1.3-1,1.9-1.6.2,0,.4,0,.6,0,0,.9,0,1.7.2,2.2.1.3.2.6.4.8,0,0,0,0,0,.1h0c0,.2.3.5,1,.8.1,0,.3.1.5.2-.2.7-.6,1.5-.9,2.1v.3c-.4.4-.8.8-1.1,1.1-.3.3-.7.5-1.1.7h0c-.8.3-1.6.4-2.4.3-.8-.1-1.4-.4-1.8-.9-.7-1-.7-2.3-.7-2.7,1.1-.6,1-1.9,1-2.5h0ZM131.2,192.8c-.1-.1-.2-.3-.3-.4.3-.2.6-.3.8-.5.6-.4,1.1-.9,1.6-1.4h0s0,0,0-.1c.3.3.4.4.7,1h0c0,0,0,.1.1.2.2.4.4.9,1.1,1.4h0c.2.1.4.2.6.2h0c-.4.4-1.3,1-2.8.7-.4,0-.7-.2-1-.4-.3-.2-.6-.4-.9-.7h0ZM131.6,194.1c0,.1,0,.5-.1.7,0,.2-.1.5-.2.7,0-.4,0-.7-.1-1.1,0-.3-.2-.6-.3-.8.3.2.7.6.7.6h0ZM136.5,197.5c-2.3,0-3.9-1.1-4.5-1.6.1-.4.4-1.4.3-1.5.2,0,.4.1.7.2h0c2.6.5,3.7-1.2,3.9-1.4,0,0,0-.1,0-.2,0-.2-.2-.4-.4-.4s-.3,0-.5,0c-.1,0-.3,0-.4-.1-.5-.4-.7-.8-.9-1.1,0-.1-.1-.2-.2-.3-.1-.2-.2-.4-.3-.5,0,0,.1,0,.2,0,.5.1,1,.2,1.5.2.6,0,1.1,0,1.6-.2.2,0,.4-.2.6-.4h0c0,.4,0,.8,0,1.1h0c0,0,0,.2,0,.2-.3,1.6-.6,3.6-1.8,6.1h0ZM137.5,189.8h0c-.4.2-.9.2-1.3.2-.5,0-1-.1-1.4-.2-.2,0-.3-.1-.5-.2,0,0-.1-.1-.2-.2.6-1,.9-2,1.1-2.6.1,0,.3,0,.5.1.6.1,1.2.3,1.8.6h0c.2,0,.4.1.6.2.2,0,.3,0,.5,0h.3c-.2.7-.5,1.8-1.3,2.1h0ZM121.2,187.7c.3,0,.7,0,1,0,.2.9.3,1.6.6,2.2,0,0-.2,0-.2,0h0c-.4,0-.8,0-1.2,0-.4,0-1.3,0-1.8-1-.1-.2-.2-.7-.3-.9,0,0,.2,0,.2,0,.2,0,.8-.2.9-.2.3-.1.6-.2.9-.2h0ZM123.3,210.6s0-.6.5-1.2c.7-.2,1.5-.5,2.2-.8h0c-.6,2.8-1.8,3.7-2.2,4-.7-.6-.6-1.8-.6-2.1ZM124.2,213.4s0,0,0,0c.2-.1.6-.4,1-.9,0,.2-.2.4-.2.6-.2.6-.2,1.3,0,2h0c.2,1.6-.4,2.7-1.1,3.4-.3-.1-1.4-.8-2.4-2.2.5-.4.9-.8,1.3-1.1.7-.6,1.2-1.2,1.5-1.8h0ZM123.3,218.8c-.4.3-.7.4-.7.4-.2,0-.3.3-.2.5,0,0,0,.1.2.2l2.2,1.3c-.3.4-2.6.9-4.3,0-.2,0-.6-.4-.9-.6-.2,0-.1.4,0,.5.7.7,1.6,1,2.4,1.1-.9.3-1.8.7-2.6,1.1-.7,0-3.1-.2-4.3-2.3,1.5-1.3,3.2-2.5,5-3.7h0c.3-.2.5-.4.7-.6,1,1.3,1.9,1.9,2.4,2.2h0ZM118.2,223.8c-1.4.7-2.6,1.6-3.6,2.5-.5,0-2.2-.5-2.8-1.7.5-.9,1.3-1.8,2.3-2.7.2-.1.3-.3.5-.5.9,1.6,2.5,2.2,3.6,2.4h0ZM114.2,226.9s-.1.2-.2.2c-.5.6-.4,1-.2.8.1-.1,1.2-1,1.2-1h0c1-1,2.3-1.8,3.8-2.6,4.2,1.2,4.5,4.2,4.6,4.9-.2.1-.3.3-.5.4-.2.2-.4.4-.6.6h0c-1.3,1.2-2.5,1.9-3.8,2.1-1.2.3-2.4.2-3.6,0-3-1-3.9-3.3-3.6-6.2,0-.3.1-.7.3-1,.7,1,2,1.4,2.7,1.6h0ZM160.5,259.7h-2.8s0-.2,0-.2c1.8-3.8,2.7-7.3,2.8-10.6.1-3.3-.5-6.5-2-9.6-.4-.8.5-1.3,1-1.5l.6-.3-3.3-4.1h-6c5.5-1.8,5.6-4.6,5.8-7.4,0-.4,0-.9.1-1.3h0c.2-1.3.6-1.5,1.1-1.9.9-.6,1.9-1.2,2.5-5.2,0-.2-.1-.4-.3-.4-.1,0-.3,0-.4.2,0,.1-1.1,1.8-4.5,1.6-.1,0-1.4-.1-2.9.7,0-.4-.1-.8-.2-1.2h0c0-2.1.9-2.2,1-2.2s.1,0,.2,0c.2,0,.3-.3.2-.5,0,0-.5-1.4-2.4-1.9-.1-.4-.2-.8-.4-1.1,0-.2-.1-.3-.1-.5,0,0,0-.4.2-.7.4,0,3,.8,2.7,2.9,0,.2.1.4.3.4h.1s1.9-.4,1.8-1.5c.4-.2,1-.7.9-1.5.2-.1.4-.3.5-.6.1-.2.2-.5.1-.8,0,0,0-.1,0-.2.2-.3.2-.6.2-.8s0-.5-.2-.7c-.1-.2-.3-.3-.5-.5-.4-.3-1.1-.4-1.7-.4-.1,0-.6-.1-.7-.5h0c-.5-.8-1.8-1-1.8-1h0c-.2,0-2.5-.4-3.8-2.1h0c-.2-.3-.5-.5-.8-.7-.3-.2-.6-.3-1-.4h0c-.3,0-.7,0-1.1.2-.4.1-.8.4-1.1.9-.4.6-.5,1.5-.5,2.3,0,1.1.2,2.2.4,2.8-.1.1-.3.3-.4.4-.1.1-.1.4,0,.5,0,0,.5.4.7,1.8,0,.2,0,.4,0,.6,0,.2,0,.5,0,.8h0c0,.8,0,1.5,0,2.2,0,.4-.2.8-.3,1.2,0,0,0,0,0,0h0s0,.1,0,.2l-.2-.4h0c-.2-.4-.4-.8-.6-1.2-.1-.4-.3-.7-.4-1.1h0c0-.2-.1-.4-.2-.6h0s0,0,0,0c0-.1,0-.2-.1-.3,0-.2-.2-.4-.3-.7.2-.2.3-.5.4-.8.1-.6,0-1.3-.4-2.2-1.8-3.5-5.2-3.9-5.9-4-.5-.3-.9-.5-1.1-.6-.8-1.7-.2-3.8,0-4.3,1-.8,1.6-2.7,1.6-2.9,0,0,0,0,0-.1,0-.1,0-.2-.2-.3,1.2-2.5,1.5-4.4,1.7-6v-.2c.1-.4.1-.8.1-1.1,0-.3,0-.6-.1-.9.5-.9.6-1.9.6-2.1,0-.1,0-.2-.1-.3-.1-.1-.4-.1-.5,0s-.3,0-.5,0h0c1.4-1,2.2-3.5,2.4-6.7.2-3.5-.3-7.8-1.4-11.7-.2-.9-.5-1.7-.8-2.5-3-8.2-1.3-13.9-1.3-14.1,0-.1,0-.2,0-.3-.1-.2-.3-.2-.5-.1-5.1,3.4-10.5,8.5-14.5,14-3.5,4.8-5.9,9.8-6.1,14.2-.2,5.1,1.9,6.9,3.9,7.4,0,0-.5.3-.9.1h0c0,0-.2,0-.3-.1-.1-.1-.4-.1-.5,0s-.1.2,0,.3c0,.1,0,.7.3,1.3-1.4,2.3-2.2,4.4-2.8,6l-.2.4c-.1,0-.5.4-.7.8-.5-.9-1-1.8-1.5-2.6,0-.1,0-.2.1-.2,0,0,0-.1,0-.2-.4-1.5-1.3-2.1-1.3-2.1,0,0,0,0,0,0,0,0-.1,0-.2,0,0-.4-.3-2.7-2.1-3.7-.2-.1-1.3-1-1.2-2,0-.2-.3-1.7-1.4-.7,0,0-.6.6-.3,1.7,0,.2.1.5.2.8-.6-.4-1.3-1.2-2.1-2.5,0,0-1-1.5-1.4,0,0,0-.1.5,0,.9-.4.5-.9,3.1,0,4.5.4.7,1.2,1.2,2.2,1.8.7.4,1.4.8,2.1,1.3,0,0,0,0,.2.1,0,0,0,.1,0,.2.4,1.2,1.3,2,1.4,2.1,0,0,.1,0,.2,0h.2c.2.6.5,1.1.7,1.7h0c.1.4.3,1.1.4,1.9.6,2.9,1.4,7.4,4.3,8,.4.1,1.4,0,1.7-.3.1-.1,1.1-1,1.6-2,.6-1.1,1.3-2.6,1.9-4,.4,1.2,1,2.7,1.8,4.4,0,0-.2.1-.3.2h0c-1.3.6-2,1-2.6,1.3,0,0,0,0,0,0,0,0-.1,0-.2,0-2.2-.1-2.8,1.1-2.8,1.1h0c0,0,0,.1,0,.2-.5.3-.9.6-1.3.9-.5.4-.9.9-1.2,1.2h0c-.2.2-.3.5-.4.8,0,.2-.1.5-.1.8-.2,1.2-.8,2.8-.9,2.9-.2.4-.4.6-.6.7s-.3.2-.3.4c0,0,0,.1,0,.1,0,.1,0,.2.1.3.1.1.3.2.5.3.2,0,.4.1.7.1h.2c-.4,1.3-.6,2.6-.5,3.3.1.6.5.8,1.1.7.1,0,.2-.1.3-.3,0-.1,0-.3.1-.5,0-.2.1-.5.2-.8,0,0,.2,0,.3,0,0,0,0,0,.1,0,.2,0,.3,0,.4-.2.2.1.3.2.5.2h0c.3,0,.5-.1.6-.3.1,0,.3.1.5,0h0c.2-.1.7-.6,1.1-1.6.2-.6.4-1.4.6-2.4,0-.6.2-1.1.5-1.6.2-.3.3-.6.5-.9,0,0,.2,0,.2,0,1.3-.4,1.8-1.5,1.8-1.6h0s0-.3,0-.4c.3-.1.7-.3,1.3-.5-.2.2-.3.7-.3.7,0,0-.2,1.8.8,2.7-.3.4-.8.9-1.3,1.5-.6.6-1.4,1.3-2.3,1.9-1.8,1.2-5.4,4-5.4,4-.3.2-.5.5-.8.7-1,1-2.1,2.4-2.5,3.1-.3.6-.5,1.2-.6,1.8h0c-.2,1.8,0,3.5.8,4.7.7,1.1,1.8,2,3.4,2.2h0c.2,0,.3,0,.5,0h-6v-35.1c-1.7-.7-2.5-2.1-3.2-3.5-.9-1.7-1.6-3.1-3.8-3.3h0v-24.8c0,0-.1,0-.2-.1,1.3-5,2.8-10.1,4.7-15.2,1.8-4.9,3.8-9.8,6.2-14.6,2.3-4.8,4.9-9.5,7.9-14.2,2.7-4.3,5.7-8.5,8.9-12.7,7,7.6,12.5,15.7,16.6,24.2,4.3,8.8,7.3,18,9.4,27.5,2.1,9.8,3.4,19.9,4.1,30.2.7,10.3,1,20.8,1.2,31.2l-.4,36.9h-.1Z"/>
      <path class="st0" d="M164.7,191c-.8-10.5-2-20.8-4.2-30.7-2.2-10-5.4-19.7-9.9-28.9-4.5-9.2-10.4-17.9-18.2-26-1.7-10.9-3.9-21.3-6.8-31.2-2.8-9.8-6.2-19.1-10.2-27.9-4-8.7-8.6-16.9-13.8-24.4-4.6-6.6-9.6-12.7-15.1-18.3L82.9,0l-3.5,3.5c-5.5,5.6-10.6,11.8-15.1,18.3-5.2,7.6-9.8,15.7-13.8,24.4-4,8.8-7.4,18.1-10.2,27.9-2.8,9.9-5.1,20.3-6.8,31.2-7.8,8.1-13.7,16.8-18.2,26-4.6,9.2-7.7,18.9-9.9,28.9-2.2,10-3.4,20.3-4.2,30.7-.7,10.4-1,21-1.2,31.6h0c0,9,.2,18.3.3,27.6,0,4.6.2,9.1.2,13.7v.7l44.3-.3c12.7,9.9,25.4,19.7,38.2,29.6l38.2-29.6,44.3.3v-.7c0-4.5.1-9.1.2-13.7.1-9.3.3-18.6.3-27.6h0c-.2-10.6-.5-21.2-1.2-31.6h0ZM164.5,222.7c0,9.3-.1,18.4-.3,27.6,0,4.3-.1,8.7-.2,13l-43.4-.3c-12.2,9.5-26.6,20.7-37.7,29.2-11.1-8.6-25.5-19.8-37.7-29.2l-43.4.3c0-4.3-.1-8.6-.2-13-.1-9.1-.3-18.2-.3-27.6h0c.2-10.6.5-21.1,1.2-31.6.7-10.4,2-20.6,4.2-30.5,2.2-9.9,5.3-19.5,9.8-28.6,4.5-9.1,10.4-17.8,18.1-25.8l.2-.2v-.2c1.7-10.9,3.9-21.4,6.8-31.3,2.8-9.8,6.2-19,10.2-27.7,4-8.6,8.5-16.7,13.7-24.2,4.3-6.3,9.1-12.1,14.3-17.5.8-.9,2-2.1,3.1-3.1,1.1,1,2.3,2.3,3.2,3.2,5.2,5.4,9.9,11.2,14.2,17.4,5.2,7.5,9.8,15.6,13.7,24.2,4,8.7,7.4,17.9,10.2,27.7,2.8,9.9,5.1,20.4,6.8,31.3v.2s.2.2.2.2c7.7,8.1,13.6,16.7,18.1,25.8,4.5,9.1,7.6,18.7,9.8,28.6,2.2,9.9,3.4,20.1,4.2,30.5.8,10.4,1,21,1.2,31.6h0Z"/>
      <path class="st0" d="M125.1,175.7s.4,0,.6.3c0,0,.4.4.8.4,0,0,.4,0,.7-.3,0,0,0-.2,0-.2-.3.3-.7.4-1.1,0h0c-.3-.4-.9-.4-.9-.4-1.3,0-1.6.9-1.5.9,0,0,.4-.7,1.5-.7h0Z"/>
      <path class="st0" d="M123.8,175.6s.5-.9,1.6-.8h0c.7,0,.9.2,1.1.5.4.6,1.2.7,1.7.5,0,0,.5-.4.4-.3-.5.3-1.4.2-1.7-.4-.2-.4-.5-.7-1.3-.7-1.3,0-2,1.2-1.9,1.3,0,0,.2,0,.2,0Z"/>
      <path class="st0" d="M125.5,177.3h0c.5,0,.9-.2,1.1-.3.2,0,.3-.5.3-.4-.4.3-.8,0-.8,0,0,0,0,0,0-.1-.2-.2-.4-.4-.8-.5h0c-.7-.1-1.3.6-1.4.7h0c0,.1,0,.2,0,.3.8.5,1.7.4,1.7.4h0ZM125.4,176.5c0,0,.2.2.2.2,0,0,.1.1.2.2-.1,0-.2,0-.4,0h0c0,0,0-.2,0-.3s0-.1,0-.2h0ZM124.6,176.9c-.1,0-.3,0-.4-.2.1-.1.3-.3.5-.4,0,0,0,.2,0,.3s0,.1,0,.2h0Z"/>
      <path class="st0" d="M41.1,175.5s-.6,0-.9.4h0c-.4.5-.8.4-1.1,0,0,0,0,.1,0,.2.2.3.7.3.7.3.4,0,.8-.4.8-.4.2-.3.6-.3.6-.3,1,0,1.4.7,1.5.7s-.2-1-1.5-.9h0Z"/>
      <path class="st0" d="M40.7,174.4c-.8,0-1.2.4-1.3.7-.3.5-1.2.7-1.7.4,0,0,.3.3.4.3.5.2,1.3.1,1.7-.5.2-.3.4-.5,1.1-.5h0c1.1,0,1.6.8,1.6.8,0,0,.2.1.2,0s-.6-1.3-1.9-1.3h0Z"/>
      <path class="st0" d="M42.5,176.7c0-.1-.7-.8-1.4-.7h0c-.4,0-.6.3-.8.5,0,0,0,.1,0,.1,0,0-.4.3-.8,0,0,0,0,.3.3.4.2,0,.6.3,1.1.3h0s.9.1,1.7-.4c0,0,.1-.2,0-.2h0s0,0,0,0ZM40.8,177c-.1,0-.3,0-.4,0,0,0,.1-.1.2-.2,0,0,.1-.2.2-.2,0,0,0,.1,0,.2,0,.1,0,.2,0,.3h0ZM41.7,176.9c0,0,0-.1,0-.2,0-.1,0-.2,0-.3.2,0,.4.2.5.4-.1,0-.3.1-.4.2h0Z"/>
      <path class="st0" d="M40.3,239.9c.5.9,2.2,2.5,2.9.8-.6-.2-1.5-.5-1.6-1.3,2.1-.6,4.3,1.4,5.3,2.1.5-.4.8-.7,1.3-1.3-1.9-2-6.5-3.7-8-.3h0Z"/>
      <path class="st0" d="M52.8,245.6c-.4,1.4.9,3.4.2,5.4-1.1,0-2.3-.8-2.2-1,.7-1.4,3.3-6.9,0-6.9-.8,0-1.4.5-1.9,1.3,1.2.2,1.8.6,1.8,1.5,0,1.5-1.2,3.8-1.8,4.6.9,1.2,2.1,2.2,3.8,2.6,5.3-1.4-.6-8.2,3.3-8.2v8.3l2.1-1.4v-8.7c-1.4,0-4.4-.4-5.4,2.5h0Z"/>
      <path class="st0" d="M127,250.1v-7l-2.2,1.5v5.9c0,1.8,1.3,2.6,2.3,2.6.9-.5,1.4-1,1.7-2.2-.6.5-1.7.7-1.7-.7h0Z"/>
      <path class="st0" d="M135.1,243.1l-2.2,1.5c.9,0,1.5.3,1.5.8v7.8s2.2-1.5,2.2-1.5v-6.8s2.9,0,2.9,0v8.4c0,0,2.1-1.4,2.1-1.4v-8.7s-6.6,0-6.6,0h0Z"/>
      <path class="st0" d="M18.6,250.4l-2.9-1.8v-3.9c0-2.1-2.7-1.9-3.4-.3,1.4,0,1.2.9,1.2,1.6v2.3s-1.1.9-1.6,1.7c.8.6,1.5,1.6,1.6,2.9l2.2-1.5v-1c1.1.7,2.1,1.5,3,2.5l2.2-1.5v-8.6l-2.2,1.5v5.9s0,0,0,0Z"/>
      <path class="st0" d="M39.8,244.9h5.2v6.5c-.5-.1-1-.5-1.3-1.2l-1.4,1c.5,1.6,1.8,1.9,2.7,1.9.9-.3,2.2-1.3,2.2-2.4v-7.6h-5.7s-1.7,1.8-1.7,1.8Z"/>
      <path class="st0" d="M65.1,244.5v6.9c-1.4-.2-2.9-.8-3.7-2.3,0-.8,1.8-1.5,2.4-1.9-1.4-.6-2.5-1.2-2.6-2.6.9-.9,2.4.5,2.7,1.1,1.1-.8.8-2.2-.5-2.6-1.5-.4-2.9,1.4-3.7,2.6.2,1.1,1,1.6,1.7,2.2-.7.2-1.5.7-1.7,1.7.5,1.6,2.2,3.4,5,3.2.9-.6,1.8-1.2,2.6-1.7v-8.3s-2.2,1.5-2.2,1.5h0Z"/>
      <path class="st0" d="M77.8,243.1l-1.7,1.8h6.2v2.8c-1.3-1.7-3.2-1.9-4.2-1-1.6,1.4-2.1,4.8.4,6.4,1.5,0,2.1-1.3,2.1-2-1.3.6-3-2-2.3-3.7,2.9.3,3.8,4,4,5.8l2.2-1.6v-8.4h-6.7Z"/>
      <path class="st0" d="M106.2,243.1l-1.7,1.8h5.7v6.4c-1.5,0-3.3-1-3.8-2.2-.9-1.9,2.4-2.2,1.5-.5-.3.5,1.3-.1,1.4-1,0-.8-.7-1.4-1.8-1.3-1.2,0-2.4,1.2-2.6,2.2-.6,2.5,1.9,4.4,4.7,4.4l2.9-2v-7.9s-6.1,0-6.1,0h0Z"/>
      <path class="st0" d="M121.3,249.6l.7-.5c.4-.3.5-.8.5-1.1v-5.1l-2.2,1.6v5.2c-.8.4-1.6.9-2.2,1.4,0,0-1.9-1-2.3-2.1,1.5-1.6,2.7-3.1,2-5.1-1-1.4-2.8-.9-3.4.5,1.3,0,1.7,1,1.7,1.2.9,3.2-3.2,3.6-1.3,5.6.7.7,1.8,1.4,3,1.7,1.6-2.2,4.1-2.3,3.4.1,2.4,0,2.7-3.5,0-3.4h0Z"/>
      <path class="st0" d="M30,245.8h-.6c-.5,0-.9-.6-1-1h2.4l1.6-1.8h-3.3l-2.4,2.5v5.4c-.9-.4-1.8-.6-2.2-1.5,1.9-1.3,2.3-6.1.5-6.5-.9-.2-2,.3-2.9,1.5,3.9-.5,1.7,5,.4,6.2.9,1,1.7,1.8,3,2.3,1.6-1.2,3.3-2.4,3.2-5.4h1.1v5.5s2.2-1.5,2.2-1.5v-5.7h-2.1Z"/>
      <path class="st0" d="M100.8,251.1c-1.3.1-2.6-.8-2.7-1.4,1-1.3,2.5-2.7,2.1-5.6-1.5-2.3-3.8-.4-5.1,1,.4,1.3,2.3,2.1,2.9.5-.6,0-1.9-.7-1.2-1.2,3.9.9-.2,4.9-1,6.3.8.9,2.1,2.3,4.9,2.3l2.2-1.5v-8.7l-2.2,1.5v6.9h0Z"/>
      <path class="st0" d="M88.9,238.1c-.9,1.3-3,2.1-4.7,1.9-.6-.4-1.1-1-1.4-1.7-.8.2-1.4.6-1.4,1.7,2,3,7.6.8,7.5-1.9h0Z"/>
      <polygon class="st0" points="69.8 243.1 68.1 244.9 72.4 244.9 72.4 253.1 74.6 251.5 74.6 243.1 69.8 243.1"/>
      <path class="st0" d="M131.5,250.1v-7l-2.2,1.5v5.9c0,1.8,1.3,2.6,2.3,2.6.9-.5,1.4-1,1.7-2.2-.6.5-1.7.7-1.7-.7h0Z"/>
      <path class="st0" d="M150.2,249.6l.7-.5c.4-.3.5-.8.5-1.1v-5.1l-2.2,1.6v5.2c-.8.4-1.6.9-2.2,1.4,0,0-1.9-1-2.3-2.1,1.5-1.6,2.7-3.1,2-5.1-1-1.4-2.8-.9-3.4.5,1.4,0,1.6,1,1.7,1.2.9,3.2-3.2,3.6-1.3,5.6.7.7,1.8,1.4,3,1.7,1.6-2.2,4.1-2.3,3.4.1,2.4,0,2.6-3.5,0-3.4h0Z"/>
      <path class="st0" d="M91.5,244.5v6.9c-1.4-.2-2.9-.8-3.7-2.3,0-.8,1.8-1.5,2.4-1.9-1.4-.6-2.5-1.2-2.6-2.6.9-.9,2.4.5,2.7,1.1,1.1-.8.8-2.2-.5-2.6-1.5-.4-2.9,1.4-3.7,2.6.2,1.1,1,1.6,1.7,2.2-.7.2-1.5.7-1.7,1.7.5,1.6,2.2,3.4,5,3.2.9-.6,1.8-1.2,2.6-1.7v-8.3s-2.2,1.5-2.2,1.5h0Z"/>
      <polygon class="st0" points="34.1 243.1 32.4 244.9 36.7 244.9 36.7 253.1 38.9 251.5 38.9 243.1 34.1 243.1"/>
      <polygon class="st0" points="141.7 237 139.5 238.4 139.5 241.4 141.7 240 141.7 237"/>
    </g>
  </g>
</svg>