<?xml version="1.0" encoding="UTF-8"?>
<svg id="Layer_2" data-name="Layer 2" xmlns="http://www.w3.org/2000/svg" viewBox="0 0 75.43 75.42">
  <defs>
    <style>
      .cls-1 {
        fill: #d8c95e;
      }
    </style>
  </defs>
  <g id="Layer_1-2" data-name="Layer 1">
    <g>
      <path class="cls-1" d="M64.91,10.1c-.47.26-1.13.65-1.87,1.16-.74.51-1.57,1.14-2.42,1.86-.43.36-.86.74-1.29,1.13-.43.39-.86.81-1.28,1.22-.41.42-.83.84-1.22,1.27-.4.43-.77.86-1.13,1.29-.28.34-.55.67-.8,1l1.43,1.49c.34-.27.68-.54,1.03-.83.42-.36.86-.74,1.28-1.13.43-.39.85-.81,1.27-1.22.41-.42.83-.85,1.22-1.28.4-.43.77-.86,1.13-1.29.71-.85,1.34-1.69,1.85-2.43.51-.74.9-1.4,1.16-1.87.14-.23.22-.43.29-.56.06-.13.09-.2.09-.2,0,0-.07.03-.2.09-.13.07-.32.16-.56.29Z"/>
      <path class="cls-1" d="M37.69,42.26c2.52,0,4.56-2.05,4.56-4.56s-2.05-4.56-4.56-4.56-4.56,2.05-4.56,4.56,2.05,4.56,4.56,4.56Z"/>
      <path class="cls-1" d="M29.42,37.69c0-4.56,3.71-8.27,8.27-8.27s8.27,3.71,8.27,8.27-3.71,8.27-8.27,8.27-8.27-3.71-8.27-8.27ZM30.5,37.69c0,3.97,3.23,7.2,7.2,7.2s7.2-3.23,7.2-7.2-3.23-7.2-7.2-7.2-7.2,3.23-7.2,7.2Z"/>
      <path class="cls-1" d="M11.43,49.14L0,37.71h0s11.43-11.43,11.43-11.43c2.22-2.22,4.5-3.29,6.79-3.2,2.42.1,4.36,1.49,5.36,2.38.43.47.76.77.87.86l.48-.49.41-.48,1.01-.85s-.37-.43-.93-.94c-.89-1-2.24-2.91-2.35-5.32-.1-2.29.97-4.58,3.2-6.81L37.71,0l11.43,11.43c2.22,2.22,3.29,4.5,3.2,6.78-.11,2.56-1.66,4.58-2.53,5.53-.24.23-.43.42-.55.56-.02.01-.03.03-.03.03h0c-.08.09-.14.16-.15.18l.99.83.85,1.01s.09-.07.18-.15h0s.01-.01.02-.03c.14-.13.35-.33.6-.59.95-.88,2.93-2.38,5.47-2.49,2.29-.1,4.58.97,6.81,3.2l11.43,11.43-11.43,11.44c-2.22,2.21-4.5,3.3-6.78,3.2-2.42-.1-4.37-1.49-5.37-2.38-.49-.54-.86-.86-.91-.9l-.85,1.01-1.01.85s.37.43.93.94c.89,1.01,2.24,2.91,2.35,5.32.1,2.29-.97,4.58-3.2,6.8l-11.43,11.43h0s0,0,0,0l-11.43-11.43c-2.22-2.21-3.29-4.5-3.2-6.78.1-2.56,1.65-4.58,2.52-5.53.24-.22.43-.42.56-.56.01-.01.03-.03.03-.03h0c.08-.09.14-.16.15-.18l-1-.84-.6-.72-.28-.25s-.07.06-.13.12h0s-.01,0-.03.03c-.13.12-.33.32-.56.56-.95.87-2.97,2.42-5.52,2.53-2.29.09-4.57-.98-6.79-3.2ZM33.65,48.84c.04-.19.03-.32.04-.42,0-.1,0-.15,0-.15,0,0-.03.03-.1.1-.07.07-.17.19-.29.29-.06.05-.13.11-.2.17-.08.06-.16.12-.25.18-.18.11-.38.21-.6.31-.22.09-.46.16-.72.2-.26.07-.51.04-.77.01-.27-.03-.53-.1-.78-.18-.24-.09-.45-.23-.66-.38h0s0,0,0,0h0s0,0-.01-.01c0,0,0,0-.02-.01h0s-.06-.05-.06-.05l-.11-.09c-.09-.07-.12-.1-.15-.14-.07-.06-.17-.16-.25-.28-.15-.23-.29-.45-.39-.7-.09-.24-.19-.48-.2-.75-.04-.26-.03-.51,0-.75.02-.23.07-.46.13-.66.03-.1.07-.19.1-.29.04-.09.08-.18.11-.25.07-.16.14-.27.19-.36l.07-.13s-.05.01-.14.04c-.09.04-.24.07-.4.17-.09.04-.18.09-.29.14-.1.06-.2.13-.32.21-.22.17-.45.38-.66.65-.21.28-.41.61-.53,1.01-.15.41-.17.85-.12,1.33.05.48.2,1.02.5,1.48.15.23.29.47.52.73.1.12.24.23.3.29l.13.11.06.05.03.03.09.07c.24.17.48.33.74.46.27.12.54.21.81.28.27.06.53.12.8.12.27,0,.52-.01.76-.06.48-.1.89-.23,1.24-.49.35-.23.61-.52.82-.79.2-.28.34-.57.43-.82.04-.13.08-.25.11-.37.02-.12.05-.22.07-.32ZM28.65,43.79c.11.17.23.33.35.48,1.23,1.62,2.91,2.89,4.85,3.62,1.2.46,2.49.7,3.85.7.99,0,1.96-.13,2.87-.39,2.2-.59,4.13-1.87,5.54-3.58.19-.23.37-.47.54-.71,1.13-1.62,1.84-3.56,1.94-5.66,0-.19.01-.37.01-.56,0-2.26-.69-4.35-1.87-6.09-.1-.16-.22-.31-.33-.47-1.23-1.62-2.89-2.89-4.83-3.62-1.21-.47-2.52-.72-3.89-.72-.98,0-1.93.13-2.83.38-2.51.67-4.66,2.21-6.11,4.28-1.14,1.62-1.85,3.58-1.95,5.68,0,.19-.01.37-.01.56,0,2.26.69,4.35,1.86,6.09ZM41.37,50.68c0-.35-.06-.66-.13-.92-.02-.07-.04-.13-.06-.19-.02-.06-.04-.11-.06-.17-.05-.11-.09-.21-.13-.3-.08-.18-.17-.28-.22-.37-.05-.08-.09-.13-.09-.13,0,0,0,.05-.02.15-.02.09-.03.24-.07.4-.02.08-.04.16-.06.26-.03.09-.07.19-.1.29-.07.2-.17.42-.29.62-.13.19-.28.39-.47.57-.18.19-.4.35-.62.49-.23.12-.48.21-.74.29-.24.05-.49.12-.75.1-.01,0-.02,0-.03,0h-.03s-.07,0-.07,0h-.15c-.11-.02-.16-.03-.21-.04-.09-.01-.23-.04-.37-.08-.12-.04-.25-.08-.38-.13-.12-.05-.24-.12-.35-.19-.22-.15-.44-.3-.61-.49-.18-.18-.32-.37-.45-.59-.12-.21-.21-.43-.28-.63-.03-.1-.06-.19-.09-.29-.02-.09-.04-.18-.06-.26-.03-.16-.04-.29-.06-.38-.01-.09-.02-.15-.02-.15,0,0-.03.04-.09.12-.05.09-.15.19-.23.37-.04.09-.09.18-.14.28-.05.11-.09.23-.13.36-.08.26-.14.57-.16.92,0,.35.03.72.17,1.11.13.39.36.79.68,1.17.33.36.77.66,1.28.9.26.12.52.2.85.26.16.03.33.06.42.07h.17s.09.02.09.02h.04s.11.01.11.01c.58,0,1.17-.13,1.69-.31.51-.21.96-.54,1.3-.87.34-.33.58-.75.72-1.14.15-.39.19-.77.2-1.11ZM48.81,47.07c-.09-.39-.3-.75-.5-1.03-.21-.28-.44-.49-.65-.66-.11-.08-.21-.16-.31-.22-.1-.06-.2-.11-.28-.16-.16-.1-.29-.12-.38-.17-.09-.03-.14-.05-.14-.05,0,0,.02.05.07.13.04.08.13.21.19.36.02.07.06.15.09.24.03.09.06.19.09.29.05.2.09.43.12.67,0,.24.03.51-.03.75-.04.25-.13.5-.23.74-.11.25-.24.48-.42.68-.17.19-.36.36-.56.52h0s-.01.01-.01.01l-.03.02-.06.04-.12.09c-.09.07-.14.07-.19.09-.09.04-.22.09-.35.14-.26.08-.51.15-.77.18-.26,0-.54,0-.78-.06-.26-.04-.49-.12-.71-.21-.21-.09-.42-.22-.59-.34-.09-.07-.17-.13-.24-.19-.08-.07-.14-.13-.2-.19-.12-.11-.21-.21-.28-.28-.07-.07-.1-.11-.1-.11v.15c0,.09,0,.25.03.43.01.09.03.2.05.32.01.06.03.11.04.18.02.06.04.12.06.19.09.26.22.54.41.83.19.28.45.57.79.81.33.24.77.46,1.24.54.47.09,1.02.1,1.57-.01.27-.08.53-.14.84-.29.15-.07.3-.14.38-.19l.15-.09.07-.04.04-.02.09-.07c.17-.14.34-.28.5-.42.27-.25.5-.51.67-.83.28-.49.5-.96.54-1.47.06-.49.03-.95-.09-1.33ZM53.49,41.3c0-.28-.06-.55-.14-.8-.08-.25-.18-.49-.29-.7-.11-.21-.24-.41-.38-.58-.15-.17-.31-.32-.48-.45-.33-.26-.68-.42-1-.54-.33-.1-.64-.14-.91-.16-.14,0-.27,0-.38,0-.12.01-.23.03-.33.04-.19.02-.32.08-.41.09-.09.03-.15.04-.15.04,0,0,.05.02.13.07.08.04.22.1.36.19.07.04.14.09.23.14.08.06.16.12.25.18.18.14.34.29.49.47.15.19.29.39.4.62.12.22.23.49.27.74.05.26.06.53.05.79,0,.14-.02.27-.04.41-.02.11-.06.23-.1.34h0s0,0,0,.01h0s0,.03,0,.03h0s0,0,0,0h0s-.03.08-.03.08l-.05.13c-.04.11-.07.14-.09.19-.04.09-.11.21-.18.32-.14.22-.34.42-.54.59-.21.17-.42.32-.65.43-.23.12-.48.18-.72.24-.23.05-.46.07-.67.08-.1,0-.2,0-.3,0-.09,0-.18-.02-.26-.02-.16-.02-.3-.05-.39-.07s-.15-.03-.15-.03c0,0,.03.04.09.12.06.07.14.2.28.33.07.07.14.14.22.23.09.08.19.15.3.23.22.16.49.31.82.44.32.11.72.21,1.13.19.41,0,.85-.1,1.31-.29.47-.19.87-.53,1.25-.94.18-.21.38-.42.52-.72.08-.15.16-.3.19-.38l.07-.16.03-.08v-.04s.06-.1.06-.1c.05-.14.09-.28.13-.42.03-.14.05-.29.07-.43.03-.28.04-.57.03-.85ZM50.06,30.04c-.41-.02-.79.05-1.11.15-.32.11-.61.27-.84.41-.11.08-.21.15-.3.23-.09.08-.17.16-.24.22-.15.13-.22.25-.28.32-.06.08-.09.12-.09.12,0,0,.05,0,.14-.02.09,0,.24-.05.4-.06.08,0,.16,0,.26-.02.1,0,.2,0,.3,0,.21,0,.45.03.68.09.24.06.46.14.69.27.23.11.44.28.65.44.22.17.35.39.51.61.14.22.26.46.35.7h0s0,.04,0,.04l.02.07.03.14c.03.11.03.16.03.21.01.09.03.23.04.37,0,.27,0,.53-.08.79-.08.26-.16.51-.29.73-.12.23-.25.42-.41.61-.17.18-.35.33-.52.46-.09.06-.17.12-.25.18-.09.05-.16.09-.23.13-.14.08-.27.13-.35.18-.09.04-.13.06-.13.06,0,0,.05.02.14.05.09.02.24.09.43.1.1.01.2.03.32.05.11.01.24.01.37.02h0c.27,0,.58-.04.92-.13.32-.1.67-.25,1-.5.34-.24.65-.59.91-1.01.23-.42.39-.94.47-1.5.02-.28.02-.55-.02-.89-.02-.16-.04-.33-.06-.42l-.03-.17-.02-.09v-.04s-.03-.11-.03-.11c-.2-.55-.47-1.08-.82-1.51-.38-.42-.8-.76-1.23-.97-.45-.21-.9-.31-1.32-.32ZM41.78,26.54c-.04.19-.03.32-.04.42,0,.1,0,.15,0,.15,0,0,.04-.04.1-.11.07-.07.17-.18.29-.29.06-.05.13-.11.2-.17.08-.06.16-.11.25-.18.18-.11.38-.22.6-.31.22-.09.46-.16.72-.2.26-.07.51-.04.78-.01.26.03.52.1.78.18.24.09.47.24.68.39,0,0,0,0,0,0l.02.02.06.04.11.09c.09.07.12.1.15.14.07.06.17.16.25.28.15.23.29.45.39.7.09.24.19.49.2.75.04.26.03.51.01.75-.03.23-.07.46-.13.66-.04.1-.07.19-.11.29-.04.09-.08.18-.11.25-.07.16-.14.27-.19.36s-.07.13-.07.13c0,0,.05-.01.14-.04.09-.04.24-.07.4-.16.09-.05.18-.09.28-.15.1-.06.2-.13.32-.21.22-.17.45-.38.67-.65.21-.28.41-.61.53-1.01.15-.41.17-.85.12-1.33-.05-.48-.2-1.01-.5-1.48-.15-.23-.29-.48-.52-.73-.1-.12-.23-.23-.3-.29l-.13-.11-.07-.05-.03-.03-.09-.07c-.24-.17-.48-.33-.74-.46-.27-.12-.54-.21-.81-.28-.27-.06-.53-.11-.8-.12-.27,0-.52.02-.76.06-.48.09-.89.23-1.24.49-.35.23-.61.52-.82.79-.2.28-.34.57-.43.82-.04.13-.08.25-.11.37-.02.12-.05.23-.07.32ZM34.05,24.7c0,.35.06.66.13.92.04.13.08.25.12.36.05.11.09.21.13.3.08.18.17.28.22.37.05.09.09.13.09.13,0,0,0-.05.02-.15.01-.09.02-.24.06-.4.02-.08.04-.16.07-.26.03-.09.06-.19.1-.29.07-.2.17-.42.29-.62.13-.19.28-.39.47-.57.17-.19.39-.35.62-.49.23-.12.48-.21.74-.29.24-.05.49-.12.75-.1h.07s.08,0,.08,0h.14c.11.02.16.03.21.04.09.01.23.04.37.08.12.04.25.08.38.13.12.05.24.12.35.19.22.15.44.31.61.49.18.18.32.37.45.59.12.21.21.43.28.63.03.1.06.19.09.29.02.09.04.18.06.26.03.16.05.29.06.38.01.09.02.15.02.15,0,0,.03-.04.09-.12.05-.09.15-.19.23-.37.04-.09.09-.18.14-.28.05-.11.09-.23.13-.36.08-.26.15-.57.16-.92,0-.35-.03-.72-.17-1.11-.13-.39-.36-.79-.68-1.17-.33-.36-.77-.66-1.28-.9-.26-.12-.52-.2-.85-.26-.16-.03-.33-.06-.42-.07h-.17s-.09-.02-.09-.02h-.04s-.11-.01-.11-.01c-.58,0-1.17.13-1.69.31-.51.21-.96.54-1.3.87-.34.33-.58.75-.72,1.14-.15.39-.19.77-.2,1.11ZM26.62,28.31c.09.39.3.75.5,1.03.21.28.44.49.65.66.11.08.21.16.31.22.05.03.1.06.15.09.05.03.09.05.14.08.16.1.29.12.38.17.09.03.14.05.14.05,0,0-.03-.04-.07-.13-.04-.08-.13-.21-.18-.36-.03-.07-.06-.15-.09-.24-.03-.09-.06-.19-.09-.29-.05-.2-.1-.43-.12-.67,0-.24-.03-.51.03-.75.04-.25.13-.5.23-.74.11-.25.25-.48.42-.68.17-.19.36-.37.57-.53,0,0,.02-.01.03-.02h0s.06-.05.06-.05l.12-.09c.09-.07.14-.07.19-.09.09-.04.22-.1.35-.14.26-.08.51-.15.77-.18.26-.01.54,0,.78.05.26.04.49.12.71.21.21.09.42.22.59.34.09.07.17.13.24.19.08.07.14.13.2.19.12.11.21.21.28.28.07.07.1.11.1.11v-.15c0-.09,0-.25-.03-.43-.01-.09-.03-.2-.05-.32-.02-.11-.06-.23-.1-.37-.09-.26-.22-.54-.4-.83-.2-.28-.45-.57-.79-.81-.33-.24-.77-.46-1.24-.54-.47-.09-1.03-.1-1.57.01-.27.08-.53.15-.84.29-.15.07-.3.14-.38.19,0,0-.14.09-.14.09l-.07.04-.04.02-.09.07c-.34.28-.68.56-.95.89-.09.11-.17.23-.23.36-.28.49-.5.96-.54,1.47-.06.49-.03.95.09,1.33ZM21.94,34.09c0,.28.06.55.14.8.08.25.18.49.29.7.11.21.24.41.38.58.15.17.31.32.48.45.33.26.68.42,1,.54.33.1.64.14.91.16.14,0,.27,0,.38,0,.12-.01.23-.03.32-.04.19-.02.32-.08.41-.09.09-.03.15-.04.15-.04,0,0-.05-.02-.13-.07-.08-.04-.22-.1-.36-.19-.07-.04-.14-.09-.23-.14-.08-.06-.16-.12-.25-.18-.18-.14-.34-.29-.49-.47-.15-.19-.29-.39-.4-.62-.12-.22-.23-.49-.27-.74-.05-.26-.06-.53-.05-.79,0-.14.02-.27.04-.41.02-.11.06-.23.09-.34h0s0,0,0-.01c0,0,0,0,0,0h0s0-.01,0-.02c0,0,0,0,0,0h0s.03-.08.03-.08l.05-.13c.04-.11.07-.14.09-.19.04-.09.11-.21.18-.32.14-.22.34-.42.54-.59.21-.17.42-.32.65-.43.23-.12.48-.18.72-.24.23-.05.46-.07.67-.08.1,0,.2,0,.3,0,.1,0,.18.02.26.02.16.02.3.06.39.07.09.02.15.03.15.03,0,0-.03-.04-.09-.12-.06-.07-.14-.2-.28-.33-.07-.07-.14-.14-.22-.22-.04-.04-.09-.08-.14-.12-.05-.04-.1-.08-.16-.12-.22-.16-.49-.31-.82-.44-.32-.11-.72-.21-1.13-.19-.41,0-.85.1-1.31.29-.47.19-.87.53-1.25.94-.18.21-.38.42-.52.72-.08.15-.15.3-.19.38l-.07.16-.03.08v.04s-.06.1-.06.1c-.05.14-.09.28-.13.42-.03.14-.05.29-.07.43-.03.28-.04.57-.03.85ZM21.85,41.71c.02.16.04.33.06.42l.03.17.02.09v.04s.03.1.03.1c.2.55.48,1.08.82,1.51.38.42.8.76,1.23.97.45.21.9.31,1.32.32.41.02.79-.05,1.11-.15.32-.11.61-.26.84-.41.11-.08.21-.15.3-.23.09-.08.17-.16.24-.22.14-.13.21-.25.29-.32.06-.08.09-.12.09-.12,0,0-.05,0-.14.02-.09,0-.24.05-.4.06-.08,0-.16,0-.26.02-.1,0-.2,0-.3,0-.21,0-.45-.03-.68-.09-.24-.06-.46-.14-.69-.27-.23-.11-.44-.28-.65-.44-.22-.17-.35-.39-.51-.61-.13-.22-.25-.45-.34-.69,0,0,0,0,0-.01v-.04s-.02-.07-.02-.07l-.03-.14c-.03-.11-.03-.16-.03-.21-.01-.09-.03-.23-.04-.37,0-.27,0-.53.08-.79.08-.26.16-.51.29-.73.12-.23.25-.42.41-.61.17-.18.35-.33.52-.46.09-.06.17-.12.25-.18.09-.05.16-.1.23-.13.14-.08.27-.13.35-.18.09-.04.13-.06.13-.06,0,0-.05-.02-.14-.05-.09-.02-.24-.09-.43-.1-.09-.01-.2-.03-.32-.05-.11-.01-.24-.01-.37-.02h0c-.27,0-.58.04-.92.13-.32.1-.67.25-1,.5-.34.24-.65.59-.91,1.01-.23.42-.39.94-.47,1.5-.02.28-.02.55.02.89Z"/>
      <path class="cls-1" d="M18.54,16.75c-.39-.43-.8-.85-1.22-1.27-.42-.41-.85-.83-1.28-1.22-.42-.39-.85-.77-1.28-1.13-.85-.72-1.69-1.34-2.43-1.86-.74-.51-1.39-.9-1.87-1.16-.23-.13-.43-.22-.56-.29-.13-.06-.2-.09-.2-.09,0,0,.03.07.1.2.07.13.16.32.29.56.26.47.65,1.13,1.16,1.87.51.75,1.14,1.58,1.85,2.43.36.43.74.86,1.13,1.29.39.43.8.85,1.22,1.28.42.41.84.83,1.27,1.22.42.39.86.77,1.28,1.13.34.28.68.56,1.01.81l1.48-1.43c-.26-.34-.54-.68-.83-1.04-.36-.43-.73-.86-1.13-1.29Z"/>
      <path class="cls-1" d="M65.28,65.25c-.26-.47-.65-1.13-1.16-1.87-.51-.75-1.14-1.58-1.85-2.43-.36-.43-.73-.86-1.13-1.29-.39-.43-.8-.86-1.22-1.28-.42-.41-.84-.83-1.27-1.22-.42-.39-.86-.77-1.28-1.13-.35-.29-.69-.57-1.03-.83l-1.43,1.49c.26.33.52.66.8,1,.36.43.73.86,1.13,1.29.39.43.81.85,1.22,1.27.42.41.85.83,1.28,1.22.43.39.86.77,1.29,1.13.85.72,1.68,1.34,2.42,1.86.74.51,1.4.9,1.87,1.16.23.13.43.22.56.29.13.06.2.1.2.1,0,0-.03-.07-.09-.2-.07-.13-.16-.32-.29-.56Z"/>
      <path class="cls-1" d="M10.47,65.62c.47-.26,1.13-.65,1.87-1.16.74-.51,1.58-1.14,2.43-1.86.43-.36.86-.74,1.28-1.13.43-.39.86-.81,1.28-1.22.41-.42.83-.84,1.22-1.27.4-.43.77-.86,1.13-1.29.29-.35.57-.7.83-1.04l-1.48-1.43c-.33.26-.66.53-1.01.81-.42.36-.86.74-1.28,1.13-.43.39-.85.81-1.27,1.22-.41.43-.83.85-1.22,1.28-.39.43-.77.86-1.13,1.29-.71.86-1.34,1.69-1.85,2.43-.51.74-.9,1.4-1.16,1.87-.13.23-.22.43-.29.56-.07.13-.1.2-.1.2,0,0,.07-.03.2-.1.13-.07.33-.16.56-.29Z"/>
      <rect class="cls-1" x="0" width="4.71" height="4.71"/>
      <rect class="cls-1" x="70.72" width="4.71" height="4.71"/>
      <polygon class="cls-1" points="4.71 75.42 4.71 70.71 0 70.71 0 75.42 0 75.42 4.71 75.42 4.71 75.42"/>
      <polygon class="cls-1" points="70.72 70.71 70.72 75.42 70.72 75.42 75.42 75.42 75.42 75.42 75.42 70.71 70.72 70.71"/>
    </g>
  </g>
</svg>